<svg width="108" height="101" viewBox="0 0 108 101" fill="none" xmlns="http://www.w3.org/2000/svg">
<path d="M58.3246 44.5732H2.05567C1.04117 44.5732 0.21875 45.383 0.21875 46.3819V95.0263C0.21875 96.0252 1.04117 96.835 2.05567 96.835H58.3246C59.3391 96.835 60.1615 96.0252 60.1615 95.0263V46.3819C60.1615 45.383 59.3391 44.5732 58.3246 44.5732Z" fill="white"/>
<path d="M58.3252 97.048H2.0563C0.921388 97.048 0 96.1408 0 95.0234V46.3789C0 45.2615 0.921388 44.3542 2.0563 44.3542H58.3281C59.4631 44.3542 60.3844 45.2615 60.3844 46.3789V95.0234C60.3844 96.1408 59.4631 97.048 58.3281 97.048H58.3252ZM2.0563 44.7891C1.16417 44.7891 0.438755 45.5034 0.438755 46.3818V95.0262C0.438755 95.9047 1.16417 96.6189 2.0563 96.6189H58.3281C59.2203 96.6189 59.9457 95.9047 59.9457 95.0262V46.3818C59.9457 45.5034 59.2203 44.7891 58.3281 44.7891H2.0563Z" fill="#1F1C1D"/>
<path d="M87.2093 20.8789H2.05567C1.04117 20.8789 0.21875 21.6887 0.21875 22.6876V37.1888C0.21875 38.1877 1.04117 38.9974 2.05567 38.9974H87.2093C88.2238 38.9974 89.0462 38.1877 89.0462 37.1888V22.6876C89.0462 21.6887 88.2238 20.8789 87.2093 20.8789Z" fill="#818CF8"/>
<path d="M82.6479 24.4529H24.5713C23.5568 24.4529 22.7344 25.2627 22.7344 26.2616V33.6115C22.7344 34.6104 23.5568 35.4202 24.5713 35.4202H82.6479C83.6624 35.4202 84.4848 34.6104 84.4848 33.6115V26.2616C84.4848 25.2627 83.6624 24.4529 82.6479 24.4529Z" fill="white"/>
<path d="M18.4826 36.4917L14.996 33.1134C15.9086 32.137 16.4702 30.8439 16.4702 29.424C16.4702 26.3826 13.9254 23.9202 10.7898 23.9202C7.65416 23.9202 5.10938 26.3855 5.10938 29.424C5.10938 32.4625 7.65123 34.9278 10.7898 34.9278C12.1441 34.9278 13.3902 34.467 14.3642 33.698L17.8625 37.0879C18.0322 37.252 18.3101 37.252 18.4797 37.0879C18.6494 36.9237 18.6494 36.653 18.4797 36.4888L18.4826 36.4917ZM10.7869 34.0811C8.13094 34.0811 5.98104 31.9959 5.98104 29.424C5.98104 26.8521 8.13386 24.7669 10.7869 24.7669C13.4399 24.7669 15.5927 26.8521 15.5927 29.424C15.5927 31.9959 13.4399 34.0811 10.7869 34.0811Z" fill="white"/>
<path d="M51.1837 53.2712C51.1837 53.2712 55.4133 77.7806 58.2799 81.4037C60.9007 84.7129 66.8444 78.2011 66.8444 78.2011L51.6371 46.6931L48.3523 48.8013C47.8638 49.1153 47.7849 49.7892 48.1885 50.2039L51.1837 53.2712Z" fill="white"/>
<path d="M60.206 82.5557C60.1709 82.5557 60.1328 82.5557 60.0977 82.5557C59.2904 82.5269 58.6206 82.1842 58.1087 81.5362C55.2861 77.9706 51.2729 55.0625 50.9804 53.3719L48.032 50.3536C47.795 50.1088 47.678 49.7776 47.719 49.4406C47.757 49.1037 47.9442 48.8042 48.2338 48.6198L51.5186 46.5116C51.5713 46.4771 51.6385 46.4684 51.697 46.4857C51.7585 46.503 51.8082 46.5433 51.8345 46.6009L67.0418 78.1089C67.0798 78.1866 67.0652 78.2817 67.0067 78.345C66.8487 78.5178 63.1281 82.5557 60.203 82.5557H60.206ZM51.5479 47.0099L48.4736 48.9827C48.2952 49.0979 48.1811 49.2822 48.1548 49.4896C48.1314 49.697 48.2016 49.9043 48.3479 50.0541L51.3431 53.1214C51.3724 53.1531 51.3928 53.1934 51.4016 53.2337C51.4426 53.4785 55.6546 77.7316 58.4539 81.2683C58.8897 81.8184 59.4338 82.0978 60.1124 82.1208C60.1445 82.1208 60.1738 82.1208 60.206 82.1208C62.6835 82.1208 65.9741 78.7972 66.5825 78.1578L51.5479 47.0041V47.0099Z" fill="#1F1C1D"/>
<path d="M53.6174 44.7642L49.4453 47.0244L68.7375 81.5488L72.9096 79.2885L53.6174 44.7642Z" fill="white"/>
<path d="M68.7405 81.7557C68.7201 81.7557 68.6996 81.7557 68.6791 81.7471C68.6235 81.7298 68.5767 81.6952 68.5475 81.6434L49.2539 47.12C49.1954 47.0163 49.2335 46.8838 49.3417 46.8262L53.5157 44.5653C53.5654 44.5365 53.6269 44.5308 53.6824 44.5481C53.738 44.5653 53.7848 44.5999 53.8141 44.6517L73.1076 79.1751C73.1661 79.2788 73.1281 79.4113 73.0199 79.4689L68.8458 81.7298C68.8136 81.7471 68.7756 81.7557 68.7405 81.7557ZM49.7453 47.1027L68.8283 81.2488L72.6162 79.1953L53.5333 45.0492L49.7453 47.1027Z" fill="#1F1C1D"/>
<path d="M61.9382 13.9496C58.7352 8.21249 53.4497 4.05079 47.0643 2.2277C40.6761 0.404615 33.9543 1.13615 28.1277 4.29559C22.301 7.44927 18.0743 12.6507 16.2228 18.9408C14.3712 25.2308 15.1171 31.8492 18.3229 37.5863C21.5259 43.3234 26.8143 47.4851 33.1967 49.3082C39.5792 51.1313 46.3068 50.394 52.1334 47.2403C57.9572 44.0867 62.1868 38.8824 64.0383 32.5952C65.8928 26.3051 65.1469 19.6867 61.9382 13.9496ZM59.4899 31.2963C57.9894 36.3882 54.5641 40.5989 49.849 43.1564C45.1338 45.711 39.6874 46.3072 34.5159 44.8297C29.3415 43.3522 25.0681 39.9797 22.4706 35.337C19.8761 30.6943 19.2707 25.3316 20.7712 20.2397C22.2717 15.1448 25.697 10.937 30.4121 8.37953C33.4834 6.71485 36.815 5.92283 40.094 5.92283C47.2135 5.92283 54.1225 9.63813 57.7904 16.1989C60.382 20.8416 60.9904 26.2014 59.4899 31.2963Z" fill="white" stroke="#1F1C1D" stroke-width="1.5" stroke-linecap="round" stroke-linejoin="round"/>
<path d="M27.8529 12.481C27.7915 12.481 27.733 12.458 27.6891 12.409C27.6072 12.3197 27.616 12.1844 27.7067 12.1037C28.7538 11.185 29.9151 10.3757 31.1582 9.70176C31.2635 9.64416 31.3981 9.6816 31.4566 9.78816C31.5151 9.89184 31.477 10.0243 31.3688 10.0819C30.1549 10.7415 29.02 11.5277 27.9992 12.4263C27.9582 12.4637 27.9056 12.481 27.8529 12.481Z" fill="white"/>
<path d="M31.9032 42.1975C31.871 42.1975 31.8359 42.1889 31.8067 42.1745C28.4195 40.5184 25.6582 37.9005 23.8155 34.6057C21.4169 30.3144 20.8612 25.3606 22.2447 20.6575C22.859 18.5752 23.8184 16.6455 25.0996 14.9204C25.1727 14.8253 25.3072 14.8023 25.4067 14.8743C25.5032 14.9463 25.5266 15.0788 25.4535 15.1767C24.2016 16.8615 23.2626 18.7451 22.6659 20.7784C21.3116 25.3721 21.8557 30.2078 24.1987 34.3983C25.9976 37.6153 28.6944 40.17 31.9997 41.7886C32.108 41.8404 32.1518 41.97 32.0992 42.0794C32.0611 42.1543 31.9822 42.2004 31.9032 42.2004V42.1975Z" fill="#1F1C1D"/>
<path d="M90.6224 36.4576C89.157 36.3194 81.4115 33.0649 80.4579 38.3354C80.0864 40.3918 79.5394 42.4251 81.04 44.0063C81.8151 44.8213 82.7336 45.4924 83.6462 46.1548C84.2926 46.6243 84.9361 47.0937 85.5826 47.5661C87.5599 49.0061 90.3591 50.4375 92.9303 49.6944C96.2472 48.7411 97.505 42.7103 95.3873 40.3832C96.1156 37.4196 92.0937 36.593 90.6253 36.4576H90.6224Z" fill="#1F1C1D"/>
<path d="M100.173 57.8797C96.9467 55.2387 90.4707 54.9766 83.1347 54.7001C83.1347 54.7001 78.557 54.6166 75.0499 55.5699C68.6499 57.6579 64.0547 66.8338 64.0547 66.8338L67.6437 73.098L70.1563 72.1073C70.1563 72.1073 68.6762 83.6247 67.5033 98.6673C67.5033 98.6673 80.9321 101.642 101.919 100.487C101.919 100.487 102.019 59.0461 100.17 57.8797H100.173Z" fill="#818CF8"/>
<path d="M55.0988 50.3738L53.4023 51.2929C51.3981 52.3786 50.6674 54.8585 51.7701 56.8318L65.8352 82.0022C66.9379 83.9755 69.4565 84.695 71.4607 83.6093L73.1572 82.6902C75.1614 81.6044 75.8921 79.1246 74.7894 77.1512L60.7243 51.9809C59.6216 50.0075 57.103 49.288 55.0988 50.3738Z" fill="#1F1C1D"/>
<path d="M69.4736 84.3211C67.9321 84.3211 66.4374 83.5176 65.6447 82.0977L51.5782 56.9288C50.4199 54.8551 51.1892 52.2371 53.2982 51.0966L54.9947 50.1779C57.1007 49.0374 59.7596 49.7948 60.9179 51.8714L74.9844 77.0403C76.1427 79.114 75.3734 81.7319 73.2674 82.8724L71.5709 83.7912C70.9069 84.1512 70.1873 84.3211 69.4765 84.3211H69.4736ZM57.089 50.08C56.4514 50.08 55.802 50.2326 55.2053 50.558L53.5088 51.4768C51.6134 52.505 50.9201 54.858 51.9644 56.7214L66.0309 81.8903C67.0722 83.7566 69.4619 84.4392 71.3573 83.411L73.0539 82.4923C74.9493 81.4641 75.6425 79.1111 74.5983 77.2477L60.5318 52.0787C59.8181 50.8028 58.4726 50.08 57.089 50.08Z" fill="#1F1C1D"/>
<path d="M80.6016 59.1643L80.7683 75.4713L80.8619 84.316L84.2257 75.3186L90.3829 58.8533L80.6016 59.1643Z" fill="white"/>
<path d="M80.8596 84.5322C80.8596 84.5322 80.8362 84.5322 80.8216 84.5293C80.7163 84.512 80.6402 84.4227 80.6402 84.319L80.3828 59.1674C80.3828 59.0493 80.4764 58.9543 80.5963 58.9485L90.3777 58.6375C90.4625 58.6375 90.521 58.6691 90.5619 58.7267C90.6058 58.7843 90.6146 58.8592 90.5912 58.9283L81.0702 84.391C81.038 84.4774 80.9561 84.5322 80.8654 84.5322H80.8596ZM80.8216 59.3719L81.0643 83.1353L90.0588 59.0781L80.8186 59.3719H80.8216Z" fill="#1F1C1D"/>
<path d="M80.7578 75.4711L80.8514 84.3158L84.2152 75.3185L84.2298 64.979L85.2565 63.7175L83.9666 61.7764L82.1706 63.5851L83.3582 64.9272L80.7578 75.4711Z" fill="#1F1C1D"/>
<path d="M80.8491 84.5317C80.8491 84.5317 80.8257 84.5317 80.8111 84.5289C80.7058 84.5116 80.6297 84.4223 80.6297 84.3186L80.5391 75.4739C80.5391 75.4566 80.5391 75.4394 80.5449 75.4221L83.116 64.9847L82.0045 63.729C81.9284 63.6455 81.9343 63.5159 82.0133 63.4352L83.8063 61.6265C83.8531 61.5805 83.9175 61.5545 83.9848 61.5632C84.052 61.5689 84.1105 61.6035 84.1456 61.6582L85.4356 63.5965C85.4882 63.6743 85.4824 63.7779 85.4239 63.85L84.4469 65.0538L84.4323 75.3155C84.4323 75.3414 84.4264 75.3674 84.4177 75.3904L81.0539 84.3877C81.0217 84.4741 80.9398 84.5289 80.8491 84.5289V84.5317ZM80.9778 75.497L81.0568 83.1378L83.9964 75.281L84.0111 64.9818C84.0111 64.9329 84.0286 64.8868 84.0579 64.8465L84.9851 63.7059L83.9321 62.1219L82.4696 63.5936L83.5226 64.7831C83.5694 64.8349 83.5869 64.9069 83.5694 64.9761L80.9778 75.4941V75.497Z" fill="#1F1C1D"/>
<path d="M81.3499 53.2685L80.5923 59.1611C80.5923 59.1611 81.1685 62.286 84.8804 62.0095C88.5893 61.733 90.3736 58.85 90.3736 58.85L91.9707 48.9253C91.9707 48.9253 89.5517 47.1109 91.2658 41.5754C91.2658 41.5754 86.9806 42.8743 81.7799 41.3594C81.7799 41.3594 79.6534 47.7042 79.6358 50.4978C79.4662 52.8393 81.3499 53.2685 81.3499 53.2685Z" fill="white"/>
<path d="M84.4275 62.2458C80.9789 62.2458 80.3822 59.2332 80.3763 59.2015C80.3734 59.1785 80.3705 59.1583 80.3763 59.1353L81.1134 53.4184C80.6045 53.2225 79.2765 52.5198 79.4257 50.4864C79.4432 47.7043 81.4907 41.5553 81.5785 41.2961C81.6165 41.1867 81.7335 41.1233 81.8476 41.1579C86.9225 42.6354 91.1638 41.3854 91.2048 41.3739C91.2808 41.3509 91.3657 41.371 91.4242 41.4286C91.4827 41.4862 91.5031 41.5669 91.4797 41.6446C90.6198 44.4239 90.8392 46.2153 91.1755 47.2262C91.5353 48.312 92.1028 48.7555 92.1086 48.7584C92.173 48.8074 92.2052 48.8851 92.1905 48.9629L90.5935 58.8876C90.5876 58.9164 90.5788 58.9423 90.5642 58.9654C90.4882 59.0863 88.6776 61.9463 84.8984 62.2285C84.7346 62.24 84.5796 62.2458 84.4275 62.2458ZM80.8151 59.1555C80.8882 59.4867 81.5551 62.0499 84.8662 61.7965C88.2066 61.5459 89.9529 59.0921 90.1664 58.7724L91.7372 49.0119C91.2838 48.5914 89.5902 46.6358 90.9474 41.8837C89.7891 42.1515 86.1503 42.8053 81.9237 41.6302C81.5668 42.7247 79.8732 48.0528 79.8557 50.5037C79.7094 52.5284 81.1514 52.995 81.3738 53.0555C81.4176 53.0612 81.4586 53.0785 81.4937 53.1102C81.558 53.1707 81.5814 53.2571 81.558 53.3377L80.8092 59.1583L80.8151 59.1555Z" fill="#1F1C1D"/>
<path d="M89.9068 48.4186C90.5737 46.7827 93.7123 46.0771 94.2183 48.1738C94.4494 50.4836 91.7262 52.4622 89.6641 51.0596" fill="white"/>
<path d="M91.1638 51.7449C90.5934 51.7449 90.0347 51.575 89.5404 51.2409C89.4409 51.1718 89.4146 51.0393 89.4848 50.9414C89.5521 50.8435 89.6896 50.8175 89.789 50.8867C90.5993 51.4396 91.6172 51.4569 92.5122 50.9356C93.5184 50.351 94.1005 49.2853 94.0011 48.214C93.7758 47.3154 93.0446 47.1282 92.6263 47.0994C91.5938 47.0216 90.4501 47.6667 90.1108 48.502C90.0669 48.6114 89.9382 48.6661 89.8241 48.6229C89.713 48.5797 89.6574 48.453 89.7013 48.3407C90.1137 47.3298 91.4329 46.5781 92.6555 46.6674C93.574 46.7336 94.2204 47.2664 94.4281 48.1275C94.4281 48.1362 94.431 48.1477 94.434 48.1564C94.5598 49.4005 93.8928 50.6361 92.7345 51.3071C92.2314 51.6009 91.6903 51.7449 91.1609 51.7449H91.1638Z" fill="#1F1C1D"/>
<path d="M80.8516 56.6272C80.8516 56.6272 82.864 56.6214 84.6834 55.3801C86.5027 54.1417 86.5086 53.2517 86.5086 53.2517C86.5086 53.2517 83.7444 54.2137 81.4834 53.3784L80.8516 56.6272Z" fill="#1F1C1D"/>
<path d="M80.8522 56.8431C80.7937 56.8431 80.7381 56.82 80.6972 56.7797C80.6562 56.7394 80.6328 56.6847 80.6328 56.6271C80.6328 56.6098 80.6328 56.5983 80.6357 56.5839L81.2675 53.3352C81.2792 53.2718 81.3202 53.2171 81.3758 53.1883C81.4313 53.1566 81.4986 53.1508 81.56 53.1739C83.7187 53.9716 86.4098 53.0558 86.4361 53.0471C86.5034 53.0241 86.5794 53.0356 86.635 53.0759C86.6935 53.1163 86.7286 53.1825 86.7286 53.2545C86.7286 53.3582 86.6672 54.2942 84.8098 55.5614C82.9553 56.8287 80.9399 56.8488 80.8551 56.8488L80.8522 56.8431ZM81.6507 53.6606L81.1184 56.3967C81.7151 56.3448 83.201 56.1288 84.5582 55.2014C85.5995 54.4901 86.0149 53.914 86.1816 53.5742C85.3567 53.8017 83.4116 54.2107 81.6507 53.6606Z" fill="#1F1C1D"/>
<path d="M84.3966 44.9822C84.3966 44.9822 82.8697 47.8306 83.2149 48.3893C83.56 48.9509 84.8617 48.8789 84.8617 48.8789" fill="white"/>
<path d="M84.6938 49.1007C84.2872 49.1007 83.3541 49.0403 83.0265 48.5017C82.6492 47.8853 83.8309 45.5755 84.2024 44.8814C84.258 44.7749 84.3925 44.7345 84.4978 44.7922C84.6061 44.8469 84.647 44.9794 84.5885 45.083C83.8806 46.405 83.2313 48.0063 83.398 48.277C83.6232 48.6457 84.5417 48.6802 84.843 48.663C84.96 48.6514 85.0682 48.7465 85.0741 48.8675C85.0799 48.9855 84.9892 49.0892 84.8664 49.095C84.8401 49.095 84.7757 49.0979 84.688 49.0979L84.6938 49.1007Z" fill="#1F1C1D"/>
<path d="M88.0269 45.7611C88.0673 45.4054 87.8919 45.0941 87.635 45.0658C87.3782 45.0375 87.1371 45.3028 87.0967 45.6585C87.0562 46.0142 87.2317 46.3255 87.4885 46.3538C87.7454 46.3821 87.9864 46.1167 88.0269 45.7611Z" fill="#1F1C1D"/>
<path d="M83.6287 45.0582C83.7739 44.7301 83.6994 44.3817 83.4624 44.2801C83.2254 44.1785 82.9157 44.3622 82.7706 44.6903C82.6254 45.0184 82.6999 45.3668 82.9369 45.4684C83.1739 45.57 83.4836 45.3864 83.6287 45.0582Z" fill="#1F1C1D"/>
<path d="M86.1899 51.2926C86.1899 51.2926 86.1694 51.2926 86.1606 51.2926L82.7442 50.8462C82.6243 50.8318 82.5394 50.7223 82.557 50.6042C82.5745 50.4862 82.6828 50.3998 82.8027 50.4199L86.2191 50.8663C86.3391 50.8807 86.4239 50.9902 86.4063 51.1083C86.3917 51.2177 86.2981 51.2955 86.1899 51.2955V51.2926Z" fill="#1F1C1D"/>
<path d="M93.3853 61.9025L89.3984 74.9895L102.663 79.6149L106.87 65.7762C107.461 62.5822 100.204 57.7033 98.2584 56.9487" fill="#818CF8"/>
<path d="M101.75 77.3396C101.75 77.3396 97.7897 90.8616 93.2062 92.9151C88.6226 94.9685 64.766 79.3701 64.766 79.3701C64.766 79.3701 60.3492 77.0977 59.03 75.4561C57.9098 74.0621 58.9657 74.618 59.267 74.5863C57.9097 73.0195 58.1467 71.6832 59.03 72.553C56.965 69.4166 58.524 69.8284 59.0885 69.8802C57.9097 69.0105 57.8512 66.9195 59.264 67.7893C60.513 68.5583 66.6381 72.7834 66.6381 72.7834C66.6381 72.7834 65.8775 68.6303 66.7551 68.0802C67.4044 67.6741 69.3174 73.6157 69.3174 73.6157L87.9762 81.6626L91.8197 72.913" fill="white"/>
<path d="M92.1756 93.307C85.7668 93.307 65.5607 80.1451 64.6451 79.5489C64.4842 79.4654 60.1932 77.2477 58.8594 75.5888C58.3534 74.958 58.2217 74.6585 58.3563 74.4425C58.444 74.3014 58.5991 74.2784 58.76 74.2899C58.1252 73.3942 57.9 72.5013 58.2627 72.1701C58.3037 72.1327 58.3709 72.0866 58.4674 72.0665C57.8152 70.9749 57.6338 70.3038 57.8766 69.9208C58.0199 69.6933 58.2656 69.627 58.5142 69.6184C57.9907 68.9531 57.8473 68.0632 58.1428 67.6398C58.2598 67.4727 58.6137 67.1329 59.3859 67.6081C60.4477 68.2619 64.9172 71.3349 66.3416 72.3141C66.1486 71.0757 65.8356 68.4059 66.6429 67.899C66.7365 67.8385 66.8477 67.8299 66.9588 67.8673C67.7193 68.1409 69.0619 72.0953 69.5007 73.4575L87.867 81.3777L91.6227 72.8268C91.6695 72.7173 91.7982 72.6655 91.9123 72.7145C92.0235 72.7606 92.0732 72.8902 92.0264 72.9996L88.1829 81.7493C88.1595 81.8011 88.1156 81.8443 88.063 81.8645C88.0074 81.8846 87.9489 81.8846 87.8933 81.8616L69.2345 73.8147C69.176 73.7887 69.1321 73.7427 69.1146 73.6822C68.3365 71.2658 67.266 68.5729 66.8418 68.2936C66.368 68.714 66.561 71.1247 66.8594 72.749C66.874 72.8354 66.836 72.9218 66.7629 72.9679C66.6868 73.014 66.5903 73.014 66.5201 72.9622C66.4586 72.919 60.3863 68.7313 59.1578 67.9739C58.9735 67.8587 58.6429 67.6974 58.5113 67.8846C58.2861 68.2072 58.5318 69.1921 59.2309 69.7077C59.3099 69.7653 59.3391 69.869 59.304 69.9582C59.2689 70.0475 59.1782 70.1022 59.0788 70.0965C59.0378 70.0936 58.9881 70.0878 58.9384 70.0792C58.719 70.0533 58.3504 70.0072 58.2568 70.1512C58.1954 70.2491 58.0813 70.7013 59.2221 72.4351C59.2835 72.5273 59.2631 72.6511 59.1753 72.7202C59.0876 72.7894 58.9618 72.7836 58.8828 72.7058C58.6956 72.5215 58.5786 72.4927 58.5581 72.4927C58.4645 72.5906 58.5377 73.3999 59.4415 74.4454C59.4941 74.5059 59.5088 74.5894 59.4795 74.6643C59.4503 74.7392 59.3801 74.791 59.3011 74.7996C59.1987 74.8112 59.0759 74.7852 58.9472 74.7593C58.9062 74.7507 58.8477 74.7392 58.798 74.7305C58.8477 74.8313 58.9618 75.0128 59.2133 75.3238C60.4887 76.9107 64.8353 79.1601 64.8791 79.1831C64.9581 79.235 70.9339 83.1317 77.3895 86.7318C88.1127 92.7079 91.8655 93.2897 93.1262 92.7252C97.5635 90.7351 101.509 77.4205 101.55 77.2851C101.582 77.1699 101.705 77.1037 101.822 77.1383C101.939 77.1728 102.007 77.2909 101.972 77.4061C101.808 77.962 97.9291 91.0461 93.3076 93.1169C93.0063 93.2523 92.6289 93.3156 92.1873 93.3156L92.1756 93.307Z" fill="#1F1C1D"/>
<path d="M89.0924 82.8523C89.0397 82.8523 88.9871 82.835 88.9461 82.7975L87.8317 81.8212C87.741 81.7406 87.7322 81.6052 87.8141 81.5159C87.896 81.4266 88.0335 81.4209 88.1242 81.4986L89.2386 82.475C89.3293 82.5556 89.3381 82.691 89.2562 82.7803C89.2123 82.8292 89.1538 82.8523 89.0924 82.8523Z" fill="#1F1C1D"/>
<path d="M15.7418 10.3377L14.1476 10.7495C12.5184 11.17 11.284 12.4805 10.9769 14.1106L10.699 15.6024L10.4182 14.1106C10.1111 12.4805 8.87671 11.1729 7.25039 10.7524L5.65625 10.3406L7.25332 9.93735C8.87964 9.52838 10.1228 8.22947 10.4387 6.60511L10.699 5.28027L10.9564 6.60223C11.2752 8.22659 12.5155 9.5255 14.1447 9.93447L15.7418 10.3377Z" fill="white"/>
<path d="M10.6948 15.8184C10.5895 15.8184 10.4988 15.7436 10.4783 15.6428L10.1975 14.1509C9.90792 12.61 8.7262 11.3601 7.18763 10.9626L5.59349 10.5508C5.49696 10.5249 5.42969 10.4385 5.42969 10.3406C5.42969 10.2426 5.49696 10.1562 5.59349 10.1332L7.19056 9.72998C8.72913 9.34405 9.91669 8.09985 10.215 6.56766L10.4754 5.24282C10.4958 5.14202 10.5865 5.06714 10.6918 5.06714C10.7971 5.06714 10.8878 5.13914 10.9083 5.24282L11.1657 6.56478C11.467 8.09986 12.6545 9.34117 14.1931 9.72998L15.7902 10.1332C15.8867 10.1562 15.954 10.2426 15.954 10.3406C15.954 10.4385 15.8867 10.5249 15.7902 10.5508L14.196 10.9626C12.6575 11.3601 11.4757 12.6129 11.1862 14.1538L10.9083 15.6456C10.8878 15.7493 10.7971 15.8213 10.6918 15.8213L10.6948 15.8184ZM6.52365 10.3406L7.29879 10.5422C9.00116 10.9828 10.3086 12.3652 10.6275 14.0702L10.6918 14.413L10.7562 14.0731C11.075 12.3681 12.3825 10.9828 14.0849 10.5422L14.86 10.3406L14.0819 10.1447C12.3796 9.71558 11.0662 8.34178 10.7328 6.64254L10.6889 6.42077L10.645 6.64542C10.3116 8.34178 8.99823 9.71558 7.29586 10.1447L6.5178 10.3406H6.52365Z" fill="#1F1C1D"/>
<path d="M107.789 59.5032L106.195 59.9151C104.565 60.3356 103.331 61.646 103.024 63.2761L102.746 64.768L102.465 63.2761C102.158 61.646 100.924 60.3384 99.2973 59.9179L97.7031 59.5061L99.3002 59.1029C100.927 58.6939 102.17 57.395 102.486 55.7706L102.746 54.4458L103.003 55.7678C103.322 57.3921 104.562 58.691 106.192 59.1L107.789 59.5032Z" fill="white"/>
<path d="M102.742 64.984C102.636 64.984 102.546 64.9091 102.525 64.8083L102.244 63.3164C101.955 61.7756 100.773 60.5256 99.2345 60.1282L97.6404 59.7163C97.5438 59.6904 97.4766 59.604 97.4766 59.5061C97.4766 59.4082 97.5438 59.3218 97.6404 59.2987L99.2374 58.8955C100.776 58.5096 101.964 57.2654 102.262 55.7332L102.522 54.4084C102.543 54.3076 102.633 54.2327 102.739 54.2327C102.844 54.2327 102.935 54.3047 102.955 54.4084L103.213 55.7303C103.514 57.2654 104.701 58.5067 106.24 58.8955L107.837 59.2987C107.934 59.3218 108.001 59.4082 108.001 59.5061C108.001 59.604 107.934 59.6904 107.837 59.7163L106.243 60.1282C104.704 60.5256 103.523 61.7785 103.233 63.3193L102.952 64.8112C102.932 64.9149 102.841 64.9869 102.736 64.9869L102.742 64.984ZM98.5735 59.5061L99.3486 59.7048C101.051 60.1455 102.358 61.5308 102.677 63.2329L102.742 63.5756L102.806 63.2358C103.125 61.5308 104.432 60.1455 106.135 59.7048L106.91 59.5061L106.132 59.3102C104.429 58.8811 103.116 57.5073 102.783 55.8081L102.739 55.5863L102.695 55.8109C102.361 57.5073 101.048 58.8811 99.3457 59.3102L98.5676 59.5061H98.5735Z" fill="#1F1C1D"/>
<path d="M101.933 13.9208C101.772 13.3995 101.558 12.8926 101.298 12.4087L102.585 10.6404C102.842 10.2832 102.802 9.79651 102.489 9.48546L100.845 7.86686C100.529 7.55005 100.029 7.50685 99.6629 7.76318L97.867 9.02177C97.3785 8.76544 96.8637 8.5552 96.3313 8.3968L95.9657 6.2569C95.8926 5.81913 95.5035 5.49944 95.0531 5.5052H92.7481C92.2977 5.49944 91.9087 5.81913 91.8355 6.2569L91.4699 8.3968C90.9405 8.5552 90.4257 8.76544 89.9343 9.02177L88.1529 7.76318C87.7902 7.50973 87.2959 7.55005 86.98 7.85822L85.3361 9.47682C85.0261 9.79363 84.9822 10.2775 85.2308 10.6404L86.5091 12.4087C86.2487 12.8897 86.0352 13.3966 85.8743 13.9208L83.701 14.2808C83.2564 14.3528 82.9317 14.7358 82.9376 15.1794V17.4633C82.9317 17.9068 83.2564 18.2898 83.701 18.3618L85.8743 18.7219C86.0352 19.2431 86.2487 19.75 86.5091 20.2339L85.2308 21.9735C84.9734 22.3306 85.0144 22.8173 85.3273 23.1284L86.9712 24.747C87.2871 25.0638 87.7873 25.107 88.1529 24.8506L89.9489 23.5921C90.4374 23.8484 90.9522 24.0586 91.4845 24.217L91.8502 26.3569C91.9233 26.7947 92.3123 27.1144 92.7628 27.1086H95.0823C95.5328 27.1144 95.9218 26.7947 95.9949 26.3569L96.3606 24.217C96.89 24.0586 97.4048 23.8484 97.8962 23.5921L99.6629 24.8506C100.026 25.1041 100.52 25.0638 100.836 24.7556L102.48 23.137C102.802 22.826 102.845 22.3335 102.585 21.9735L101.307 20.2051C101.567 19.7241 101.781 19.2172 101.942 18.6931L104.115 18.333C104.559 18.261 104.884 17.878 104.878 17.4345V15.1419C104.884 14.6984 104.562 14.3182 104.121 14.2433L101.933 13.9208ZM96.1617 16.677C95.9452 17.901 94.7635 18.7219 93.5233 18.5087C92.2801 18.2956 91.4465 17.1321 91.663 15.9109C91.8268 14.9749 92.5726 14.2405 93.5233 14.0792C94.7664 13.8661 95.9481 14.684 96.1646 15.908C96.2114 16.1672 96.2085 16.4322 96.1646 16.6914V16.677H96.1617Z" fill="#D1D3D4"/>
<path d="M22.7331 62.2168H13.3203V83.7799H22.7331V62.2168Z" fill="#D1D3D4"/>
<path d="M34.2643 56.543H24.8516V83.7798H34.2643V56.543Z" fill="#D1D3D4"/>
<path d="M45.8034 52.8738H36.3906V83.7798H45.8034V52.8738Z" fill="#D1D3D4"/>
<path d="M48.8245 85.6145H10.3047V87.6392H48.8245V85.6145Z" fill="#D1D3D4"/>
</svg>
