<svg width="47" height="42" viewBox="0 0 47 42" fill="none" xmlns="http://www.w3.org/2000/svg">
<g clip-path="url(#clip0_18089_188116)">
<path fill-rule="evenodd" clip-rule="evenodd" d="M13.0857 3.50153L16.5542 0.00195312V6.68296H13.0857V3.50153ZM33.5812 3.50153L30.1127 0.00195312V6.68296H33.5812V3.50153Z" fill="#7B7B7B"/>
<path d="M16.554 0.00195312H30.1125V3.34246H16.554V0.00195312Z" fill="#5A5A5A"/>
<path fill-rule="evenodd" clip-rule="evenodd" d="M42.8829 41.9975H3.78378C2.78026 41.9975 1.81784 41.5953 1.10824 40.8793C0.398647 40.1633 0 39.1923 0 38.1798L0 13.2434L6.50149 6.68359H40.1652L46.6667 13.2434V38.1798C46.6667 39.1923 46.268 40.1633 45.5584 40.8793C44.8488 41.5953 43.8864 41.9975 42.8829 41.9975Z" fill="#E6E7E8"/>
<path fill-rule="evenodd" clip-rule="evenodd" d="M0 20.2047V13.2434L6.50149 6.68359H40.1652L46.6667 13.2434V20.2047H0Z" fill="#D0D1D2"/>
<path fill-rule="evenodd" clip-rule="evenodd" d="M5.36035 41.9981V14.956C5.36035 14.5341 5.52645 14.1295 5.82212 13.8311C6.11779 13.5328 6.51879 13.3652 6.93693 13.3652H39.7297C40.1479 13.3652 40.5489 13.5328 40.8445 13.8311C41.1402 14.1295 41.3063 14.5341 41.3063 14.956V41.9981H5.36035Z" fill="#458CF5"/>
<path d="M5.36035 20.2051H41.3063V41.9979H5.36035V20.2051Z" fill="white"/>
<path fill-rule="evenodd" clip-rule="evenodd" d="M30.5855 41.9968V35.4749L27.4324 32.2934L25.3828 26.5669L26.8017 22.9082L34.8423 31.0209L36.2612 24.9761L41.3062 30.0664V41.9968H30.5855Z" fill="#D2D3D4"/>
<path d="M7.72534 22.75H19.7073V36.2711H7.72534V22.75ZM7.72534 39.2934H23.1758V41.9977H7.72534V39.2934Z" fill="#D2D3D4"/>
<path fill-rule="evenodd" clip-rule="evenodd" d="M33.5811 36.9236V41.9979H26.9595V36.9956C25.6095 36.3757 24.4625 35.3806 23.6529 34.1267C22.8433 32.8728 22.4045 31.4121 22.3879 29.9157C22.3714 28.4193 22.7778 26.9491 23.5595 25.6773C24.3412 24.4056 25.4659 23.3848 26.8018 22.7347V30.2266L30.1126 32.2946L33.5811 30.2266V22.7344C34.9039 23.3782 36.0198 24.3854 36.8008 25.6404C37.5818 26.8954 37.996 28.3471 37.996 29.829C37.996 31.3108 37.5818 32.7626 36.8008 34.0175C36.0198 35.2725 34.9039 36.2797 33.5811 36.9236Z" fill="#505050"/>
<path fill-rule="evenodd" clip-rule="evenodd" d="M9.06543 15.1152C9.33048 15.1152 9.58957 15.1945 9.80995 15.3431C10.0303 15.4917 10.2021 15.7028 10.3035 15.9499C10.4049 16.197 10.4315 16.4688 10.3798 16.7311C10.3281 16.9934 10.2004 17.2343 10.013 17.4234C9.8256 17.6125 9.58682 17.7413 9.32687 17.7935C9.06692 17.8456 8.79747 17.8189 8.5526 17.7165C8.30773 17.6142 8.09844 17.4409 7.95119 17.2185C7.80394 16.9962 7.72534 16.7348 7.72534 16.4673C7.72534 16.1087 7.86653 15.7648 8.11785 15.5113C8.36916 15.2577 8.71002 15.1152 9.06543 15.1152ZM13.0069 15.1152C13.2719 15.1152 13.531 15.1945 13.7514 15.3431C13.9718 15.4917 14.1435 15.7028 14.245 15.9499C14.3464 16.197 14.3729 16.4688 14.3212 16.7311C14.2695 16.9934 14.1419 17.2343 13.9545 17.4234C13.767 17.6125 13.5283 17.7413 13.2683 17.7935C13.0084 17.8456 12.7389 17.8189 12.494 17.7165C12.2492 17.6142 12.0399 17.4409 11.8926 17.2185C11.7454 16.9962 11.6668 16.7348 11.6668 16.4673C11.6668 16.1087 11.808 15.7648 12.0593 15.5113C12.3106 15.2577 12.6515 15.1152 13.0069 15.1152Z" fill="#E6E7E8"/>
</g>
<defs>
<clipPath id="clip0_18089_188116">
<rect width="46.6667" height="42" fill="white"/>
</clipPath>
</defs>
</svg>
