<svg width="465" height="262" viewBox="0 0 465 262" fill="none" xmlns="http://www.w3.org/2000/svg">
<g clip-path="url(#clip0_13089_55510)">
<path d="M458.529 0.711914H6.5293C3.21559 0.711914 0.529297 3.39821 0.529297 6.71191V255.712C0.529297 259.026 3.21559 261.712 6.5293 261.712H458.529C461.843 261.712 464.529 259.026 464.529 255.712V6.71191C464.529 3.39821 461.843 0.711914 458.529 0.711914Z" fill="#EFEEFF"/>
<path d="M234.202 146.25H98.2351C95.1899 146.25 92.1564 148.653 91.4601 151.618L74.8369 222.37C74.1406 225.334 76.0447 227.738 79.09 227.738H215.056C218.102 227.738 221.135 225.334 221.831 222.37L238.454 151.617C239.151 148.653 237.247 146.25 234.202 146.25Z" fill="#7A6BEA" stroke="#7A6BEA" stroke-width="1.5" stroke-miterlimit="10" stroke-linecap="round" stroke-linejoin="round"/>
<path d="M238.164 146.25H102.197C99.1512 146.25 96.1178 148.653 95.4215 151.618L78.7988 222.37C78.1025 225.334 80.0066 227.738 83.0519 227.738H219.018C222.064 227.738 225.097 225.334 225.793 222.37L242.416 151.617C243.113 148.653 241.209 146.25 238.164 146.25Z" fill="#48446E" stroke="#48446E" stroke-width="1.5" stroke-miterlimit="10" stroke-linecap="round" stroke-linejoin="round"/>
<path d="M233.151 124.502H90.9424C87.8972 124.502 85.7491 126.929 86.1446 129.923L98.8715 226.266C99.2669 229.259 102.056 231.687 105.102 231.687H247.311C250.356 231.687 252.504 229.26 252.109 226.266L239.382 129.923C238.986 126.929 236.197 124.502 233.151 124.502Z" fill="#7A6BEA" stroke="#7A6BEA" stroke-width="1.5" stroke-miterlimit="10" stroke-linecap="round" stroke-linejoin="round"/>
<path d="M237.554 124.641H95.3457C92.3005 124.641 90.1525 127.068 90.5479 130.062L103.274 226.405C103.67 229.399 106.459 231.826 109.504 231.826H251.714C254.759 231.826 256.907 229.399 256.511 226.405L243.784 130.062C243.389 127.068 240.6 124.641 237.554 124.641Z" fill="#48446E" stroke="#48446E" stroke-width="1.5" stroke-miterlimit="10" stroke-linecap="round" stroke-linejoin="round"/>
<path d="M231.559 129.661H102.67C99.9095 129.661 97.9625 131.86 98.3208 134.574L109.856 221.893C110.214 224.606 112.742 226.806 115.502 226.806H244.391C247.151 226.806 249.098 224.606 248.74 221.893L237.205 134.574C236.846 131.86 234.318 129.661 231.559 129.661Z" fill="white" stroke="#48446E" stroke-width="1.5" stroke-miterlimit="10" stroke-linecap="round" stroke-linejoin="round"/>
<path d="M231.559 129.661H102.67C99.9095 129.661 97.9625 131.86 98.3208 134.574L109.856 221.893C110.214 224.606 112.742 226.806 115.502 226.806H244.391C247.151 226.806 249.098 224.606 248.74 221.893L237.205 134.574C236.846 131.86 234.318 129.661 231.559 129.661Z" fill="white" stroke="#48446E" stroke-width="1.5" stroke-miterlimit="10" stroke-linecap="round" stroke-linejoin="round"/>
<path d="M231.559 129.661H102.67C99.9095 129.661 97.9625 131.86 98.3208 134.574L109.856 221.893C110.214 224.606 112.742 226.806 115.502 226.806H244.391C247.151 226.806 249.098 224.606 248.74 221.893L237.205 134.574C236.846 131.86 234.318 129.661 231.559 129.661Z" fill="white" stroke="#48446E" stroke-width="1.5" stroke-miterlimit="10" stroke-linecap="round" stroke-linejoin="round"/>
<path d="M88.9707 157.743L90.9871 173.01" stroke="#48446E" stroke-width="1.5" stroke-miterlimit="10" stroke-linecap="round" stroke-linejoin="round"/>
<path d="M127.151 155.409C125.862 155.409 124.816 156.454 124.816 157.744C124.816 159.033 125.862 160.079 127.151 160.079C128.441 160.079 129.486 159.033 129.486 157.744C129.486 156.454 128.441 155.409 127.151 155.409Z" fill="#DBD7FF"/>
<path d="M109.854 221.892C110.212 224.606 112.74 226.806 115.501 226.806H244.39C247.15 226.806 249.097 224.606 248.738 221.892L240.095 156.483C239.084 156.25 237.292 156.178 236.418 156.178C226.311 156.178 217.752 162.803 214.841 171.946C212.891 169.771 210.067 168.394 206.916 168.394C201.879 168.394 197.67 171.892 196.559 176.589C185.879 171.92 178.501 161.629 177.734 149.736L175.992 122.739H166.692L164.943 149.883C164.26 160.479 158.328 169.807 149.484 175.019C147.201 171.061 142.929 168.394 138.031 168.394C134.948 168.394 132.113 169.453 129.865 171.223C126.742 162.456 118.372 156.179 108.532 156.179C106.013 156.179 103.592 156.594 101.329 157.355L109.854 221.892Z" fill="#DBD7FF"/>
<path d="M101.378 157.727L109.854 221.892C110.212 224.606 112.74 226.806 115.501 226.806H244.39C247.15 226.806 249.097 224.606 248.738 221.892L240.078 156.329" stroke="#48446E" stroke-width="1.5" stroke-miterlimit="10" stroke-linecap="round" stroke-linejoin="round"/>
<path d="M130.454 164.262C130.989 164.262 131.423 163.828 131.423 163.294C131.423 162.759 130.989 162.326 130.454 162.326C129.92 162.326 129.486 162.759 129.486 163.294C129.486 163.828 129.92 164.262 130.454 164.262Z" fill="#DBD7FF"/>
<path d="M217.172 161.478C217.707 161.478 218.14 161.044 218.14 160.51C218.14 159.975 217.707 159.542 217.172 159.542C216.638 159.542 216.204 159.975 216.204 160.51C216.204 161.044 216.638 161.478 217.172 161.478Z" fill="#DBD7FF"/>
<path d="M212.985 166.597C214.275 166.597 215.32 165.551 215.32 164.262C215.32 162.972 214.275 161.927 212.985 161.927C211.696 161.927 210.65 162.972 210.65 164.262C210.65 165.551 211.696 166.597 212.985 166.597Z" fill="#DBD7FF"/>
<path d="M158.69 102.134C156.208 102.134 154.075 103.895 153.605 106.332L148.766 131.418H151.447L156.41 119.195C157.45 116.634 160.268 115.286 162.914 116.083L158.69 102.134Z" fill="#7A6BEA" stroke="#48446E" stroke-width="1.5" stroke-miterlimit="10" stroke-linecap="round" stroke-linejoin="round"/>
<path d="M184.018 102.134C186.501 102.134 188.634 103.895 189.104 106.332L193.943 131.418H191.262L186.299 119.195C185.259 116.634 182.441 115.286 179.795 116.083L184.018 102.134Z" fill="#7A6BEA" stroke="#48446E" stroke-width="1.5" stroke-miterlimit="10" stroke-linecap="round" stroke-linejoin="round"/>
<path d="M177.633 123.513C177.524 125.959 165.185 125.959 165.075 123.513L166.065 113.632H176.644L177.633 123.513Z" fill="#48446E" stroke="#48446E" stroke-width="1.5" stroke-miterlimit="10" stroke-linecap="round" stroke-linejoin="round"/>
<path d="M186.704 68.3608C182.996 40.1357 171.353 30.2865 171.354 30.2988C171.355 30.2865 159.712 40.1357 156.004 68.3608C151.866 99.866 164.453 119.583 164.453 119.583C169.053 121.119 173.655 121.119 178.255 119.583C178.255 119.583 190.843 99.866 186.704 68.3608Z" fill="white" stroke="#48446E" stroke-width="1.5" stroke-miterlimit="10" stroke-linecap="round" stroke-linejoin="round"/>
<path d="M182.767 50.5841C177.926 35.8489 171.354 30.2892 171.354 30.2988C171.355 30.2897 164.783 35.8489 159.941 50.5841C163.363 51.5001 167.24 52.0224 171.354 52.0224C175.469 52.0224 179.345 51.5001 182.767 50.5841Z" fill="#9C8FFF" stroke="#48446E" stroke-width="1.5" stroke-miterlimit="10" stroke-linecap="round" stroke-linejoin="round"/>
<path d="M157.59 89.8779C161.701 91.0062 166.382 91.6472 171.355 91.6472C176.327 91.6472 181.009 91.0057 185.12 89.8779" stroke="#48446E" stroke-width="1.5" stroke-miterlimit="10" stroke-linecap="round" stroke-linejoin="round"/>
<path d="M171.354 49.4545C171.92 49.4545 172.379 48.9956 172.379 48.4294C172.379 47.8633 171.92 47.4043 171.354 47.4043C170.788 47.4043 170.329 47.8633 170.329 48.4294C170.329 48.9956 170.788 49.4545 171.354 49.4545Z" fill="white" stroke="#48446E" stroke-width="1.5" stroke-miterlimit="10" stroke-linecap="round" stroke-linejoin="round"/>
<path d="M177.916 48.7768C178.482 48.7768 178.941 48.3178 178.941 47.7517C178.941 47.1855 178.482 46.7266 177.916 46.7266C177.35 46.7266 176.891 47.1855 176.891 47.7517C176.891 48.3178 177.35 48.7768 177.916 48.7768Z" fill="white" stroke="#48446E" stroke-width="1.5" stroke-miterlimit="10" stroke-linecap="round" stroke-linejoin="round"/>
<path d="M165.818 47.7517C165.818 48.3174 165.359 48.7763 164.793 48.7763C164.227 48.7763 163.768 48.3174 163.768 47.7517C163.768 47.1854 164.226 46.7266 164.793 46.7266C165.359 46.7271 165.818 47.1859 165.818 47.7517Z" fill="white" stroke="#48446E" stroke-width="1.5" stroke-miterlimit="10" stroke-linecap="round" stroke-linejoin="round"/>
<path d="M177.605 79.0756C181.306 75.3751 181.306 69.3753 177.605 65.6748C173.905 61.9743 167.905 61.9743 164.204 65.6748C160.504 69.3753 160.504 75.3751 164.204 79.0756C167.905 82.7761 173.905 82.7761 177.605 79.0756Z" fill="#48446E" stroke="#48446E" stroke-width="1.5" stroke-miterlimit="10" stroke-linecap="round" stroke-linejoin="round"/>
<path d="M181.026 74.5615C182.228 69.4684 179.074 64.3647 173.981 63.162C168.888 61.9594 163.784 65.1133 162.582 70.2064C161.379 75.2995 164.533 80.4032 169.626 81.6059C174.719 82.8085 179.823 79.6546 181.026 74.5615Z" fill="#7A6BEA" stroke="#48446E" stroke-width="1.5" stroke-miterlimit="10" stroke-linecap="round" stroke-linejoin="round"/>
<path d="M174.524 78.9365C178.148 77.4354 179.869 73.2807 178.368 69.6568C176.867 66.0328 172.712 64.3119 169.088 65.813C165.464 67.3142 163.743 71.4689 165.244 75.0928C166.746 78.7167 170.9 80.4376 174.524 78.9365Z" fill="white" stroke="#48446E" stroke-width="1.5" stroke-miterlimit="10" stroke-linecap="round" stroke-linejoin="round"/>
<path d="M174.932 69.2461L168.674 75.5042" stroke="#DBD7FF" stroke-width="1.5" stroke-miterlimit="10" stroke-linecap="round" stroke-linejoin="round"/>
<path d="M175.569 73.5898L173.255 75.9033" stroke="#DBD7FF" stroke-width="1.5" stroke-miterlimit="10" stroke-linecap="round" stroke-linejoin="round"/>
<path d="M170.466 68.7246L168.152 71.0386" stroke="#DBD7FF" stroke-width="1.5" stroke-miterlimit="10" stroke-linecap="round" stroke-linejoin="round"/>
<path d="M172.619 104.148H170.091V136.399H172.619V104.148Z" fill="#7A6BEA" stroke="#48446E" stroke-width="1.5" stroke-miterlimit="10" stroke-linecap="round" stroke-linejoin="round"/>
<path d="M218.548 215.945H137.935C135.836 215.945 134.071 214.369 133.835 212.282C133.559 209.835 135.473 207.692 137.935 207.692H218.548C220.647 207.692 222.412 209.268 222.648 211.354C222.924 213.802 221.01 215.945 218.548 215.945Z" fill="white" stroke="#48446E" stroke-width="1.5" stroke-miterlimit="10" stroke-linecap="round" stroke-linejoin="round"/>
<path d="M216.104 213.08C217.033 213.08 217.786 212.326 217.786 211.397C217.786 210.468 217.033 209.714 216.104 209.714C215.174 209.714 214.421 210.468 214.421 211.397C214.421 212.326 215.174 213.08 216.104 213.08Z" fill="white" stroke="#7A6BEA" stroke-width="1.5" stroke-miterlimit="10" stroke-linecap="round" stroke-linejoin="round"/>
<path d="M217.294 212.586L218.631 213.924" stroke="#7A6BEA" stroke-width="1.5" stroke-miterlimit="10" stroke-linecap="round" stroke-linejoin="round"/>
<path d="M158.446 202.203C156.914 202.203 155.575 201.952 154.432 201.449C153.856 201.197 153.299 200.879 152.759 200.496C151.871 199.864 151.739 198.593 152.478 197.792L152.493 197.776C153.122 197.096 154.144 197.027 154.904 197.557C155.196 197.762 155.498 197.941 155.808 198.095C156.571 198.474 157.437 198.663 158.406 198.663C159.287 198.663 159.955 198.504 160.413 198.187C160.87 197.87 161.074 197.43 161.026 196.866C160.982 196.355 160.788 195.941 160.443 195.624C160.099 195.308 159.657 195.034 159.119 194.805C158.579 194.577 157.988 194.356 157.344 194.145C156.701 193.933 156.059 193.692 155.419 193.419C154.779 193.145 154.182 192.802 153.627 192.388C153.072 191.974 152.608 191.455 152.238 190.829C151.867 190.204 151.641 189.415 151.559 188.464C151.461 187.32 151.653 186.334 152.137 185.506C152.62 184.678 153.336 184.049 154.286 183.617C155.235 183.185 156.353 182.969 157.638 182.969C158.941 182.969 160.154 183.199 161.277 183.656C161.675 183.818 162.05 184.001 162.405 184.206C163.391 184.776 163.561 186.137 162.787 186.975C162.2 187.61 161.234 187.756 160.51 187.284C160.286 187.137 160.061 187.011 159.839 186.906C159.242 186.624 158.583 186.483 157.861 186.483C157.139 186.483 156.578 186.62 156.179 186.892C155.779 187.166 155.602 187.558 155.646 188.069C155.686 188.544 155.878 188.927 156.22 189.218C156.562 189.508 157.002 189.759 157.54 189.97C158.077 190.182 158.668 190.393 159.311 190.605C159.955 190.816 160.597 191.063 161.238 191.345C161.879 191.627 162.477 191.983 163.034 192.414C163.59 192.846 164.056 193.392 164.429 194.053C164.803 194.713 165.032 195.528 165.115 196.496C165.268 198.275 164.754 199.671 163.573 200.684C162.393 201.696 160.683 202.203 158.446 202.203Z" fill="#48446E" stroke="#48446E" stroke-miterlimit="10"/>
<path d="M168.223 201.912L166.619 183.259H170.767L172.371 201.912H168.223ZM170.096 186.826L169.79 183.259H178.294C179.192 183.259 179.941 183.946 180.018 184.842L180.027 184.947C180.114 185.957 179.317 186.826 178.303 186.826H170.096ZM170.723 194.118L170.426 190.656H178.137C179.036 190.656 179.784 191.344 179.861 192.239C179.948 193.249 179.151 194.118 178.137 194.118H170.723ZM171.393 201.912L171.084 198.319H179.721C180.619 198.319 181.368 199.006 181.445 199.901L181.456 200.033C181.543 201.044 180.746 201.912 179.732 201.912H171.393Z" fill="#48446E" stroke="#48446E" stroke-miterlimit="10"/>
<path d="M193.059 202.228C191.65 202.228 190.329 201.982 189.098 201.489C187.867 200.996 186.764 200.309 185.79 199.428C184.816 198.547 184.032 197.521 183.438 196.35C182.844 195.178 182.49 193.915 182.373 192.558C182.255 191.185 182.392 189.917 182.786 188.754C183.178 187.591 183.778 186.574 184.584 185.702C185.389 184.83 186.366 184.152 187.514 183.668C188.661 183.184 189.939 182.941 191.348 182.941C192.739 182.941 194.051 183.184 195.281 183.668C196.511 184.152 197.609 184.83 198.573 185.702C199.538 186.574 200.317 187.596 200.911 188.767C201.505 189.938 201.861 191.211 201.979 192.585C202.095 193.942 201.957 195.205 201.565 196.376C201.172 197.548 200.573 198.569 199.768 199.441C198.962 200.313 197.986 200.995 196.839 201.488C195.693 201.982 194.433 202.228 193.059 202.228ZM192.681 198.45C193.791 198.45 194.743 198.204 195.537 197.711C196.331 197.217 196.919 196.526 197.301 195.636C197.682 194.747 197.823 193.721 197.723 192.558C197.647 191.678 197.446 190.881 197.121 190.168C196.795 189.454 196.363 188.837 195.826 188.318C195.287 187.799 194.668 187.402 193.966 187.129C193.265 186.856 192.5 186.719 191.672 186.719C190.563 186.719 189.61 186.962 188.815 187.446C188.02 187.931 187.431 188.608 187.049 189.48C186.665 190.352 186.525 191.378 186.627 192.558C186.702 193.439 186.903 194.24 187.229 194.962C187.556 195.684 187.983 196.306 188.512 196.825C189.041 197.345 189.662 197.745 190.372 198.027C191.084 198.31 191.853 198.45 192.681 198.45Z" fill="#48446E" stroke="#48446E" stroke-miterlimit="10"/>
<path d="M82.7868 137.579C79.5615 137.579 76.9375 134.955 76.9375 131.73V83.2751C76.9375 80.0498 79.5615 77.4258 82.7868 77.4258H120.734C123.96 77.4258 126.584 80.0498 126.584 83.2751V131.73C126.584 134.955 123.96 137.579 120.734 137.579H82.7868Z" fill="white"/>
<path d="M120.735 77.8284C123.738 77.8284 126.181 80.2719 126.181 83.2747V131.729C126.181 134.733 123.738 137.175 120.735 137.175H82.7874C79.784 137.175 77.3411 134.733 77.3411 131.729V83.2752C77.3411 80.2719 79.784 77.8289 82.7874 77.8289L120.735 77.8284ZM120.735 77.0225H82.7874C79.3343 77.0225 76.5352 79.8216 76.5352 83.2747V131.729C76.5352 135.182 79.3343 137.981 82.7874 137.981H120.735C124.188 137.981 126.987 135.182 126.987 131.729V83.2752C126.987 79.8222 124.188 77.0225 120.735 77.0225Z" fill="#DBD7FF"/>
<path d="M120.951 77.0225H82.5704C79.2367 77.0225 76.5342 79.725 76.5342 83.0588V85.08H126.987V83.0588C126.987 79.7256 124.284 77.0225 120.951 77.0225Z" fill="white" stroke="#DBD7FF" stroke-width="1.5" stroke-miterlimit="10" stroke-linecap="round" stroke-linejoin="round"/>
<path d="M98.7442 81.0514C98.7442 82.0448 97.9388 82.8506 96.9448 82.8506C95.9514 82.8506 95.1455 82.0453 95.1455 81.0514C95.1455 80.0574 95.9509 79.252 96.9448 79.252C97.9388 79.252 98.7442 80.0574 98.7442 81.0514Z" fill="#7A6BEA"/>
<path d="M92.1973 81.0514C92.1973 82.0448 91.3919 82.8506 90.398 82.8506C89.404 82.8506 88.5986 82.0453 88.5986 81.0514C88.5986 80.0574 89.404 79.252 90.398 79.252C91.3919 79.252 92.1973 80.0574 92.1973 81.0514Z" fill="#9C8FFF"/>
<path d="M85.6494 81.0514C85.6494 82.0448 84.8441 82.8506 83.8501 82.8506C82.8562 82.8506 82.0508 82.0453 82.0508 81.0514C82.0508 80.0574 82.8562 79.252 83.8501 79.252C84.8441 79.252 85.6494 80.0574 85.6494 81.0514Z" fill="#48446E"/>
<path d="M93.3424 107.914L83.4883 103.976V100.675L93.3424 96.7365C94.62 96.2261 96.0089 97.1669 96.0089 98.5423C96.0089 99.3515 95.5081 100.076 94.7517 100.362L86.8666 103.341V101.309L94.7517 104.288C95.5081 104.574 96.0089 105.299 96.0089 106.108C96.0089 107.483 94.6195 108.424 93.3424 107.914Z" fill="#7A6BEA"/>
<path d="M97.6283 110.195L101.989 92.7505C102.206 91.885 102.984 91.2773 103.876 91.2773H104.006C105.272 91.2773 106.2 92.4663 105.893 93.694L101.532 111.138C101.316 112.004 100.538 112.611 99.6453 112.611H99.5152C98.25 112.611 97.3215 111.422 97.6283 110.195Z" fill="#7A6BEA"/>
<path d="M107.514 98.5428C107.514 97.1668 108.903 96.226 110.18 96.7364L120.034 100.675V103.976L110.18 107.914C108.903 108.424 107.514 107.483 107.514 106.108C107.514 105.299 108.014 104.575 108.771 104.289L116.656 101.31V103.342L108.771 100.362C108.014 100.077 107.514 99.3514 107.514 98.5428Z" fill="#7A6BEA"/>
<path d="M83.4883 120.248H120.034" stroke="#48446E" stroke-width="1.5" stroke-miterlimit="10" stroke-linecap="round" stroke-linejoin="round"/>
<path d="M83.4883 125.444H120.034" stroke="#48446E" stroke-width="1.5" stroke-miterlimit="10" stroke-linecap="round" stroke-linejoin="round"/>
<path d="M83.4883 130.642H120.034" stroke="#48446E" stroke-width="1.5" stroke-miterlimit="10" stroke-linecap="round" stroke-linejoin="round"/>
<mask id="mask0_13089_55510" style="mask-type:alpha" maskUnits="userSpaceOnUse" x="0" y="0" width="465" height="262">
<path d="M455.529 0.711914H9.5293C4.55873 0.711914 0.529297 4.74135 0.529297 9.71191V252.712C0.529297 257.682 4.55873 261.712 9.5293 261.712H455.529C460.5 261.712 464.529 257.682 464.529 252.712V9.71191C464.529 4.74135 460.5 0.711914 455.529 0.711914Z" fill="#EFEEFF"/>
</mask>
<g mask="url(#mask0_13089_55510)">
<path d="M338.079 400.263C337.834 396.855 331.207 321.816 327.539 295.539C322.551 259.802 321.823 206.908 331.792 170.675L383.086 170.805C398.053 190.33 399.847 220.188 364.69 251.264L363.531 320.69C361.862 334.738 369.077 340.674 365.261 369.298C363.862 379.795 361.724 399.08 361.286 400.263C360.537 411.2 339.014 413.301 338.079 400.263Z" fill="#FFC4B0"/>
<path d="M332.896 170.674L383.089 170.804C388.601 199.554 400.952 240.894 402.12 275.471C402.703 292.728 403.887 305.163 407.026 317.992C412.399 339.954 414.735 345.327 415.718 366.82C416.035 373.75 415.732 403.806 415.718 409.613C400.175 431.953 392.307 409.613 392.307 409.613C392.307 409.613 386.542 388.281 384.83 381.539C379.238 359.508 375.953 340.421 370.016 326.636C358.575 300.07 348.097 249.47 348.097 249.47C348.097 249.47 331.164 196.852 332.896 170.674Z" fill="#FFC4B0"/>
<path d="M416.669 362.735C416.669 348.777 415.606 345.012 412.762 333.923C408.232 316.257 405.766 306.795 404.033 284.706C400.979 245.777 412.981 201.588 385.879 173.73L330.393 173.625C317.422 201.247 317.702 245.131 322.142 287.159C324.474 309.238 325.97 310.234 327.429 322.804C329.635 341.805 330.573 345.681 333.008 364.329C344.302 370.934 358.537 370.507 366.938 364.347C369.027 353.871 367.974 342.785 367.096 333.665C366.162 323.955 365.842 319.384 365.842 319.384C365.842 319.384 366.307 321.234 369.864 331.824C370.748 334.454 374.594 346.044 379.199 366.023C388.589 372.556 409.871 371.665 416.669 362.735Z" fill="#7A6BEA"/>
<path d="M379.396 174.646C385.857 184.022 398.057 201.505 398.425 231.684C398.751 258.529 399.034 284.471 403.992 308.895C408.124 329.249 417.478 342.234 416.669 362.735" stroke="#48446E" stroke-width="1.5" stroke-miterlimit="10" stroke-linecap="round" stroke-linejoin="round"/>
<path d="M392.948 200.359C384.923 203.372 381.641 198.401 377.973 190.679C374.305 182.956 370.058 175.213 370.058 175.213" stroke="#48446E" stroke-width="1.5" stroke-miterlimit="10" stroke-linecap="round" stroke-linejoin="round"/>
<path d="M344.128 174.78C343.998 177.745 341.646 197.673 341.646 207.779C341.646 216.624 344.632 225.125 346.908 231.74C353.35 250.451 353.855 274.842 360.857 301.478C362.621 308.189 366.113 322.804 366.113 322.804" stroke="#48446E" stroke-width="1.5" stroke-miterlimit="10" stroke-linecap="round" stroke-linejoin="round"/>
<path d="M341.646 210.602C344.143 209.394 348.369 208.562 349.124 196.223C349.879 183.884 350.935 175.213 350.935 175.213" stroke="#48446E" stroke-width="1.5" stroke-miterlimit="10" stroke-linecap="round" stroke-linejoin="round"/>
<path d="M357.616 100.979C358.335 100.966 358.869 101.183 359.951 101.239C360.91 101.287 361.993 100.999 362.909 100.741C363.145 100.675 366.008 99.375 365.768 99.2237C368.277 100.803 371.158 102.005 374.118 101.846C377.079 101.687 380.085 99.8919 380.967 97.0621C382.186 99.0507 384.744 100.112 387.014 99.5718C385.928 98.1294 385.889 95.984 386.923 94.5037C387.504 93.6722 388.514 92.2751 389.178 91.5085C390.712 89.7383 391.467 86.8826 391.133 84.5642C390.762 81.9918 389.536 80.0692 387.644 78.2926C385.668 76.4349 384.204 74.7848 383.633 72.6243C382.37 67.8449 382.44 64.1327 375.898 61.8566C374.213 60.7536 367.047 55.466 355.722 58.6613C344.396 61.8566 342.05 69.8053 342.05 69.8053C331.363 71.7193 332.893 78.6408 333.59 80.4217C334.223 82.0361 335.675 83.5435 335.251 85.2249C334.913 86.569 333.519 87.3108 332.565 88.3175C330.777 90.2055 330.582 93.298 331.84 95.5731C333.097 97.8482 335.6 99.2918 338.182 99.601C337.519 98.3889 337.55 96.8264 338.262 95.6412C338.561 97.6428 340.049 99.3242 341.832 100.282C344.872 101.916 348.96 102.194 352.321 101.912C353.725 101.796 355.046 101.597 356.394 101.191C356.895 101.043 357.277 100.986 357.616 100.979Z" fill="#48446E"/>
<path d="M382.007 69.6152C382.486 74.4066 387.315 76.3659 390.144 79.599C392.927 82.7803 392.774 87.8506 389.681 90.7842C387.895 92.4786 385.339 93.8833 385.36 96.6839C385.366 97.3792 386.447 97.3813 386.442 96.6839C386.422 94.1503 389.16 92.8776 390.698 91.3032C392.069 89.8986 392.889 88.043 393.139 86.1064C393.386 84.1903 393.051 82.1899 392.106 80.4965C390.999 78.5156 389.146 77.1293 387.417 75.7279C385.485 74.1622 383.351 72.2482 383.088 69.6152C383.02 68.9297 381.938 68.9232 382.007 69.6152Z" fill="#48446E"/>
<path d="M339.203 68.4498C336.138 69.2954 332.71 70.9974 331.883 74.3602C331.443 76.1487 331.83 78.0346 332.629 79.663C333.411 81.2547 335.356 82.7924 335.038 84.7236C334.678 86.9187 332.035 87.7891 330.412 86.2883C329.902 85.8168 329.135 86.5791 329.648 87.0528C330.881 88.1935 332.784 88.5028 334.262 87.6356C335.751 86.7619 336.494 84.862 335.992 83.2119C335.716 82.3047 335.147 81.5467 334.6 80.7898C333.979 79.9301 333.44 79.0294 333.119 78.0119C332.506 76.0731 332.72 73.9807 334.103 72.4247C335.49 70.8622 337.519 70.0361 339.49 69.4922C340.162 69.3073 339.877 68.2638 339.203 68.4498Z" fill="#48446E"/>
<path d="M363.904 96.1795C375.181 94.3492 382.84 83.7227 381.009 72.4446C379.179 61.1664 368.553 53.5074 357.275 55.3377C345.998 57.1679 338.339 67.7944 340.17 79.0726C342 90.3507 352.626 98.0097 363.904 96.1795Z" fill="#48446E"/>
<path d="M370.403 61.6706C369.968 75.4823 377.017 78.5857 377.017 78.5857C376.064 80.358 375.332 82.2384 374.841 84.175C376.395 82.1854 378.714 80.6099 381.308 80.4434C383.903 80.2769 386.676 81.8156 387.307 84.2269C387.93 86.6101 386.301 89.1729 383.996 90.2564C381.69 91.3398 378.55 91.3712 375.739 89.8822L375.735 89.88C374.641 92.233 372.353 94.5686 369.11 96.0847L369.489 106.821L372.542 107.636L349.572 123.381L350.022 107.82L353.649 106.934L354.732 98.2916C350.395 97.7888 337.824 93.6582 340.19 77.1583C340.665 73.8463 341.81 70.8153 343.387 68.2115H343.388C349.373 58.9284 361.06 57.9325 370.403 61.6706Z" fill="#FFC4B0"/>
<path d="M384.141 84.4053C383.541 83.9944 382.075 83.6905 380.603 84.1014C379.131 84.5123 377.919 85.6823 377.503 87.0913" stroke="#48446E" stroke-width="1.5" stroke-miterlimit="10" stroke-linecap="round" stroke-linejoin="round"/>
<path d="M381.638 86.0334C381.196 85.7339 379.644 84.9769 378.147 85.8052" stroke="#48446E" stroke-width="1.5" stroke-miterlimit="10" stroke-linecap="round" stroke-linejoin="round"/>
<path d="M359.696 81.3257C359.704 81.702 360.017 82.0004 360.394 81.9918C360.77 81.9831 361.068 81.6706 361.059 81.2932C361.05 80.9169 360.738 80.6185 360.361 80.6271C359.984 80.6358 359.687 80.9494 359.696 81.3257Z" fill="#D48983"/>
<path d="M362.91 83.8989C362.919 84.2752 363.231 84.5737 363.609 84.565C363.985 84.5564 364.284 84.2439 364.275 83.8665C364.266 83.4891 363.954 83.1917 363.576 83.2004C363.199 83.209 362.902 83.5215 362.91 83.8989Z" fill="#D48983"/>
<path d="M365.963 81.7612C365.972 82.1375 366.284 82.436 366.662 82.4273C367.038 82.4187 367.336 82.1062 367.328 81.7288C367.319 81.3525 367.007 81.054 366.629 81.0627C366.252 81.0713 365.953 81.3849 365.963 81.7612Z" fill="#D48983"/>
<path d="M347.502 80.478C347.511 80.8543 347.823 81.1528 348.201 81.1441C348.577 81.1355 348.875 80.823 348.867 80.4456C348.858 80.0693 348.546 79.7708 348.168 79.7795C347.791 79.7881 347.493 80.1017 347.502 80.478Z" fill="#D48983"/>
<path d="M344.452 82.8422C344.461 83.2185 344.774 83.5169 345.151 83.5083C345.527 83.4996 345.826 83.1871 345.817 82.8098C345.808 82.4324 345.496 82.135 345.118 82.1437C344.742 82.1534 344.444 82.4659 344.452 82.8422Z" fill="#D48983"/>
<path d="M342.114 80.104C342.123 80.4803 342.436 80.7787 342.813 80.7701C343.189 80.7614 343.488 80.4489 343.479 80.0716C343.47 79.6953 343.158 79.3968 342.781 79.4055C342.404 79.4141 342.106 79.7266 342.114 80.104Z" fill="#D48983"/>
<path d="M363.849 97.5703C363.849 97.5703 360.391 98.936 354.731 98.2905L354.428 100.708C354.428 100.708 359.924 101.118 363.849 97.5703Z" fill="#48446E"/>
<path d="M355.915 73.2207C355.817 74.6437 355.419 76.3673 353.736 78.9917C353.54 79.2966 353.329 79.6037 353.246 79.9562C353.121 80.485 353.31 81.0484 353.627 81.4885C353.945 81.9286 354.383 82.2659 354.82 82.5882" stroke="#48446E" stroke-width="1.5" stroke-miterlimit="10" stroke-linecap="round" stroke-linejoin="round"/>
<path d="M343.457 74.8263C344.224 73.3752 345.932 72.4799 347.626 72.6431C349.32 72.8064 351.58 74.0197 351.604 76.4343C350.567 78.6758 345.143 78.4401 343.457 74.8263Z" fill="white"/>
<path d="M344.494 75.616C344.869 76.8227 346.199 77.4899 347.464 77.106C348.729 76.7222 349.452 75.4332 349.076 74.2265C348.701 73.0197 347.371 72.3526 346.106 72.7364C344.841 73.1203 344.118 74.4092 344.494 75.616Z" fill="#48446E"/>
<path d="M349.249 74.1875L346.785 74.9206L349.373 75.4991L349.249 74.1875Z" fill="white"/>
<path d="M351.605 76.4338C350.847 74.2971 349.334 73.5554 347.867 73.165C346.258 72.7379 344.975 72.9844 343.485 74.2474" stroke="#48446E" stroke-width="1.5" stroke-miterlimit="10" stroke-linecap="round" stroke-linejoin="round"/>
<path d="M342.049 72.9961C342.25 73.6276 342.832 74.1196 343.487 74.2147" stroke="#48446E" stroke-width="1.5" stroke-miterlimit="10" stroke-linecap="round" stroke-linejoin="round"/>
<path d="M350.936 68.026C348.514 67.5199 346.142 68.106 344.286 69.4501" stroke="#48446E" stroke-width="1.5" stroke-miterlimit="10" stroke-linecap="round" stroke-linejoin="round"/>
<path d="M367.746 76.6637C367.156 75.1325 365.564 74.0437 363.862 74.0069C362.16 73.9701 359.774 74.9098 359.467 77.3049C360.235 79.6514 365.649 80.0547 367.746 76.6637Z" fill="white"/>
<path d="M360.111 77.2908C360.511 78.4889 361.854 79.129 363.112 78.7192C364.369 78.3094 365.064 77.0053 364.663 75.8072C364.263 74.6091 362.92 73.969 361.663 74.3788C360.406 74.7886 359.711 76.0927 360.111 77.2908Z" fill="#48446E"/>
<path d="M364.836 75.7646L362.388 76.5496L364.986 77.074L364.836 75.7646Z" fill="white"/>
<path d="M359.467 77.3054C360.47 75.2725 362.06 74.7134 363.563 74.4983C365.211 74.2625 366.455 74.6572 367.788 76.0878" stroke="#48446E" stroke-width="1.5" stroke-miterlimit="10" stroke-linecap="round" stroke-linejoin="round"/>
<path d="M369.359 75.0107C369.086 75.614 368.45 76.0347 367.788 76.052" stroke="#48446E" stroke-width="1.5" stroke-miterlimit="10" stroke-linecap="round" stroke-linejoin="round"/>
<path d="M361.588 68.6779C364.584 68.441 366.47 68.9287 368.572 70.9875" stroke="#48446E" stroke-width="1.5" stroke-miterlimit="10" stroke-linecap="round" stroke-linejoin="round"/>
<path d="M357.176 86.7697C355.836 86.9038 354.213 87.2422 353.786 88.436C353.052 87.0541 351.975 86.6875 351.975 86.6875C351.975 86.6875 353.221 85.9252 354.613 86.0106C356.004 86.0949 357.176 86.7697 357.176 86.7697Z" fill="#48446E"/>
<path d="M359.433 87.3038C359.033 87.9645 357.372 89.5724 354.63 89.2902C354.033 89.2102 353.993 88.8393 353.784 88.4349C353.858 87.8672 354.739 86.7653 357.174 86.7686C357.828 87.16 358.78 87.3071 359.433 87.3038Z" fill="white"/>
<path d="M350.672 86.7876C352.016 86.7897 353.268 85.9723 354.612 86.009C355.66 86.0382 356.614 86.5789 357.601 86.9303C358.588 87.2817 359.798 87.4093 360.591 86.7238" stroke="#48446E" stroke-width="1.5" stroke-miterlimit="10" stroke-linecap="round" stroke-linejoin="round"/>
<path d="M351.853 86.7295C352.754 87.1642 353.493 87.774 353.909 88.6845C353.976 88.8316 354.087 89.1917 354.629 89.2911C355.625 89.4739 358.345 89.1019 359.483 87.2247" stroke="#48446E" stroke-width="1.5" stroke-miterlimit="10" stroke-linecap="round" stroke-linejoin="round"/>
<path d="M356.926 57.7016C353.214 61.5879 352.983 68.5473 354.896 70.1714C356.81 71.7955 373.398 72.6281 373.398 72.6281C373.398 72.6281 375.834 64.4296 372.063 61.0083C368.294 57.5859 356.926 57.7016 356.926 57.7016Z" fill="#48446E"/>
<path d="M356.925 57.7016C352.212 58.465 349.823 64.2393 348.867 67.0701C347.911 69.901 346.552 70.9445 341.344 70.9888C336.135 71.0321 340.919 54.4468 356.925 57.7016Z" fill="#48446E"/>
<path d="M322.516 157.977C329.282 150.402 338.52 138.972 338.52 138.972L340.646 111.148C333.907 112.307 328.617 114.967 323.267 121.741C319.665 126.302 303.137 146.9 303.137 146.9C303.137 146.9 285.794 151.943 283.729 152.239C281.666 152.535 278.181 153.062 276.116 151.811C274.681 150.942 273.895 150.565 272.423 149.782C269.247 148.093 265.588 148.28 262.105 148.084C261.47 148.048 260.822 148.013 260.212 148.194C259.602 148.374 259.031 148.815 258.873 149.43C258.68 150.188 259.159 150.97 259.772 151.456C260.384 151.943 261.129 152.233 261.77 152.68C263.122 153.623 260.47 153.372 260.022 153.37C257.245 153.355 254.479 153.048 251.713 152.828C247.986 152.533 247.289 152.727 246.305 153.459C244.338 154.922 245.288 155.984 245.288 155.984C245.288 155.984 243.036 155.201 242.396 156.95C241.756 158.7 244.075 159.668 244.075 159.668C244.075 159.668 244.08 162.64 246.367 163.928C249.367 165.617 251.923 166.711 255.871 167.316C259.819 167.921 265.428 169.08 273.724 168.82C282.02 168.559 294.645 168.285 304.925 167.302C313.922 166.442 315.75 165.551 322.516 157.977Z" fill="#FFC4B0"/>
<path d="M255.508 165.082C254.465 164.615 253.738 163.983 250.354 161.626C249.963 161.354 249.536 161.011 249.511 160.534C249.49 160.139 249.768 159.782 250.097 159.56C251.013 158.943 252.248 159.135 253.282 159.52C256.75 160.812 260.259 164.019 263.983 161.633C264.831 161.089 265.591 160.412 266.469 159.919C268.949 158.524 272.286 158.859 274.438 160.718" stroke="#48446E" stroke-width="1.5" stroke-miterlimit="10" stroke-linecap="round" stroke-linejoin="round"/>
<path d="M244.075 159.669C245.097 159.057 246.401 159.578 249.546 160.251" stroke="#48446E" stroke-width="1.5" stroke-miterlimit="10" stroke-linecap="round" stroke-linejoin="round"/>
<path d="M245.288 155.985C247.106 156.252 255.791 157.386 255.791 157.386" stroke="#48446E" stroke-width="1.5" stroke-miterlimit="10" stroke-linecap="round" stroke-linejoin="round"/>
<path d="M331.123 112.969C325.829 115.574 323.381 119.349 318.182 125.91C313.766 131.485 310.781 135.603 310.781 135.603C310.781 135.603 313.056 141.205 319.948 146.499C325.991 151.142 332.385 151.541 332.385 151.541L342.256 139.608L331.123 112.969Z" fill="white" stroke="#48446E" stroke-width="1.5" stroke-miterlimit="10" stroke-linecap="round" stroke-linejoin="round"/>
<path d="M313.018 132.59L309.946 136.634C309.946 136.634 311.014 140.821 318.785 146.509C325.967 151.765 332.211 151.738 332.211 151.738L335.446 147.84C335.446 147.84 329.247 148.201 321.65 142.489C316.552 138.656 313.018 132.59 313.018 132.59Z" fill="#9C8FFF" stroke="#48446E" stroke-width="1.5" stroke-miterlimit="10" stroke-linecap="round" stroke-linejoin="round"/>
<path d="M330.488 167.153L330.163 174.675C330.163 174.675 334.617 179.057 347.732 179.957C360.848 180.856 378.067 177.868 385.88 173.733L385.351 165.305L330.488 167.153Z" fill="#48446E"/>
<path d="M367.562 180.887L364.568 181L362.983 170.03L365.978 169.917L367.562 180.887Z" fill="#7A6BEA"/>
<path d="M332.761 178.551L335.166 178.559L336.141 167.54L333.736 167.533L332.761 178.551Z" fill="#7A6BEA"/>
<path d="M345.351 172.384C339.429 171.853 338.535 178.085 344.94 178.755C349.383 179.22 350.035 179.097 350.127 176.226C350.246 172.435 349.431 172.75 345.351 172.384Z" stroke="white" stroke-width="1.5" stroke-miterlimit="10" stroke-linecap="round" stroke-linejoin="round"/>
<path d="M350.117 176.03L346.981 175.82" stroke="white" stroke-width="1.5" stroke-miterlimit="10" stroke-linecap="round" stroke-linejoin="round"/>
<path d="M331.123 112.969C339.546 109.413 345.817 107.67 345.817 107.67C348.866 103.784 350.949 102.126 353.543 101.794L353.647 106.933C352.288 111.689 352.729 118.003 352.729 118.003C352.729 118.003 364.837 108.865 370.017 105.227L370.16 100.723C370.16 100.723 372.006 101.595 374.728 107.67C378.532 108.544 390.513 112.712 395.55 115.007C395.55 115.007 397.571 120.354 390.17 142.906C385.878 155.985 389.208 163.432 385.646 166.338C382.084 169.246 374.174 172.272 354.427 172.139C341.132 172.05 331.33 167.48 330.144 166.12C327.234 162.784 328.196 150.245 328.196 150.245C328.196 150.245 324.443 144.257 325.146 138.391C325.841 132.597 327.542 129.559 330.403 124.982L331.123 112.969Z" fill="white" stroke="#48446E" stroke-width="1.5" stroke-miterlimit="10" stroke-linecap="round" stroke-linejoin="round"/>
<path d="M349.856 123.928C348.212 127.373 346.213 131.685 345.448 135.425C343.459 145.145 344.04 152.599 344.04 166.753" stroke="#48446E" stroke-width="1.5" stroke-miterlimit="10" stroke-linecap="round" stroke-linejoin="round"/>
<path d="M353.542 120.121L359.481 118.192L363.392 126.295C363.392 126.295 374.726 117.678 374.726 107.67" stroke="#48446E" stroke-width="1.5" stroke-miterlimit="10" stroke-linecap="round" stroke-linejoin="round"/>
<path d="M350.669 119.584L349.568 115.623C349.568 115.623 343.647 119.8 342.454 121.888C341.26 116.817 345.817 107.67 345.817 107.67" stroke="#48446E" stroke-width="1.5" stroke-miterlimit="10" stroke-linecap="round" stroke-linejoin="round"/>
<path d="M330.401 124.981C333.137 120.816 335.136 118.792 335.136 118.792" stroke="#48446E" stroke-width="1.5" stroke-miterlimit="10" stroke-linecap="round" stroke-linejoin="round"/>
<path d="M366.449 192.315C370.368 191.097 372.207 188.483 372.276 184.677C372.295 183.673 371.797 182.726 371.005 182.107L368.791 180.381L361.168 190.048L363.387 191.778C364.253 192.454 365.399 192.64 366.449 192.315Z" fill="#9C8FFF" stroke="#48446E" stroke-width="2" stroke-miterlimit="10" stroke-linecap="round" stroke-linejoin="round"/>
<path d="M315.672 153.727C316.331 149.561 318.6 146.651 322.48 144.998C322.893 144.823 323.339 144.881 323.658 145.13L367.866 179.644C368.554 180.181 368.951 181.049 368.87 182.005C368.563 185.624 366.708 188.227 363.032 189.634C362.047 190.01 361.006 189.907 360.254 189.32L316.086 154.837C315.768 154.589 315.602 154.171 315.672 153.727Z" fill="#48446E" stroke="#48446E" stroke-width="2" stroke-miterlimit="10" stroke-linecap="round" stroke-linejoin="round"/>
<path d="M305.459 141.94C305.792 139.831 306.942 138.357 308.908 137.52C309.116 137.431 309.342 137.46 309.503 137.587L339.033 160.614C339.381 160.885 339.582 161.325 339.541 161.81C339.386 163.642 338.446 164.961 336.585 165.673C336.087 165.863 335.56 165.812 335.178 165.514L305.67 142.503C305.508 142.376 305.424 142.164 305.459 141.94Z" fill="#48446E" stroke="#48446E" stroke-width="2" stroke-miterlimit="10" stroke-linecap="round" stroke-linejoin="round"/>
<path d="M324.628 148.257L361.568 176.956" stroke="white" stroke-width="2" stroke-miterlimit="10" stroke-linecap="round" stroke-linejoin="round"/>
<path d="M270.82 52.6288C241.493 48.9588 214.738 69.7601 211.068 99.0876C207.397 128.414 228.2 155.169 257.527 158.839C286.854 162.51 313.599 141.706 317.27 112.379C320.94 83.0527 300.146 56.2988 270.82 52.6288ZM258.503 151.045C233.475 147.913 215.73 125.09 218.861 100.062C221.993 75.0445 244.816 57.299 269.843 60.4316C294.862 63.5631 312.607 86.3864 309.476 111.403C306.343 136.43 283.521 154.176 258.503 151.045Z" fill="#48446E" stroke="#48446E" stroke-width="2" stroke-miterlimit="10" stroke-linecap="round" stroke-linejoin="round"/>
<path d="M274.378 53.0743C245.052 49.4032 218.297 70.2056 214.627 99.5331C210.956 128.86 231.758 155.615 261.086 159.285C290.412 162.955 317.158 142.152 320.829 112.825C324.499 83.4982 303.706 56.7443 274.378 53.0743ZM262.061 151.49C237.034 148.358 219.289 125.534 222.42 100.507C225.552 75.4889 248.375 57.7434 273.402 60.876C298.42 64.0075 316.166 86.8309 313.034 111.848C309.903 136.876 287.08 154.622 262.061 151.49Z" fill="#9C8FFF" stroke="#48446E" stroke-width="2" stroke-miterlimit="10" stroke-linecap="round" stroke-linejoin="round"/>
<path d="M242.145 84.8174L292.282 126.531" stroke="#DBD7FF" stroke-width="2" stroke-miterlimit="10" stroke-linecap="round" stroke-linejoin="round"/>
<path d="M256.447 74.332L292.192 104.072" stroke="#DBD7FF" stroke-width="2" stroke-miterlimit="10" stroke-linecap="round" stroke-linejoin="round"/>
<path d="M240.742 107.322L276.487 137.062" stroke="#DBD7FF" stroke-width="2" stroke-miterlimit="10" stroke-linecap="round" stroke-linejoin="round"/>
<path d="M352.504 180.206C352.801 179.318 353.669 178.664 354.461 178.238C356.081 177.367 357.846 176.814 359.628 176.387C360.525 176.171 361.431 176.003 362.333 175.808C362.941 175.677 363.673 175.317 363.044 174.678C361.856 173.474 360.264 172.71 358.719 172.021C357.511 171.482 356.174 170.983 355.392 169.879C354.495 168.612 355.335 167.569 356.573 167.636C360.721 167.863 364.963 170.103 368.673 171.973C372.705 174.005 377.219 176.271 381.734 174.318C389.212 171.084 397.185 160.263 397.182 160.253C397.182 160.253 387.439 143.862 387.439 141.876C387.439 141.876 385.878 123.929 395.549 115.008C399.532 116.908 403.607 124.347 406.372 130.505C408.567 135.393 415.12 148.587 416.927 152.407C420.374 159.693 420.737 164.396 414.025 170.716C408.859 175.58 395.704 185.013 387.898 188.131C385.272 189.18 382.438 189.822 379.601 189.782C375.991 189.73 372.773 187.671 369.18 187.678C367.796 187.68 366.705 187.615 365.325 187.729C362.647 187.948 360.959 188.524 359.568 187.619C358.974 187.231 358.207 186.215 359.182 184.93C358.112 185.392 356.922 185.53 355.928 184.835C355.206 184.33 354.434 183.3 355.756 182.093C355.128 182.367 354.414 182.492 353.752 182.316C352.754 182.048 352.169 181.202 352.504 180.206Z" fill="#FFC4B0"/>
<path d="M365.549 179.431C361.692 179.367 358.967 179.95 355.758 182.091" stroke="#48446E" stroke-width="1.5" stroke-miterlimit="10" stroke-linecap="round" stroke-linejoin="round"/>
<path d="M367.006 183.309C363.274 183.091 361.148 183.527 359.184 184.929" stroke="#48446E" stroke-width="1.5" stroke-miterlimit="10" stroke-linecap="round" stroke-linejoin="round"/>
<path d="M405.93 155.838C401.127 155.838 398.526 158.962 397.183 160.252" stroke="#48446E" stroke-width="1.5" stroke-miterlimit="10" stroke-linecap="round" stroke-linejoin="round"/>
<path d="M395.549 115.007C399.74 117.255 401.865 121.302 404.648 126.295C408.763 133.675 413.249 143.001 413.249 143.001C413.249 143.001 400.996 154.072 392.72 155.146L388.947 149.741C386.057 145.599 384.692 140.58 385.134 135.55C385.729 128.787 389.323 121.47 395.549 115.007Z" fill="white" stroke="#48446E" stroke-width="1.5" stroke-miterlimit="10" stroke-linecap="round" stroke-linejoin="round"/>
<path d="M390.559 152.046L393.039 155.838C393.039 155.838 396.797 155.616 404.654 151.245C412.51 146.873 414.245 142.18 414.245 142.18L411.898 137.997C411.898 137.997 409.654 142.997 402.001 147.486C397.649 150.038 390.559 152.046 390.559 152.046Z" fill="#9C8FFF" stroke="#48446E" stroke-width="1.5" stroke-miterlimit="10" stroke-linecap="round" stroke-linejoin="round"/>
</g>
</g>
<defs>
<clipPath id="clip0_13089_55510">
<rect width="465" height="262" fill="white"/>
</clipPath>
</defs>
</svg>
