<svg width="168" height="164" viewBox="0 0 168 164" fill="none" xmlns="http://www.w3.org/2000/svg">
<path d="M67.1312 93.212C67.1312 93.212 17.5949 109.246 27.6678 93.212C37.7406 77.1783 49.7107 70.3286 33.2561 64.2442C16.8015 58.1598 27.1848 34.9319 62.9227 15.8369C98.6605 -3.25822 96.3148 4.66298 87.5873 15.8369C78.8598 27.0107 94.0726 17.0614 112.631 9.21672C131.19 1.37205 157.338 8.33658 131.57 32.5976C105.801 56.8587 113.632 57.2796 128.189 52.305C142.746 47.3303 137.227 88.9262 67.1312 93.212Z" fill="#000005"/>
<path d="M66.5107 92.9439L66.3037 93.0205L66.0623 93.097L65.8898 93.1353C65.6828 93.2118 65.9588 93.1353 65.8553 93.1353C65.0964 93.3649 64.3375 93.5945 63.5785 93.8241C61.0258 94.5894 58.4731 95.3165 55.9204 95.967C52.6433 96.8089 49.3662 97.6125 46.0546 98.3013C42.8464 98.9901 39.6038 99.4875 36.3267 99.7937C35.9817 99.8319 35.6023 99.8319 35.2228 99.8702L34.6709 99.9084C34.5674 99.9084 34.7054 99.9084 34.7054 99.9084H34.5674H34.3259C33.6705 99.9084 33.0151 99.9084 32.3597 99.9084L31.9112 99.8702H31.8422H31.6352C31.3248 99.8319 31.0488 99.7937 30.7728 99.7554L30.3934 99.6789C30.2209 99.6406 30.3589 99.6789 30.3589 99.6789L30.1519 99.6406C29.9104 99.6023 29.669 99.5258 29.4275 99.4493C29.3585 99.4493 29.324 99.411 29.255 99.411L28.9446 99.2962L28.6686 99.1431L28.5651 99.0666C28.4961 99.0283 28.6341 99.1049 28.4961 99.0283C28.3236 98.9135 28.1856 98.7987 28.0477 98.6839C27.9097 98.6074 27.8062 98.4926 27.7372 98.3395C27.2887 97.7655 27.1163 97.0002 27.2887 96.2731C27.4612 95.0869 28.0477 94.0537 28.6686 93.097C30.3589 90.4183 32.1872 87.8927 34.0845 85.4054C35.6713 83.339 37.2581 81.2726 38.8104 79.1297C39.9488 77.5607 41.0871 75.877 41.8116 74.0019C42.329 72.6243 42.5705 71.1702 42.0875 69.7543C41.5011 68.0706 40.0523 66.9609 38.6724 66.119C37.5686 65.4685 36.4302 64.8945 35.2573 64.397C34.3259 64.0143 33.36 63.6699 32.4286 63.249C31.2213 62.675 30.0829 61.8714 29.117 60.8382C27.3922 58.9631 26.4953 56.3227 26.6333 53.6441C26.8058 50.2383 28.2201 47.0239 29.8759 44.2305C32.2907 40.1359 35.4643 36.5771 38.7759 33.401C43.2949 29.1534 48.1588 25.4033 53.2987 22.1123C59.4045 18.1326 65.8208 14.7651 72.2715 11.589C76.6525 9.40779 81.1025 7.30313 85.725 5.73419C86.4494 5.50459 87.1048 5.27499 87.8637 5.08366C88.1742 5.00713 88.4847 4.93059 88.8296 4.85406L89.2781 4.77753L89.4505 4.73926C89.554 4.73926 89.3471 4.73926 89.5195 4.73926C89.7955 4.70099 90.037 4.66273 90.3129 4.66273C90.4164 4.66273 90.7269 4.66273 90.4509 4.66273H90.7959C90.8649 4.66273 91.1408 4.66273 91.0029 4.66273C90.8649 4.66273 91.1063 4.66273 91.1753 4.70099C91.3133 4.70099 91.4168 4.73926 91.2443 4.70099L91.4858 4.77753C91.6238 4.81579 91.3478 4.70099 91.5203 4.77753L91.7273 4.85406C91.5548 4.77753 91.7273 4.85406 91.7618 4.89233C91.7963 4.93059 91.8653 4.96886 91.8998 5.00713C91.9343 5.04539 91.8653 4.93059 91.9343 5.08366C91.9688 5.12193 92.0032 5.19846 92.0377 5.23673C92.1067 5.35153 92.1412 5.42806 92.1757 5.54286C92.1412 5.46633 92.1757 5.58113 92.2102 5.65766C92.2102 5.73419 92.2447 5.77246 92.2447 5.84899C92.2447 6.00206 92.2447 6.15513 92.2447 6.26993C92.2102 6.57606 92.1757 6.92046 92.0722 7.22659C91.5548 9.06339 90.3474 10.8619 89.2436 12.3926C88.4847 13.4641 87.6912 14.5355 86.8978 15.5687C86.2424 16.3723 85.6215 17.2525 85.0696 18.1326C84.7246 18.6301 84.4486 19.2423 84.2761 19.8546C84.0347 21.1557 85.656 21.1939 86.4494 21.1174C88.0362 20.9643 89.623 20.2755 91.1064 19.625C96.5912 17.2907 101.904 14.5355 107.319 12.0482C110.148 10.7471 112.977 9.40779 115.909 8.41286C118.048 7.68579 120.255 7.15006 122.498 6.80566C126.43 6.30819 130.501 6.23166 134.364 7.37966C137.124 8.18326 140.091 9.86699 141.126 13.0049C142.402 16.8698 140.194 21.0409 138.193 24.0257C136.262 26.7809 134.054 29.3447 131.674 31.6025C129.052 34.1281 126.43 36.6154 123.878 39.2175C121.98 41.1309 120.118 43.1207 118.393 45.1871C117.22 46.5265 116.15 47.9806 115.185 49.5113C114.46 50.7358 113.08 53.0701 114.46 54.3329C115.081 54.9069 115.978 55.0599 116.737 55.1365C117.944 55.213 119.152 55.1365 120.324 54.9069C123.291 54.4094 126.154 53.4145 129.017 52.4961C128.845 52.5343 129.052 52.4961 129.155 52.4578L129.431 52.3813C129.604 52.343 129.776 52.3047 129.914 52.2665C129.604 52.3047 130.087 52.2282 130.225 52.2282H130.466C130.19 52.2665 130.397 52.2282 130.501 52.2282H130.708C130.984 52.2282 130.57 52.1899 130.742 52.2282L131.156 52.2665C130.846 52.2282 131.26 52.3047 131.398 52.343C131.536 52.3813 131.536 52.3813 131.432 52.343L131.639 52.4195C131.743 52.4578 131.881 52.5343 131.984 52.5726C131.95 52.5343 131.915 52.5343 132.019 52.6109L132.191 52.7257C132.295 52.8022 132.398 52.8787 132.502 52.9553L132.64 53.0701C132.778 53.1849 132.64 53.0701 132.709 53.1466C133.054 53.5293 133.364 54.0267 133.571 54.5242C133.985 55.787 134.088 57.1263 133.881 58.4274C133.605 60.2259 133.053 61.9862 132.26 63.5934C131.191 65.7363 129.88 67.7262 128.362 69.5247C126.43 71.7825 124.326 73.8489 122.015 75.6474C119.117 77.9051 116.081 79.895 112.873 81.5405C108.906 83.6069 104.836 85.3288 100.662 86.7065C95.6253 88.3902 90.4854 89.6913 85.2765 90.6097C79.2052 91.7194 73.1339 92.4082 66.9936 92.7909C66.7867 92.7909 66.2692 92.9057 66.3727 93.2501C66.4762 93.5945 67.2006 93.5179 67.4421 93.5179C73.8584 93.1353 80.2401 92.3699 86.5874 91.1837C91.8653 90.1887 97.1087 88.8494 102.249 87.1274C106.457 85.7115 110.562 83.9513 114.495 81.8466C117.703 80.1629 120.773 78.1347 123.671 75.877C126.016 74.0402 128.155 71.9355 130.087 69.6013C131.605 67.8027 132.916 65.7746 133.95 63.5934C134.778 61.9479 135.296 60.1877 135.572 58.3126C135.779 56.935 135.606 55.5574 135.158 54.2563C134.709 53.1466 133.881 52.3047 132.847 51.8838C131.398 51.3481 129.845 51.2715 128.397 51.7307C126.982 52.1134 125.602 52.6491 124.223 53.0701C122.843 53.491 121.428 53.8737 119.98 54.1415L119.566 54.2181H119.497L119.255 54.2563C118.979 54.2946 118.703 54.3329 118.393 54.3711L118.013 54.4094C117.737 54.4094 117.944 54.4094 118.013 54.4094H117.806C117.599 54.4094 117.358 54.4094 117.151 54.4094C117.427 54.4094 117.151 54.4094 117.013 54.4094L116.806 54.3711C116.944 54.4094 116.668 54.3329 116.633 54.3329L116.495 54.2946C116.392 54.2563 116.668 54.3711 116.495 54.2946L116.288 54.2181C116.15 54.1415 116.357 54.2946 116.185 54.1415C116.116 54.1033 116.081 54.065 116.012 54.0267C115.909 53.9502 116.012 54.065 115.943 53.9502C115.564 53.4527 115.599 52.8022 115.771 52.1134C116.081 50.9654 116.771 49.8557 117.427 48.899C120.221 44.7279 123.809 41.1691 127.258 37.7251C132.053 32.9418 137.538 28.5794 141.057 22.4567C142.816 19.3954 144.23 15.3774 142.54 11.9334C140.988 8.79553 137.607 7.30313 134.64 6.57606C130.432 5.50459 126.016 5.54286 121.773 6.23166C119.428 6.57606 117.082 7.15006 114.84 7.91539C111.907 8.91033 109.044 10.2879 106.181 11.589C100.731 14.0763 95.3839 16.9081 89.8645 19.2423C89.0021 19.5867 88.1397 19.9694 87.2773 20.2373C87.1048 20.3138 86.6909 20.3903 86.4149 20.4669C86.3804 20.4669 86.1734 20.5051 86.2769 20.5051H86.1734H86.0009C85.932 20.5051 86.2424 20.5051 86.0354 20.5051C85.8975 20.5051 86.2424 20.5434 86.0699 20.5051C86.0354 20.5051 86.2424 20.5434 86.1044 20.5051C86.1734 20.5817 86.2079 20.5051 86.1044 20.5051C86.1389 20.5434 86.0699 20.5051 86.0699 20.4286C86.0699 20.3903 86.0354 20.3138 86.0354 20.2755C86.0699 19.7398 86.2769 19.2423 86.5529 18.8214C87.4153 17.2525 88.5881 15.9131 89.623 14.5355C90.3819 13.5023 91.1064 12.5074 91.7963 11.4359C92.6932 10.0201 93.797 8.29806 94.004 6.53779C94.1765 4.89233 92.9001 4.20353 91.6238 4.05046C89.0366 3.70606 86.2769 4.70099 83.8277 5.54286C78.9983 7.26486 74.3068 9.52259 69.6843 11.8569C63.1646 15.1478 56.7138 18.5918 50.5736 22.6863C45.5371 25.9773 40.7767 29.7657 36.3612 34.0515C33.1186 37.2659 30.0484 40.8247 27.7372 44.9193C26.1849 47.7127 24.874 51.0037 24.874 54.3329C24.874 57.0881 25.9434 59.6902 27.8062 61.527C30.6349 64.3587 34.5674 64.7797 37.741 66.9609C38.9829 67.8027 40.2247 68.989 40.5352 70.6727C40.8112 72.2034 40.2592 73.7341 39.6038 75.0734C38.6379 77.025 37.3271 78.7853 36.0507 80.5073C34.3604 82.765 32.6356 84.9462 30.9798 87.2422C30.0484 88.5433 29.117 89.8061 28.2546 91.1454C27.5992 92.0638 26.9783 93.0587 26.4263 94.0537C25.9779 94.9338 25.5294 95.967 25.5639 97.0002C25.6329 98.9901 27.5302 99.8702 29.0135 100.253C31.6352 100.942 34.4639 100.789 37.1201 100.559C40.5007 100.253 43.8813 99.7171 47.2274 98.9901C50.5735 98.3013 53.9197 97.4977 57.2313 96.6175C59.7495 95.9287 62.3022 95.2399 64.8204 94.4746C65.8208 94.1685 66.8557 93.8623 67.856 93.5179C68.201 93.4031 68.132 93.1353 67.856 92.9822C67.3386 92.8291 66.8902 92.7909 66.5107 92.9439Z" fill="#000005"/>
<path d="M127.707 21.7683C127.673 25.2506 125.741 28.3502 122.809 29.613C120.015 30.761 116.841 29.8043 114.978 27.2022C113.046 24.447 112.839 20.6586 114.426 17.6738C115.979 14.8421 119.014 13.0435 122.015 13.7323C125.431 14.4594 127.673 17.9799 127.707 21.7683C127.707 22.4954 129.398 22.8015 129.398 21.9214C129.329 17.8651 126.983 14.3063 123.533 12.967C120.049 11.5894 115.979 12.5843 113.564 15.7987C111.287 18.8983 111.011 23.2225 112.874 26.6282C114.909 30.1487 118.635 31.9855 122.36 31.2202C126.396 30.3783 129.329 26.5134 129.363 21.9597C129.398 21.1561 127.707 20.8499 127.707 21.7683Z" fill="#6366F1"/>
<path d="M109.872 22.0743C109.182 22.4187 108.561 22.8396 107.906 23.2606C107.216 23.7198 105.94 24.5234 105.871 25.5183C105.802 26.3219 106.561 26.9342 107.147 27.2403C107.94 27.5847 108.768 27.7378 109.596 27.7378C111.321 27.776 113.08 27.6612 114.805 27.4316C118.772 26.9724 122.705 26.1688 126.534 25.0591C128.155 24.5999 129.776 24.0642 131.363 23.3754C132.329 22.9544 133.467 22.457 134.192 21.5768C135.089 20.5054 134.226 18.8982 133.329 18.1711C132.191 17.2527 130.708 17.0614 129.362 17.2144L129.086 17.2527C128.327 17.3675 129.466 18.7068 129.983 18.6303C130.811 18.4772 131.674 18.5155 132.502 18.7451C132.536 18.7451 132.57 18.7834 132.605 18.7834C132.674 18.8216 132.743 18.8599 132.812 18.8599C132.95 18.9364 132.846 18.8982 132.881 18.8982C133.053 18.9747 132.846 18.8599 132.95 18.9364C133.053 19.013 132.915 18.8216 132.984 18.9747C132.915 18.8216 132.984 18.9747 133.019 19.0512C132.95 18.9364 133.053 19.1278 133.053 19.1278C133.088 19.2043 133.088 19.2808 133.122 19.3574C133.157 19.5487 133.157 19.74 133.122 19.9314C133.157 19.8548 133.122 19.9696 133.088 20.0462C133.053 20.1227 133.019 20.1992 132.95 20.2375C132.398 21.0028 131.432 21.4238 130.604 21.8064C129.224 22.4187 127.81 22.9544 126.361 23.3754C122.843 24.4468 119.29 25.2504 115.667 25.7479C114.012 25.9775 112.356 26.1688 110.7 26.2454C109.872 26.2836 109.044 26.2836 108.251 26.2454C107.906 26.2071 107.561 26.1688 107.216 26.054C107.181 26.054 107.009 25.9775 107.078 26.0158C107.147 26.054 107.009 25.9775 106.974 25.9775L107.043 26.0158L107.112 26.0923C107.043 26.0158 107.285 26.3219 107.285 26.2836C107.319 26.3219 107.319 26.3602 107.319 26.3984C107.354 26.3602 107.354 26.475 107.319 26.3984C107.285 26.4367 107.319 26.2836 107.354 26.2071C107.388 26.1306 107.319 26.2454 107.354 26.1688C107.388 26.0923 107.388 26.0923 107.423 26.054C107.457 25.9775 107.526 25.8627 107.595 25.7862C107.906 25.4035 108.251 25.0591 108.665 24.7912C109.389 24.2555 110.148 23.7963 110.907 23.3754L111.045 23.2988C111.597 23.1075 110.355 21.8064 109.872 22.0743Z" fill="#6366F1"/>
<path d="M51.5736 59.3845C57.4796 59.3845 62.2674 54.0734 62.2674 47.5218C62.2674 40.9703 57.4796 35.6592 51.5736 35.6592C45.6676 35.6592 40.8799 40.9703 40.8799 47.5218C40.8799 54.0734 45.6676 59.3845 51.5736 59.3845Z" fill="#6366F1"/>
<path d="M61.4052 47.4071C61.4052 52.0373 58.8525 56.2084 54.9545 57.8921C51.0564 59.4611 46.7099 58.16 44.0537 54.6012C41.363 51.0041 41.0871 45.7616 43.1913 41.7819C45.3301 37.8404 49.4351 35.774 53.5056 36.6541C57.5072 37.5343 60.6118 41.2844 61.2672 45.7233C61.3362 46.2973 61.4052 46.8713 61.4052 47.4071C61.4397 47.8663 61.7502 48.2489 62.1986 48.2872C62.5436 48.3255 63.13 48.0959 63.13 47.5984C63.0955 42.2411 60.0944 37.496 55.5754 35.6592C50.9874 33.8224 45.882 35.3531 42.7084 39.4476C39.6382 43.5421 39.2243 49.3587 41.708 53.9507C44.2607 58.5427 49.0902 60.9152 53.8506 59.9203C58.5421 58.9253 62.1641 54.7925 63.0265 49.5883C63.13 48.9377 63.1645 48.2872 63.1645 47.6367C63.13 47.1775 62.8196 46.7948 62.3711 46.7565C61.9572 46.68 61.4052 46.9479 61.4052 47.4071Z" fill="#6366F1"/>
<path d="M55.6791 37.1132C54.7822 37.7255 54.1613 38.7204 53.9543 39.8684C53.8164 40.5572 53.7474 41.2843 53.7474 41.9731C53.7474 42.6236 53.6784 43.3507 53.8853 43.9629C54.2648 45.0344 55.4032 45.264 56.3001 45.3788C56.9555 45.4553 57.5764 45.4553 58.2318 45.4171C58.8528 45.4171 59.5082 45.2257 60.0601 44.9196C60.5431 44.5369 60.9225 44.0395 61.1985 43.4655C61.578 42.7384 61.9574 42.0113 62.3369 41.246C62.4059 41.1312 61.5435 41.0929 61.4745 41.0929C61.2675 41.0929 60.7501 41.0547 60.6121 41.3225C60.2671 42.0113 59.9221 42.7001 59.5772 43.3507C59.3012 43.9247 58.9218 44.4221 58.4733 44.8048C58.0939 45.0344 57.6799 45.1109 57.266 44.9961C56.783 44.9579 56.3001 44.7665 55.9551 44.3839C55.5067 43.8864 55.4722 43.1976 55.5067 42.5471C55.5067 41.7817 55.5412 41.0547 55.6446 40.2893C55.8171 39.0265 56.3346 37.7637 57.4039 37.1132C57.5764 36.9984 56.8175 36.9219 56.783 36.9219C56.3691 36.8836 55.9896 36.9601 55.6791 37.1132Z" fill="#FAF5FF"/>
<path d="M56.5066 51.7307C56.5066 51.8837 56.4722 52.0368 56.4377 52.1899C56.4032 52.2664 56.3687 52.343 56.3342 52.4578C56.2652 52.6108 56.4032 52.3812 56.2997 52.496C56.2652 52.5343 56.2652 52.5726 56.2307 52.6491C56.1962 52.7256 56.1272 52.8021 56.0927 52.8787L55.9892 52.9935L55.9202 53.07C55.7822 53.1848 56.0582 52.9935 55.9202 53.07L55.8512 53.1083C55.7132 53.1848 56.0237 53.0317 55.8512 53.1083C55.8167 53.1083 55.7822 53.1466 55.7477 53.1466C55.8857 53.07 55.8857 53.1083 55.7822 53.1466C55.6787 53.1848 55.7132 53.1083 55.8167 53.1466C55.7822 53.1466 55.7132 53.1466 55.6787 53.1466C55.5063 53.1466 55.7132 53.1466 55.7132 53.1466H55.5753C55.4718 53.1083 55.5063 53.07 55.5753 53.1466C55.5408 53.1083 55.4718 53.1083 55.4373 53.1083L55.2993 53.0318C55.3338 53.0318 55.4028 53.1083 55.3338 53.0318C55.2648 52.9552 55.1958 52.9552 55.1268 52.8787L55.0233 52.8021C54.9543 52.7256 55.0923 52.917 54.9888 52.7639C54.9198 52.6874 54.8508 52.6108 54.7818 52.5343C54.7474 52.4577 54.6784 52.3812 54.6439 52.3047C54.6439 52.2664 54.6094 52.2281 54.6094 52.2281C54.6439 52.3047 54.5749 52.1516 54.5749 52.1516C54.5059 51.9603 54.4714 51.7689 54.4714 51.5776C54.4714 51.5393 54.4714 51.4628 54.4714 51.4246V51.3863C54.4714 51.3097 54.5059 51.195 54.5059 51.1184C54.5404 51.0419 54.5404 50.9271 54.5749 50.8506C54.6094 50.8123 54.6094 50.7357 54.6439 50.6975C54.6784 50.5827 54.6094 50.7358 54.6784 50.6592C54.7473 50.5827 54.7473 50.5061 54.8163 50.4296L54.8853 50.3148C54.9198 50.2765 54.9888 50.2 54.8853 50.3148C54.9543 50.2383 55.0233 50.2 55.0923 50.1618C55.1613 50.1235 55.0578 50.2 55.0578 50.2C55.0578 50.2 55.1958 50.1618 55.2303 50.0852C55.2648 50.0087 55.0233 50.1617 55.1613 50.1235C55.1958 50.1235 55.2648 50.0852 55.2993 50.0852C55.2993 50.0852 55.0923 50.1235 55.2303 50.1235C55.2648 50.1235 55.4373 50.0852 55.2648 50.1235C55.0923 50.1617 55.2648 50.1235 55.2993 50.1235H55.4028H55.5063L55.4373 50.0852C55.4718 50.047 55.6787 50.1617 55.7132 50.2C55.5753 50.1235 55.6787 50.2 55.7132 50.2C55.7477 50.2 55.8167 50.2765 55.8512 50.3148L55.9202 50.3913L55.9892 50.4679C55.9547 50.4296 55.9547 50.4296 55.9892 50.4679C56.0237 50.5062 56.0927 50.5827 56.1617 50.6592C56.4032 50.8506 56.5066 51.2715 56.5066 51.7307C56.5066 51.8455 56.7136 51.9603 56.8171 51.9986C57.0241 52.0751 57.2311 52.0751 57.438 52.0368C57.7485 51.9603 58.1969 51.8072 58.1969 51.348C58.1625 50.2765 57.507 49.3581 56.5756 49.052C55.4028 48.6311 54.0919 49.0137 53.264 50.0469C52.6431 50.8505 52.5741 52.0368 53.0915 52.9169C53.678 53.9501 54.9198 54.2945 55.9547 54.0649C57.1621 53.7971 58.197 52.8021 58.2314 51.348C58.2314 51.1949 58.0245 51.0802 57.921 51.0419C57.714 50.9654 57.507 50.9653 57.3001 51.0036C56.9551 51.1184 56.5411 51.2715 56.5066 51.7307Z" fill="#FAF5FF"/>
<path d="M43.6398 40.8245C45.0196 40.5949 46.089 41.7429 46.8134 42.8909C47.7103 44.2685 48.4692 45.8374 48.1242 47.5594C47.7793 49.2814 46.8479 50.6973 46.158 52.2662C45.7785 53.1081 45.606 53.9882 45.9855 54.8683C46.2959 55.5954 46.8479 56.1694 47.5378 56.4373C48.2277 56.7434 48.9866 56.7434 49.7111 56.973C49.9525 57.0495 50.2975 57.1261 50.4355 57.3939C50.539 57.7766 50.6079 58.1593 50.5735 58.5802C50.6079 59.0394 50.8494 59.4986 51.2289 59.7282C51.4014 59.8813 51.6428 59.843 51.7808 59.6517C51.8498 59.5751 51.8843 59.4603 51.8498 59.3455C51.8153 58.3506 51.6773 57.3557 51.1254 56.5138C50.6079 55.825 49.849 55.3658 49.0211 55.251C48.4002 55.1362 47.6758 55.1362 47.1239 54.7535C47.0549 54.7153 46.9859 54.6387 47.0549 54.7153C47.0204 54.5622 47.0549 54.4474 47.0894 54.2943C47.2273 53.7969 47.4343 53.3377 47.7103 52.8785C48.5382 51.233 49.4696 49.5493 49.5041 47.5977C49.5386 45.5695 48.5727 43.6562 47.5378 42.049C46.5029 40.4418 44.9506 38.7963 43.0188 39.1025C42.2599 39.179 42.9843 40.901 43.6398 40.8245Z" fill="#FAF5FF"/>
<path d="M119.29 63.3253V65.009C119.325 65.2004 119.359 65.3917 119.463 65.583C119.566 65.8126 119.704 66.004 119.842 66.1953L119.98 66.3484C120.049 66.4249 120.118 66.4632 120.221 66.4632C120.325 66.4632 120.359 66.3866 120.359 66.2336V64.5498C120.325 64.3585 120.29 64.1672 120.187 63.9758C120.083 63.7462 119.945 63.5549 119.807 63.3636L119.669 63.2105C119.601 63.134 119.532 63.0957 119.428 63.0957C119.325 63.0957 119.29 63.2105 119.29 63.3253Z" fill="#6366F1"/>
<path d="M119.049 68.1468V70.0218C119.083 70.2132 119.187 70.4045 119.325 70.5193C119.497 70.6724 119.704 70.7489 119.946 70.7872C120.153 70.8254 120.325 70.7872 120.498 70.6724C120.635 70.5958 120.704 70.4045 120.704 70.2514V68.3764C120.67 68.185 120.567 67.9937 120.429 67.8789C120.256 67.7258 120.049 67.6493 119.808 67.611C119.601 67.5728 119.394 67.611 119.256 67.7258C119.118 67.8024 119.014 67.9554 119.049 68.1468Z" fill="#6366F1"/>
<path d="M121.428 67.6494H122.256C122.325 67.6494 122.429 67.6494 122.498 67.6112C122.636 67.5729 122.739 67.4198 122.739 67.2285C122.739 67.152 122.739 67.0372 122.705 66.9606C122.601 66.731 122.463 66.578 122.291 66.4249C122.118 66.3101 121.911 66.2336 121.704 66.1953H120.876C120.808 66.1953 120.704 66.1953 120.635 66.2336C120.566 66.2718 120.497 66.3101 120.463 66.3866C120.428 66.4632 120.394 66.5397 120.394 66.6162C120.394 66.6928 120.394 66.8076 120.428 66.8841C120.532 67.1137 120.67 67.2668 120.842 67.4198C121.014 67.5729 121.221 67.6494 121.428 67.6494Z" fill="#6366F1"/>
<path d="M118.186 66.4248H116.979C116.806 66.4248 116.668 66.4631 116.53 66.5779C116.461 66.6927 116.461 66.8457 116.53 66.9605C116.634 67.1136 116.806 67.2667 116.979 67.3432C117.186 67.4197 117.393 67.4963 117.634 67.4963H118.841C119.014 67.4963 119.152 67.458 119.29 67.3432C119.359 67.2284 119.359 67.0753 119.29 66.9605C119.186 66.8075 119.014 66.6544 118.841 66.6161C118.635 66.5013 118.428 66.4631 118.186 66.4248Z" fill="#6366F1"/>
<path d="M137.917 38.6437V40.3274C137.951 40.5187 137.986 40.7101 138.089 40.9014C138.193 41.131 138.331 41.3223 138.469 41.5137L138.607 41.6667C138.676 41.7433 138.745 41.7815 138.848 41.7815C138.952 41.7815 138.986 41.705 138.986 41.5519V39.8682C138.986 39.6769 138.917 39.4855 138.814 39.2942C138.71 39.0646 138.572 38.8733 138.434 38.6819L138.296 38.5289C138.227 38.4523 138.158 38.4141 138.055 38.4141C137.951 38.4141 137.917 38.5289 137.917 38.6437Z" fill="#6366F1"/>
<path d="M137.642 43.4651V45.3402C137.676 45.5315 137.78 45.7229 137.918 45.8377C138.09 45.9907 138.297 46.0673 138.538 46.1055C138.745 46.1438 138.918 46.1055 139.09 45.9907C139.228 45.9142 139.297 45.7229 139.297 45.5698V43.6947C139.263 43.5034 139.159 43.3121 139.021 43.1973C138.849 43.0442 138.642 42.9677 138.401 42.9294C138.194 42.8911 138.021 42.9294 137.849 43.0442C137.745 43.1207 137.642 43.2738 137.642 43.4651Z" fill="#6366F1"/>
<path d="M140.056 42.9676H140.884C140.953 42.9676 141.056 42.9676 141.125 42.9294C141.194 42.8911 141.263 42.8528 141.298 42.7763C141.332 42.6998 141.367 42.6232 141.367 42.5467C141.367 42.4702 141.367 42.3554 141.332 42.2788C141.125 41.8579 140.746 41.5518 140.297 41.5518H139.469C139.4 41.5518 139.297 41.5518 139.228 41.59C139.159 41.6283 139.09 41.6666 139.055 41.7431C139.021 41.8196 138.986 41.8962 138.986 41.9727C138.986 42.0492 138.986 42.164 139.021 42.2406C139.124 42.4702 139.262 42.6232 139.435 42.7763C139.607 42.8911 139.814 42.9676 140.056 42.9676Z" fill="#6366F1"/>
<path d="M136.814 41.7432H135.607C135.434 41.7432 135.296 41.7814 135.158 41.8962C135.089 42.011 135.089 42.1641 135.158 42.2789C135.262 42.432 135.434 42.585 135.607 42.6616C135.814 42.7764 136.021 42.8146 136.262 42.8146H137.469C137.642 42.8146 137.78 42.7764 137.918 42.6616C137.987 42.5468 137.987 42.3937 137.918 42.2789C137.814 42.1258 137.642 41.9728 137.469 41.8962C137.262 41.8197 137.055 41.7432 136.814 41.7432Z" fill="#6366F1"/>
<path d="M45.4336 82.6886V84.3723C45.4336 84.5637 45.5026 84.755 45.6061 84.9463C45.7096 85.1759 45.8475 85.3672 45.9855 85.5586L46.1235 85.7117C46.1925 85.7882 46.2615 85.8265 46.365 85.8265C46.4685 85.8265 46.503 85.7499 46.503 85.5968V83.9131C46.4685 83.7218 46.434 83.5305 46.3305 83.3391C46.227 83.1095 46.089 82.9182 45.951 82.7268L45.8131 82.5738C45.7441 82.4973 45.6751 82.459 45.5716 82.459C45.4681 82.4973 45.4336 82.5738 45.4336 82.6886Z" fill="#6366F1"/>
<path d="M45.1572 87.51V89.3851C45.1917 89.5764 45.2952 89.7678 45.4332 89.8826C45.6057 90.0356 45.8127 90.1122 46.0541 90.1504C46.2611 90.1887 46.4336 90.1504 46.6061 90.0356C46.744 89.9591 46.813 89.7678 46.813 89.6147V87.7396C46.7785 87.5483 46.6751 87.357 46.5371 87.2422C46.3646 87.0891 46.1576 87.0126 45.9161 86.9743C45.7092 86.936 45.5022 86.9743 45.3642 87.0891C45.2262 87.1656 45.1572 87.3187 45.1572 87.51Z" fill="#6366F1"/>
<path d="M47.572 87.0127H48.3999C48.4689 87.0127 48.5724 87.0127 48.6414 86.9745C48.7104 86.9362 48.7794 86.8979 48.8138 86.8214C48.8483 86.7449 48.8828 86.6683 48.8828 86.5918C48.8828 86.5153 48.8828 86.4005 48.8483 86.3239C48.7449 86.0943 48.6069 85.9413 48.4344 85.7882C48.2619 85.6734 48.0549 85.5969 47.848 85.5586H47.0201C46.9511 85.5586 46.8476 85.5586 46.7786 85.5969C46.7096 85.6351 46.6406 85.6734 46.6061 85.7499C46.5716 85.8265 46.5371 85.903 46.5371 85.9795C46.5371 86.0561 46.5371 86.1709 46.5716 86.2474C46.6751 86.477 46.8131 86.6301 46.9856 86.7831C47.158 86.8979 47.365 86.9745 47.572 87.0127Z" fill="#6366F1"/>
<path d="M44.3296 85.7881H43.1223C42.9498 85.7881 42.8118 85.8264 42.6738 85.9412C42.6048 86.056 42.6048 86.209 42.6738 86.3238C42.7773 86.4769 42.9498 86.63 43.1223 86.7065C43.3292 86.783 43.5362 86.8596 43.7777 86.8596H44.985C45.1575 86.8596 45.2955 86.8213 45.4335 86.7065C45.5025 86.5917 45.5025 86.4386 45.4335 86.3238C45.33 86.1708 45.1575 86.0177 44.985 85.9412C44.7781 85.8646 44.5711 85.8264 44.3296 85.7881Z" fill="#6366F1"/>
<path d="M68.374 20.3902V22.074C68.374 22.2653 68.443 22.4566 68.5465 22.648C68.65 22.8776 68.788 23.0689 68.926 23.2602L69.0639 23.4133C69.1329 23.4898 69.2019 23.5281 69.3054 23.5281C69.4089 23.5281 69.4434 23.4516 69.4434 23.2985V21.6148C69.4089 21.4234 69.3744 21.2321 69.2709 21.0408C69.1674 20.8112 69.0294 20.6198 68.8915 20.4285L68.7535 20.3137C68.6845 20.2372 68.6155 20.1989 68.512 20.1989C68.4085 20.1606 68.374 20.2754 68.374 20.3902Z" fill="#6366F1"/>
<path d="M68.0977 25.2122V27.0873C68.1322 27.2786 68.2356 27.4699 68.3736 27.5847C68.5461 27.7378 68.7531 27.8143 68.9946 27.8526C69.2015 27.8909 69.374 27.8526 69.5465 27.7378C69.6845 27.6613 69.7535 27.4699 69.7535 27.3169V25.4418C69.719 25.2505 69.6155 25.0591 69.4775 24.9443C69.305 24.7913 69.098 24.7147 68.8566 24.6765C68.6496 24.6382 68.4426 24.6765 68.3046 24.7913C68.2011 24.8678 68.0977 25.0209 68.0977 25.2122Z" fill="#6366F1"/>
<path d="M70.5124 24.7141H71.3403C71.4093 24.7141 71.5128 24.7141 71.5818 24.6375C71.6508 24.5993 71.7198 24.561 71.7543 24.4845C71.7888 24.4079 71.8233 24.3314 71.8233 24.2166C71.8233 24.1401 71.8233 24.0253 71.7888 23.9487C71.6853 23.7191 71.5473 23.5661 71.3748 23.4513C71.2023 23.3365 70.9954 23.2599 70.7884 23.2217H69.9605C69.8915 23.2217 69.788 23.2217 69.719 23.2982C69.65 23.3365 69.581 23.3747 69.5465 23.4513C69.512 23.5278 69.4775 23.6043 69.4775 23.7191C69.4775 23.7957 69.4775 23.9105 69.512 23.987C69.6155 24.2166 69.7535 24.3697 69.926 24.5227C70.0985 24.6375 70.3054 24.7141 70.5124 24.7141Z" fill="#6366F1"/>
<path d="M67.2701 23.4902H66.0627C65.8902 23.4902 65.7522 23.5285 65.6142 23.6433C65.5453 23.7581 65.5453 23.9112 65.6142 24.026C65.7177 24.179 65.8902 24.3321 66.0627 24.4086C66.2697 24.4852 66.4766 24.5617 66.7181 24.5617H67.9255C68.098 24.5617 68.2359 24.5234 68.3739 24.4086C68.4429 24.2938 68.4429 24.1408 68.3739 24.026C68.2704 23.8729 68.098 23.7198 67.9255 23.6433C67.7185 23.5668 67.5115 23.4902 67.2701 23.4902Z" fill="#6366F1"/>
<path d="M30.4975 24.7145C32.2312 24.7145 33.6367 23.1555 33.6367 21.2323C33.6367 19.3091 32.2312 17.75 30.4975 17.75C28.7638 17.75 27.3584 19.3091 27.3584 21.2323C27.3584 23.1555 28.7638 24.7145 30.4975 24.7145Z" fill="#000005"/>
<path d="M69.5116 81.5781C64.7167 86.0553 60.8531 91.604 58.1279 97.8797C61.0946 98.492 69.2356 98.9512 72.2368 99.2573" fill="#FAF5FF"/>
<path d="M68.8561 80.9277C65.1306 84.41 61.9569 88.581 59.4387 93.2113C58.7143 94.5124 58.0589 95.89 57.4725 97.2676C57.369 97.4589 58.5073 98.4921 58.7143 98.5686C60.4391 98.913 62.1984 99.0661 63.9577 99.2192C66.0275 99.4105 68.0972 99.5635 70.2015 99.7166C71.0984 99.7931 71.9608 99.8697 72.8577 99.9462C72.9957 99.9462 72.5127 99.4488 72.4782 99.4105C72.3057 99.2192 71.9263 98.7217 71.6503 98.6834C67.8213 98.3008 63.9922 98.1094 60.1631 97.6885C59.3007 97.5737 58.4038 97.4972 57.5414 97.3058L58.7833 98.6069C60.8876 93.747 63.7162 89.2698 67.1313 85.4049C68.0972 84.3334 69.0976 83.262 70.167 82.3053C70.2015 82.1905 69.0286 80.8129 68.8561 80.9277Z" fill="#6366F1"/>
<path d="M98.2813 81.5781L106.526 96.196C106.836 96.77 107.181 97.5353 106.802 98.0711C106.595 98.3007 106.353 98.4537 106.077 98.5303C104.905 98.9512 98.3848 100.137 97.2119 100.558" fill="#FAF5FF"/>
<path d="M97.488 81.808L105.284 95.6223C105.629 96.1198 105.905 96.6555 106.078 97.2295C106.181 97.6887 106.078 97.88 105.698 97.9948C105.319 98.1096 104.905 98.2244 104.491 98.301L104.249 98.3392C104.422 98.301 104.215 98.3392 104.18 98.3392L103.697 98.454L102.662 98.6836L100.558 99.1046C99.3163 99.3342 98.0744 99.602 96.8326 99.9847C96.5566 100.099 96.1427 100.367 96.3152 100.75C96.4876 101.133 97.1086 101.094 97.419 101.018C98.4539 100.712 99.5233 100.444 100.593 100.291C102.041 99.9847 103.525 99.6785 104.974 99.3341C106.215 99.0663 108.285 98.6453 107.664 96.6937C107.457 96.1197 107.181 95.584 106.836 95.0866L105.767 93.1732L103.697 89.4614L99.0748 81.2723C98.7644 80.6983 97.0741 81.1192 97.488 81.808Z" fill="#6366F1"/>
<path d="M81.6883 84.7927C81.6193 91.7955 81.9643 98.7983 82.7577 105.725C82.9991 107.676 83.2406 109.628 83.5511 111.579C83.6201 111.962 84.103 112.23 84.379 112.345C84.517 112.383 85.1724 112.613 85.1034 112.23C84.0685 105.342 83.4476 98.3391 83.3096 91.3746C83.2751 89.3847 83.2406 87.4331 83.2751 85.4433C83.2751 84.9075 81.7228 84.1805 81.6883 84.7927Z" fill="#000005"/>
<path d="M66.4414 117.128C66.4414 117.128 68.3387 46.947 84.1034 44.2301C99.868 41.5131 99.868 117.817 99.868 117.817L66.4414 117.128Z" fill="#FAF5FF"/>
<path d="M67.2688 117.167C67.2688 116.478 67.3032 115.827 67.3377 115.138C67.4067 113.34 67.5102 111.503 67.6137 109.666C67.7517 106.988 67.9242 104.271 68.1312 101.592C68.3726 98.3011 68.6831 95.0485 68.9936 91.7575C69.373 88.1987 69.787 84.6399 70.2699 81.0811C70.7873 77.4841 71.3393 73.887 72.0292 70.3282C72.3742 68.6062 72.7191 66.8842 73.1331 65.2005C73.34 64.3969 73.5125 63.5933 73.7195 62.7514C73.823 62.3687 73.9265 61.9478 74.03 61.5651C74.0645 61.3738 74.1335 61.1825 74.2025 60.9911C74.2369 60.9146 74.2369 60.7998 74.2714 60.7233L74.3404 60.5319C75.1338 57.7002 76.0997 54.9833 77.3071 52.3429C77.5831 51.7689 77.859 51.1949 78.1695 50.6209L78.273 50.4295C78.342 50.2765 78.204 50.5443 78.273 50.3913C78.342 50.2382 78.411 50.1234 78.5145 50.0086C78.6524 49.779 78.8249 49.5111 78.9629 49.2815C79.2734 48.8223 79.5838 48.4014 79.8943 47.9805C80.0668 47.7891 80.2048 47.5595 80.3772 47.3682L80.4462 47.2917C80.3427 47.4065 80.4807 47.2534 80.5152 47.2151L80.7912 46.9473C81.1016 46.6029 81.4466 46.335 81.8261 46.0289C81.8951 45.9523 82.171 45.7993 81.9296 45.9523C82.033 45.8758 82.1365 45.8375 82.2055 45.761C82.378 45.6462 82.585 45.5314 82.7575 45.4549L82.9989 45.3401C83.1024 45.3018 83.4129 45.187 83.1369 45.3018C83.3439 45.2253 83.5164 45.187 83.7233 45.1105C83.9303 45.0339 84.1028 45.0339 84.3098 44.9957C84.5168 44.9574 84.2408 44.9957 84.2753 44.9957C84.3098 44.9957 84.3443 44.9957 84.4133 44.9957H84.6892C84.8617 44.9957 85.0342 44.9957 85.2412 45.0339H85.3792C85.5171 45.0339 85.1722 44.9957 85.3447 45.0339L85.6206 45.0722C85.7931 45.1105 85.9656 45.1487 86.1381 45.2253L86.345 45.3018C86.3795 45.3018 86.5175 45.3783 86.3795 45.3018C86.2416 45.2253 86.414 45.3018 86.4485 45.3401C86.7935 45.4931 87.104 45.7227 87.4144 45.9523C87.4834 45.9906 87.5524 46.0671 87.6214 46.1054L87.7249 46.1819C87.6214 46.0671 87.6904 46.1437 87.7249 46.1819C87.8284 46.2967 88.0353 46.4881 88.1733 46.6029C88.4838 46.909 88.7598 47.2534 89.0357 47.6361C89.1737 47.8274 89.3117 48.0187 89.4497 48.2101C89.5187 48.2866 89.5877 48.4014 89.6567 48.5162C89.7256 48.631 89.7257 48.631 89.7601 48.6693L89.7257 48.5927C89.7601 48.631 89.7601 48.6693 89.7946 48.7075C90.3466 49.6642 90.8295 50.6209 91.278 51.6541C91.7609 52.8021 92.1749 53.9883 92.5888 55.1746C92.7958 55.8251 93.0028 56.5139 93.2097 57.1645C93.3132 57.5089 93.4167 57.8533 93.4857 58.1977C93.5892 58.6186 93.6237 58.6951 93.7272 59.1161C94.4861 62.2157 95.107 65.3153 95.6245 68.4914C96.1764 71.8971 96.6249 75.3411 97.0043 78.7851C97.3838 82.2291 97.6942 85.7114 97.9702 89.1937C98.2117 92.4846 98.4186 95.7755 98.5911 99.0665C98.7291 101.898 98.8326 104.768 98.9361 107.6C99.0051 109.743 99.0396 111.848 99.1086 113.99C99.1431 115.177 99.1431 116.363 99.1431 117.511V117.97L100.109 116.937L96.7628 116.86L88.7943 116.707L79.1009 116.516L70.7529 116.325C69.4075 116.286 68.0277 116.21 66.6823 116.248H66.6133C66.1649 116.248 65.7509 116.593 65.6474 117.052C65.6129 117.473 65.8889 117.855 66.2684 117.894C66.3029 117.894 66.3029 117.894 66.3374 117.894L69.6835 117.97L77.6521 118.123L87.3454 118.315L95.6935 118.506C97.0388 118.544 98.4186 118.621 99.764 118.582H99.833C100.35 118.621 100.764 118.162 100.799 117.588V117.549C100.799 116.899 100.799 116.286 100.799 115.636C100.799 113.914 100.764 112.154 100.695 110.432C100.626 107.868 100.557 105.266 100.454 102.702C100.316 99.5639 100.178 96.4261 99.971 93.2882C99.7295 89.8059 99.4535 86.3619 99.1431 82.9179C98.7981 79.3974 98.4186 75.8769 97.9357 72.3563C97.4872 69.0271 96.9353 65.6979 96.2454 62.407C95.659 59.4605 94.9 56.5905 94.0032 53.7587C93.2787 51.4627 92.2784 49.2815 91.071 47.2534C90.0706 45.7227 88.8288 44.3451 87.2419 43.6181C85.6551 42.9675 83.8613 43.0823 82.3435 43.8859C80.5497 44.7661 79.0664 46.3733 77.8935 48.1335C76.4792 50.353 75.3408 52.7255 74.4439 55.2511C73.3745 58.3125 72.4432 61.4121 71.7187 64.5882C70.8908 68.0705 70.2009 71.5527 69.6145 75.1115C68.9936 78.7469 68.5106 82.3822 68.0622 86.0558C67.6482 89.5381 67.2688 93.0203 66.9928 96.5026C66.7168 99.5639 66.5098 102.625 66.3029 105.687C66.1649 108.021 66.0269 110.317 65.9234 112.651C65.8544 113.952 65.8199 115.215 65.7854 116.516C65.7854 116.669 65.7854 116.86 65.7854 117.014C65.7509 117.434 66.0269 117.817 66.4064 117.855C66.4408 117.855 66.4408 117.855 66.4753 117.855C66.6823 117.97 67.2343 117.626 67.2688 117.167Z" fill="#6366F1"/>
<path d="M90.1745 67.9937C90.1745 70.6724 88.6912 73.0449 86.449 74.0781C84.2757 75.0731 81.792 74.4225 80.2397 72.4709C78.7219 70.4045 78.5149 67.5345 79.7223 65.2385C80.9641 62.9043 83.3443 61.6797 85.7591 62.1389C88.3463 62.6364 90.1745 65.1237 90.1745 67.9937C90.209 68.4529 90.5195 68.8739 90.899 68.9504C91.1749 69.0269 91.7959 68.9887 91.7959 68.5295C91.7269 65.162 89.7951 62.1772 86.9319 61.0292C84.2067 59.8812 80.9296 60.6848 78.9978 63.1339C77.0316 65.6212 76.7556 69.2183 78.3079 72.0117C79.9292 74.8817 82.9304 76.4124 85.966 75.9149C89.2431 75.3409 91.6924 72.2413 91.7959 68.5295C91.7614 68.0703 91.4509 67.6493 91.0714 67.5728C90.761 67.458 90.209 67.4963 90.1745 67.9937Z" fill="#6366F1"/>
<path d="M99.7991 128.723H67.6834C67.2694 128.723 66.7865 128.685 66.3725 128.723H66.3035L67.2694 129.412V117.167L66.5105 117.817H98.6263C99.0402 117.817 99.4887 117.856 99.9371 117.817H100.006L99.0402 117.128V129.374C99.0402 130.177 100.731 130.407 100.731 129.412V117.167C100.731 116.708 100.075 116.478 99.7646 116.478H70.443C69.0977 116.478 67.7178 116.44 66.3725 116.478H66.3035C65.9241 116.478 65.5791 116.669 65.5791 117.128V129.374C65.5791 129.833 66.2345 130.063 66.545 130.063H95.8666C97.2119 130.063 98.5918 130.101 99.9371 130.063H100.006C100.351 130.063 100.8 129.871 100.731 129.412C100.662 128.953 100.144 128.723 99.7991 128.723Z" fill="#6366F1"/>
<path d="M69.5462 136.3C68.6148 140.624 68.2353 145.101 68.3388 149.54C68.3733 150.612 68.5803 151.53 69.3737 152.219C70.0636 152.793 70.926 153.061 71.8229 152.984C73.4097 152.869 74.8241 151.645 75.7555 150.306C76.9283 148.545 77.6182 146.441 78.9636 144.833L77.5837 143.877L79.274 154.821C79.481 156.122 79.688 157.461 80.3434 158.609C80.9988 159.757 82.2062 160.714 83.4826 160.408C84.8279 160.102 85.6213 158.724 85.9318 157.308C86.1043 156.505 86.2077 155.701 86.3457 154.898C86.4837 154.094 86.6907 153.29 86.9322 152.487C87.3806 150.841 87.967 149.311 88.7604 147.856C88.8294 147.703 88.9674 147.627 89.0364 147.474C89.0709 147.436 89.2434 147.436 89.0709 147.397L89.1054 147.436C89.2779 147.627 89.4504 147.895 89.5539 148.124C89.8643 148.698 90.1748 149.234 90.4508 149.808C91.7271 152.334 93.1414 155.127 95.7976 156.084C96.1081 156.199 96.4876 156.199 96.4876 155.739C96.2116 149.043 94.8317 142.499 92.3825 136.376C92.21 135.917 91.8651 135.611 91.4511 135.496C91.1062 135.458 90.8302 135.688 90.9682 136.109C93.3484 142.116 94.7283 148.545 94.9697 155.089L95.6596 154.744C93.6934 154.017 92.7275 151.798 91.7271 149.885C91.1752 148.775 90.5887 147.474 89.7263 146.594C89.2434 146.096 88.45 145.637 87.8291 146.058C87.2771 146.441 86.9666 147.321 86.6907 147.971C86.0353 149.425 85.5178 150.918 85.1384 152.487C84.9314 153.252 84.7934 154.056 84.6554 154.821C84.5519 155.586 84.3795 156.352 84.1725 157.079C83.8275 157.997 82.7926 159.336 81.7923 158.801C81.6543 158.724 81.5508 158.609 81.4818 158.456C81.3438 158.265 81.2403 158.035 81.1713 157.844C80.9643 157.308 80.8264 156.773 80.7229 156.199C80.0675 152.334 79.5155 148.392 78.9291 144.527C78.8601 144.03 78.0322 142.997 77.5492 143.571C75.583 145.981 74.8931 149.808 71.9954 151.186C71.409 151.492 70.7535 151.568 70.1326 151.415C69.9256 151.339 69.8221 151.339 69.7531 151.109C69.6842 150.65 69.6497 150.191 69.6842 149.732C69.6497 147.742 69.7187 145.79 69.8911 143.838C70.0981 141.657 70.4086 139.438 70.8915 137.295C71.1675 136.568 69.7187 135.496 69.5462 136.3Z" fill="#6366F1"/>
<path d="M99.0398 133.813C100.213 136.453 101.282 139.17 102.213 141.964C102.386 142.423 102.8 142.691 103.248 142.691C103.593 142.652 104.007 142.346 103.869 141.887C102.869 138.979 101.765 136.147 100.523 133.354C100.144 132.473 98.5569 132.741 99.0398 133.813Z" fill="#6366F1"/>
<path d="M61.7152 135.534C60.0594 136.835 58.7485 138.634 57.9896 140.738C57.8516 141.121 59.5074 141.657 59.6799 141.121C60.4043 139.093 61.6807 137.333 63.302 136.108C63.578 135.917 62.888 135.572 62.7845 135.572C62.4741 135.419 61.9911 135.305 61.7152 135.534Z" fill="#6366F1"/>
<path d="M76.342 52.8407C76.9629 53.9504 78.1358 54.4096 79.2397 54.6392C80.5505 54.8688 81.8614 55.0219 83.2067 55.0984C86.1044 55.2897 89.0021 55.0219 91.6582 53.6443C91.8997 53.5295 92.4861 53.1851 92.4861 52.8789C92.4861 52.5728 91.8997 52.8407 91.7962 52.8789C89.4505 54.1035 86.7598 54.18 84.2071 53.9887C82.9652 53.9121 81.7234 53.7973 80.4815 53.5677C79.4467 53.3381 78.4118 52.9555 77.8253 51.9223C77.6184 51.5013 76.135 52.458 76.342 52.8407Z" fill="#6366F1"/>
<path d="M70.4089 86.6683C72.8581 86.7448 75.2729 86.7066 77.7221 86.63C77.998 86.63 77.6531 85.9795 77.5841 85.903C77.4461 85.6734 77.1012 85.0611 76.7907 85.0994C74.3415 85.2142 71.9267 85.2142 69.4775 85.1376C69.2016 85.1376 69.5465 85.7882 69.6155 85.8647C69.788 86.0943 70.0985 86.63 70.4089 86.6683Z" fill="#6366F1"/>
<path d="M81.1367 86.63H82.827C82.965 86.63 83.103 86.5152 83.1375 86.3621C83.1375 86.1708 83.103 85.9794 82.9995 85.8264C82.8615 85.635 82.689 85.4437 82.5166 85.3289L82.3096 85.2524C82.2061 85.2141 82.0681 85.1758 81.9646 85.2141H80.2743C80.1363 85.2141 79.9984 85.3289 79.9639 85.482C79.9639 85.6733 79.9984 85.8646 80.1018 86.0177C80.2398 86.209 80.4123 86.4004 80.5848 86.5152L80.7918 86.5917C80.8953 86.5917 80.9987 86.63 81.1367 86.63Z" fill="#6366F1"/>
<path d="M83.1719 87.7393V90.571C83.2064 91.0302 83.4823 91.4129 83.8618 91.5659C84.0343 91.6807 84.2068 91.719 84.4137 91.6807C84.5517 91.6424 84.6897 91.5659 84.6897 91.3746V88.5429C84.6552 88.0837 84.3792 87.7393 83.9998 87.5862C83.8273 87.4714 83.6548 87.4331 83.4478 87.4714C83.3099 87.4714 83.1719 87.5862 83.1719 87.7393Z" fill="#6366F1"/>
<path d="M83.0684 94.3975V96.6553C83.0684 96.8849 83.1373 97.0762 83.2753 97.2293C83.4478 97.3823 83.6548 97.4589 83.8618 97.4589C84.1032 97.4589 84.3102 97.3441 84.4827 97.191C84.6552 97.0379 84.7587 96.8466 84.7587 96.617V94.3593C84.7587 94.1297 84.6897 93.9383 84.5517 93.7853C84.3792 93.6322 84.1722 93.5557 83.9653 93.5557C83.7238 93.5557 83.5168 93.6705 83.3443 93.8235C83.1718 93.9766 83.0684 94.1679 83.0684 94.3975Z" fill="#6366F1"/>
<path d="M83.1025 101.86V103.543C83.137 103.735 83.206 103.888 83.344 104.003C83.5165 104.156 83.7235 104.309 83.9304 104.347C84.1029 104.423 84.3099 104.423 84.4824 104.385C84.6204 104.347 84.6894 104.232 84.6894 104.079V102.395C84.6549 102.204 84.5859 102.051 84.4479 101.936C84.2754 101.783 84.0684 101.668 83.8615 101.592C83.689 101.515 83.482 101.515 83.3095 101.553C83.206 101.592 83.1025 101.707 83.1025 101.86Z" fill="#6366F1"/>
<path d="M83.3096 109.284V111.733C83.3096 111.962 83.3786 112.23 83.4821 112.422C83.62 112.613 83.7925 112.766 83.9995 112.843C84.3445 112.957 84.6894 112.728 84.7929 112.383C84.7929 112.307 84.8274 112.268 84.8274 112.192V109.743C84.8274 109.513 84.7584 109.245 84.6549 109.054C84.5169 108.863 84.3444 108.71 84.1375 108.633C83.7925 108.518 83.4131 108.748 83.3441 109.131C83.3096 109.169 83.3096 109.207 83.3096 109.284Z" fill="#6366F1"/>
<path d="M83.3789 114.603V115.368C83.3789 115.406 83.3789 115.444 83.4134 115.444C83.4479 115.483 83.4824 115.559 83.5514 115.597C83.8619 115.904 84.2068 116.133 84.5518 116.363L84.6898 116.439C84.7243 116.478 84.7587 116.478 84.8277 116.478V115.712C84.8277 115.674 84.8277 115.636 84.7932 115.636C84.7587 115.597 84.7242 115.521 84.6553 115.483C84.5173 115.33 84.3448 115.215 84.1723 115.062C83.9998 114.947 83.8274 114.832 83.6549 114.717L83.5169 114.641C83.4479 114.603 83.4134 114.603 83.3789 114.603Z" fill="#6366F1"/>
<path d="M87.3462 87.5868H89.209C89.416 87.5485 89.554 87.4337 89.6575 87.2424C89.761 87.0511 89.761 86.7832 89.7265 86.5536C89.692 86.324 89.554 86.0944 89.3815 85.9413L89.209 85.8265C89.1055 85.75 88.9676 85.75 88.8296 85.75H86.9668C86.7598 85.7883 86.6218 85.9031 86.5183 86.0944C86.4148 86.2857 86.4148 86.5536 86.4493 86.7832C86.4838 87.0128 86.6218 87.2424 86.7943 87.3955L86.9668 87.5103C87.1048 87.5485 87.2083 87.5868 87.3462 87.5868Z" fill="#6366F1"/>
<path d="M92.1065 87.1273H93.6244C93.8313 87.1273 94.0728 87.089 94.2798 86.9742C94.4523 86.8977 94.6247 86.7829 94.7282 86.6298C94.7972 86.515 94.8317 86.4002 94.7282 86.2854C94.5902 86.1706 94.4523 86.1323 94.2798 86.1706H92.762C92.555 86.1706 92.3135 86.2089 92.1065 86.3237C91.9341 86.4002 91.7616 86.515 91.6581 86.6681C91.5891 86.7829 91.5546 86.8977 91.6581 87.0125C91.7616 87.089 91.9341 87.1655 92.1065 87.1273Z" fill="#6366F1"/>
<path d="M82.2402 69.8687L85.8622 66.0037C85.9657 65.8889 85.8967 65.6593 85.8622 65.5445C85.7588 65.3532 85.6208 65.1619 85.4483 65.0088C85.2068 64.8175 84.7584 64.5496 84.4824 64.8557L80.8603 68.7207C80.7568 68.8355 80.8258 69.0651 80.8603 69.1799C80.9638 69.3712 81.1018 69.5625 81.2743 69.7156C81.5157 69.9069 81.9642 70.1748 82.2402 69.8687Z" fill="#FAF5FF"/>
<path d="M85.5866 70.5964L87.8288 68.7214C87.9323 68.6448 87.7598 68.53 87.7253 68.53C87.5529 68.4535 87.3804 68.4152 87.2079 68.4535C86.8284 68.4152 86.4835 68.4918 86.173 68.6831L83.9653 70.5582C83.8618 70.6347 84.0343 70.7495 84.0688 70.7495C84.2412 70.826 84.4137 70.826 84.5862 70.826C84.9312 70.8643 85.2761 70.7878 85.5866 70.5964Z" fill="#FAF5FF"/>
</svg>
