<svg width="180" height="124" viewBox="0 0 180 124" fill="none" xmlns="http://www.w3.org/2000/svg">
<path d="M148.001 83.7786H33.4813C30.4882 83.7786 28.0938 81.3841 28.0938 78.3911V11.3924C28.0938 8.39934 30.4882 6.00488 33.4813 6.00488H148.001C150.994 6.00488 153.388 8.39934 153.388 11.3924V78.4371C153.388 81.3841 150.994 83.7786 148.001 83.7786Z" fill="white"/>
<path d="M147.999 84.101H33.4794C30.3482 84.101 27.7695 81.5684 27.7695 78.3911V11.3925C27.7695 8.26126 30.3021 5.68262 33.4794 5.68262H147.999C151.13 5.68262 153.709 8.21522 153.709 11.3925V78.4372C153.709 81.5684 151.176 84.101 147.999 84.101ZM33.4794 6.32728C30.6705 6.32728 28.4142 8.58359 28.4142 11.3925V78.3911C28.4142 81.2 30.6705 83.4563 33.4794 83.4563H147.999C150.808 83.4563 153.064 81.2 153.064 78.3911V11.3925C153.064 8.58359 150.808 6.32728 147.999 6.32728H33.4794Z" fill="#111827"/>
<path d="M141.916 77.7002H39.5531C36.9745 77.7002 34.9023 75.6281 34.9023 73.0495V16.7338C34.9023 14.1551 36.9745 12.083 39.5531 12.083H141.916C144.495 12.083 146.567 14.1551 146.567 16.7338V73.0495C146.613 75.5821 144.495 77.7002 141.916 77.7002Z" fill="white"/>
<path d="M141.968 78.0226H39.559C36.7962 78.0226 34.5859 75.8124 34.5859 73.0495V16.7338C34.5859 13.971 36.8423 11.7607 39.559 11.7607H141.922C144.685 11.7607 146.895 14.0171 146.895 16.7338V73.0495C146.895 75.8124 144.685 78.0226 141.968 78.0226ZM39.559 12.4054C37.1646 12.4054 35.2306 14.3394 35.2306 16.7338V73.0495C35.2306 75.444 37.1646 77.378 39.559 77.378H141.922C144.316 77.378 146.25 75.444 146.25 73.0495V16.7338C146.25 14.3394 144.316 12.4054 141.922 12.4054H39.559Z" fill="#D1D3D4"/>
<path d="M69.0747 25.3458H43.5645C43.3803 25.3458 43.2422 25.2077 43.2422 25.0235C43.2422 24.8393 43.3803 24.7012 43.5645 24.7012H69.0747C69.2589 24.7012 69.397 24.8393 69.397 25.0235C69.397 25.1616 69.2589 25.2998 69.0747 25.3458Z" fill="#D1D3D4"/>
<path d="M69.0747 32.2999H43.5645C43.3803 32.2999 43.2422 32.1618 43.2422 31.9776C43.2422 31.7934 43.3803 31.6553 43.5645 31.6553H69.0747C69.2589 31.6553 69.397 31.7934 69.397 31.9776C69.397 32.1618 69.2589 32.2999 69.0747 32.2999Z" fill="#D1D3D4"/>
<path d="M62.4899 39.298H43.5645C43.3803 39.298 43.2422 39.1598 43.2422 38.9756C43.2422 38.7915 43.3803 38.6533 43.5645 38.6533H62.4899C62.6741 38.6533 62.8123 38.7915 62.8123 38.9756C62.8123 39.1598 62.6741 39.298 62.4899 39.298Z" fill="#D1D3D4"/>
<path d="M140.125 62.4591H110.01C109.826 62.4591 109.688 62.321 109.688 62.1368C109.688 61.9526 109.826 61.8145 110.01 61.8145H140.125C140.309 61.8145 140.447 61.9526 140.447 62.1368C140.447 62.321 140.309 62.4591 140.125 62.4591Z" fill="#D1D3D4"/>
<path d="M134.508 69.2745H110.057C109.873 69.2745 109.734 69.1364 109.734 68.9522C109.734 68.768 109.873 68.6299 110.057 68.6299H134.508C134.692 68.6299 134.83 68.768 134.83 68.9522C134.83 69.1364 134.692 69.2745 134.508 69.2745Z" fill="#D1D3D4"/>
<path d="M104.346 38.7441H92.9727V51.269H104.346V38.7441Z" fill="white"/>
<path d="M104.344 51.5914H92.9708C92.7866 51.5914 92.6484 51.4532 92.6484 51.269V38.7442C92.6484 38.56 92.7866 38.4219 92.9708 38.4219H104.344C104.529 38.4219 104.667 38.56 104.667 38.7442V51.269C104.667 51.4072 104.529 51.5914 104.344 51.5914ZM93.2931 50.9467H104.022V39.0665H93.2931V50.9467Z" fill="#D1D3D4"/>
<path d="M122.944 28.1084H111.57V51.2701H122.944V28.1084Z" fill="white"/>
<path d="M122.903 51.5925H111.529C111.345 51.5925 111.207 51.4544 111.207 51.2702V28.1085C111.207 27.9243 111.345 27.7861 111.529 27.7861H122.903C123.087 27.7861 123.225 27.9243 123.225 28.1085V51.2702C123.225 51.4083 123.087 51.5925 122.903 51.5925ZM111.852 50.9479H122.581V28.4308H111.852V50.9479Z" fill="#D1D3D4"/>
<path d="M141.506 18.8984H130.133V51.2236H141.506V18.8984Z" fill="#818CF8"/>
<path d="M176.089 10.9785H162.229C160.249 10.9785 158.637 12.5902 158.637 14.5702V24.8387L148 28.2462H158.637V28.4304C158.637 30.4104 160.249 32.0221 162.229 32.0221H176.089C178.069 32.0221 179.68 30.4104 179.68 28.4304V14.5702C179.68 12.5902 178.069 10.9785 176.089 10.9785Z" fill="white"/>
<path d="M176.087 32.2984H162.227C160.109 32.2984 158.405 30.6407 158.313 28.5686H147.998C147.814 28.5686 147.676 28.4305 147.676 28.2463C147.676 28.1081 147.768 27.97 147.906 27.9239L158.313 24.6085V14.5703C158.313 12.406 160.062 10.6562 162.227 10.6562H176.087C178.251 10.6562 180.001 12.406 180.001 14.5703V28.4305C180.001 30.5947 178.251 32.2984 176.087 32.2984ZM150.07 27.9239H158.635C158.819 27.9239 158.957 28.0621 158.957 28.2463V28.4305C158.957 30.2263 160.431 31.6998 162.227 31.6998H176.087C177.883 31.6998 179.356 30.2263 179.356 28.4305V14.5703C179.356 12.7744 177.883 11.3009 176.087 11.3009H162.227C160.431 11.3009 158.957 12.7744 158.957 14.5703V24.8388C158.957 24.9769 158.865 25.1151 158.727 25.1611L150.07 27.9239Z" fill="#111827"/>
<path d="M175.166 17.379H163.838C163.654 17.379 163.516 17.2409 163.516 17.0567C163.516 16.8725 163.654 16.7344 163.838 16.7344H175.166C175.35 16.7344 175.488 16.8725 175.488 17.0567C175.488 17.2409 175.35 17.379 175.166 17.379Z" fill="#D1D3D4"/>
<path d="M175.166 21.8927H163.838C163.654 21.8927 163.516 21.7546 163.516 21.5704C163.516 21.3862 163.654 21.248 163.838 21.248H175.166C175.35 21.248 175.488 21.3862 175.488 21.5704C175.488 21.7546 175.35 21.8927 175.166 21.8927Z" fill="#D1D3D4"/>
<path d="M172.265 26.3585H163.838C163.654 26.3585 163.516 26.2204 163.516 26.0362C163.516 25.852 163.654 25.7139 163.838 25.7139H172.265C172.449 25.7139 172.587 25.852 172.587 26.0362C172.587 26.2204 172.449 26.3585 172.265 26.3585Z" fill="#D1D3D4"/>
<path d="M31.9578 47.4943H22.9786V25.1614C22.9786 23.5958 21.7353 22.3525 20.1697 22.3525H3.13227C1.56667 22.3525 0.323391 23.5958 0.277344 25.1614V59.3284C0.277344 60.894 1.52062 62.1373 3.08622 62.1373H20.1237C21.6893 62.1373 22.9326 60.894 22.9326 59.3284V51.5925L31.9578 47.4943Z" fill="white"/>
<path d="M20.1687 62.4597H3.13121C1.38142 62.4597 0 61.0322 0 59.3285V25.1615C0 23.4117 1.42746 22.0303 3.13121 22.0303H20.1687C21.9185 22.0303 23.2999 23.4577 23.2999 25.1615V47.2181H31.9568C32.141 47.2181 32.2791 47.3562 32.2791 47.5404C32.2791 47.6786 32.187 47.7706 32.0949 47.8167L23.3459 51.8228V59.3285C23.3459 61.0783 21.9185 62.4597 20.1687 62.4597ZM3.13121 22.6289C1.7498 22.6289 0.644662 23.734 0.598615 25.1154V25.1615V59.3285C0.598615 60.7099 1.70375 61.815 3.08516 61.815H20.1226C21.504 61.815 22.6092 60.7099 22.6092 59.3285V51.5926C22.6092 51.4544 22.7013 51.3623 22.7934 51.3163L30.3912 47.8627H22.9315C22.7473 47.8627 22.6092 47.7246 22.6092 47.5404V25.1615C22.6092 23.7801 21.504 22.6749 20.1226 22.6749L3.13121 22.6289Z" fill="#111827"/>
<path d="M19.7089 27.9238H3.73047V36.7649H19.7089V27.9238Z" fill="white"/>
<path d="M19.707 37.0873H3.72858C3.54439 37.0873 3.40625 36.9491 3.40625 36.7649V27.9239C3.40625 27.7397 3.54439 27.6016 3.72858 27.6016H19.707C19.8912 27.6016 20.0293 27.7397 20.0293 27.9239V36.7649C19.9832 36.9491 19.8451 37.0873 19.707 37.0873ZM4.05091 36.4426H19.3846V28.2462H4.05091V36.4426Z" fill="#D1D3D4"/>
<path d="M19.707 40.0343H3.72858C3.54439 40.0343 3.40625 39.8962 3.40625 39.712C3.40625 39.5278 3.54439 39.3896 3.72858 39.3896H19.707C19.8912 39.3896 20.0293 39.5278 20.0293 39.712C20.0293 39.8962 19.8451 40.0343 19.707 40.0343Z" fill="#D1D3D4"/>
<path d="M19.707 44.2247H3.72858C3.54439 44.2247 3.40625 44.0866 3.40625 43.9024C3.40625 43.7182 3.54439 43.5801 3.72858 43.5801H19.707C19.8912 43.5801 20.0293 43.7182 20.0293 43.9024C20.0293 44.0866 19.8912 44.2247 19.707 44.2247Z" fill="#D1D3D4"/>
<path d="M19.707 48.4611H3.72858C3.54439 48.4611 3.40625 48.3229 3.40625 48.1387C3.40625 47.9545 3.54439 47.8164 3.72858 47.8164H19.707C19.8912 47.8164 20.0293 47.9545 20.0293 48.1387C20.0293 48.3229 19.8912 48.4611 19.707 48.4611Z" fill="#D1D3D4"/>
<path d="M19.707 52.6515H3.72858C3.54439 52.6515 3.40625 52.5134 3.40625 52.3292C3.40625 52.145 3.54439 52.0068 3.72858 52.0068H19.707C19.8912 52.0068 20.0293 52.145 20.0293 52.3292C20.0293 52.5134 19.8912 52.6515 19.707 52.6515Z" fill="#D1D3D4"/>
<path d="M15.5167 56.8878H3.72858C3.54439 56.8878 3.40625 56.7497 3.40625 56.5655C3.40625 56.3813 3.54439 56.2432 3.72858 56.2432H15.5167C15.7009 56.2432 15.839 56.3813 15.839 56.5655C15.839 56.7497 15.7009 56.8878 15.5167 56.8878Z" fill="#D1D3D4"/>
<path d="M121.474 90.2729H84.3142L79.9397 75.0312V90.2729H68.2897C65.665 90.2729 63.5469 92.3911 63.5469 95.0157V107.817C63.5469 110.442 65.665 112.56 68.2897 112.56H121.52C124.145 112.56 126.263 110.442 126.263 107.817V95.0157C126.217 92.3911 124.099 90.2729 121.474 90.2729Z" fill="white"/>
<path d="M121.472 112.882H68.2878C65.479 112.882 63.2227 110.626 63.2227 107.817V95.0158C63.2227 92.2069 65.479 89.9506 68.2878 89.9506H79.6155V75.0313C79.6155 74.8471 79.7536 74.755 79.8918 74.709C80.0299 74.709 80.2141 74.8011 80.2601 74.9392L84.5886 89.9506H121.518C124.327 89.9506 126.584 92.2069 126.584 95.0158V107.817C126.538 110.626 124.281 112.882 121.472 112.882ZM68.2878 90.5953C65.8473 90.5953 63.8673 92.5753 63.8673 95.0158V107.817C63.8673 110.257 65.8473 112.237 68.2878 112.237H121.518C123.959 112.237 125.939 110.257 125.939 107.817V95.0158C125.939 92.5753 123.959 90.5953 121.518 90.5953H84.3583C84.2202 90.5953 84.0821 90.5032 84.036 90.365L80.3062 77.3337V90.2729C80.3062 90.4571 80.168 90.5953 79.9838 90.5953H68.2878Z" fill="#111827"/>
<path d="M116.176 96.4435H83.252C83.0678 96.4435 82.9297 96.3054 82.9297 96.1212C82.9297 95.937 83.0678 95.7988 83.252 95.7988H116.176C116.36 95.7988 116.498 95.937 116.498 96.1212C116.498 96.3054 116.36 96.4435 116.176 96.4435Z" fill="#D1D3D4"/>
<path d="M116.176 101.739H83.252C83.0678 101.739 82.9297 101.601 82.9297 101.417C82.9297 101.233 83.0678 101.095 83.252 101.095H116.176C116.36 101.095 116.498 101.233 116.498 101.417C116.498 101.601 116.36 101.739 116.176 101.739Z" fill="#D1D3D4"/>
<path d="M108.946 107.034H83.252C83.0678 107.034 82.9297 106.896 82.9297 106.712C82.9297 106.528 83.0678 106.39 83.252 106.39H108.946C109.131 106.39 109.269 106.528 109.269 106.712C109.269 106.896 109.131 107.034 108.946 107.034Z" fill="#D1D3D4"/>
<path d="M74.2738 107.264C77.5035 107.264 80.1218 104.646 80.1218 101.416C80.1218 98.1866 77.5035 95.5684 74.2738 95.5684C71.044 95.5684 68.4258 98.1866 68.4258 101.416C68.4258 104.646 71.044 107.264 74.2738 107.264Z" fill="white"/>
<path d="M74.2719 107.587C70.8644 107.587 68.1016 104.824 68.1016 101.416C68.1016 98.0089 70.8644 95.2461 74.2719 95.2461C77.6794 95.2461 80.4422 98.0089 80.4422 101.416C80.4422 104.824 77.6794 107.587 74.2719 107.587ZM74.2719 95.8908C71.2328 95.8908 68.7462 98.3773 68.7462 101.416C68.7462 104.456 71.2328 106.942 74.2719 106.942C77.311 106.942 79.7976 104.456 79.7976 101.416C79.7976 98.3773 77.311 95.8908 74.2719 95.8908Z" fill="#D1D3D4"/>
<path d="M76.3417 96.1211L74.2695 101.417L77.9533 105.929" fill="white"/>
<path d="M77.9551 106.252C77.8631 106.252 77.771 106.206 77.7249 106.114L74.0411 101.555C73.949 101.463 73.949 101.325 73.9951 101.233L76.0672 95.9371C76.1133 95.7529 76.2974 95.7069 76.4816 95.7529C76.6658 95.799 76.7119 96.0292 76.6658 96.1674L74.6397 101.279L78.2314 105.653C78.3696 105.791 78.3235 105.975 78.1854 106.114C78.0933 106.252 78.0472 106.298 77.9551 106.252Z" fill="#D1D3D4"/>
<path d="M69.0204 104.365C68.8822 104.365 68.7901 104.319 68.7441 104.181C68.652 104.043 68.7441 103.812 68.8822 103.766L74.1316 101.142C74.2698 101.049 74.5 101.142 74.5461 101.28C74.6381 101.418 74.5461 101.648 74.4079 101.694L69.1585 104.319C69.1125 104.365 69.0664 104.365 69.0204 104.365Z" fill="#D1D3D4"/>
<path d="M99.9244 70.7022C99.8323 70.7022 99.7402 70.6562 99.6942 70.6101L90.1624 59.6509L83.2093 66.1896C83.0711 66.3277 82.8869 66.3277 82.7488 66.1896L72.5724 56.0592C72.4342 55.9211 72.4342 55.7369 72.5724 55.5987C72.7105 55.4606 72.8947 55.4606 73.0328 55.5987L83.0251 65.5449L89.9782 59.0062C90.0243 58.9602 90.1163 58.9141 90.2084 58.9141C90.3005 58.9141 90.3926 58.9602 90.4387 59.0062L100.201 70.1957C100.339 70.3338 100.293 70.518 100.201 70.6561C100.063 70.7022 100.017 70.7022 99.9244 70.7022Z" fill="#D1D3D4"/>
<path d="M57.4198 58.1314L57.1895 57.9473C56.1305 57.0263 55.9923 55.4607 56.9133 54.4016L69.9907 39.2061L74.0428 42.7056L60.9654 57.9012C60.0905 58.9142 58.4789 59.0524 57.4198 58.1314Z" fill="white"/>
<path d="M59.0828 59.053C58.3921 59.053 57.7475 58.8228 57.2409 58.3623L57.0107 58.1781C55.8135 57.1651 55.6753 55.3692 56.6884 54.172L69.7658 38.9764C69.9039 38.8383 70.0881 38.8383 70.2263 38.9304L74.2784 42.43C74.4166 42.5221 74.4166 42.7523 74.3245 42.8905L61.2471 58.086C60.7405 58.6386 60.0498 59.007 59.3131 59.053C59.221 59.053 59.1749 59.053 59.0828 59.053ZM57.4251 57.6716L57.6554 57.8558C58.5763 58.6386 59.9577 58.5465 60.7405 57.6255L73.6338 42.6602L70.0421 39.5751L57.1489 54.5404C56.3661 55.5074 56.5042 56.8888 57.4251 57.6716Z" fill="#111827"/>
<path d="M80.489 24.5099L67.6875 39.373L74.2468 45.0225L87.0483 30.1594L80.489 24.5099Z" fill="white"/>
<path d="M74.2346 45.376C74.1425 45.376 74.0965 45.33 74.0504 45.2839L67.4657 39.6201C67.3276 39.482 67.3276 39.2978 67.4197 39.1597L80.2208 24.2864C80.2668 24.2404 80.3589 24.1943 80.451 24.1943C80.5431 24.1943 80.6352 24.2404 80.6812 24.2864L87.266 29.9502C87.4041 30.0884 87.4041 30.2726 87.312 30.4107L74.5109 45.2839C74.4188 45.2839 74.3728 45.33 74.2346 45.376ZM68.1564 39.3439L74.2346 44.5932L86.6213 30.2265L80.5431 24.9771L68.1564 39.3439Z" fill="#111827"/>
<path d="M40.8021 79.1748L38.8682 77.5171C37.5788 76.412 37.4407 74.478 38.5458 73.1887L56.8266 51.9609C57.9317 50.6716 59.8657 50.5335 61.155 51.6386L63.089 53.2963C64.3783 54.4014 64.5165 56.3354 63.4113 57.6247L45.1306 78.8525C43.9794 80.1418 42.0454 80.2799 40.8021 79.1748Z" fill="white"/>
<path d="M42.7789 80.2345C41.95 80.2345 41.1672 79.9582 40.5686 79.4057L38.6346 77.748C37.2072 76.5508 37.069 74.3865 38.2663 72.9591L56.547 51.7313C57.7442 50.3039 59.9085 50.1657 61.3359 51.3629L63.2699 53.0206C64.6974 54.2179 64.8355 56.3821 63.6383 57.8095L45.3575 79.0373C44.7589 79.728 43.9301 80.1424 43.0552 80.1885L42.7789 80.2345ZM39.0491 77.2875L40.983 78.9452C42.1342 79.9122 43.838 79.7741 44.851 78.6689L63.1318 57.4872C64.0987 56.336 63.9606 54.6323 62.8555 53.6193L60.9215 51.9616C59.7703 50.9946 58.0666 51.1327 57.0535 52.2378L38.7728 73.4656C37.8058 74.5707 37.9439 76.3205 39.0491 77.2875Z" fill="#111827"/>
<path d="M87.0314 46.5735C99.747 46.5735 110.055 36.2655 110.055 23.55C110.055 10.8344 99.747 0.526367 87.0314 0.526367C74.3158 0.526367 64.0078 10.8344 64.0078 23.55C64.0078 36.2655 74.3158 46.5735 87.0314 46.5735Z" fill="white"/>
<path d="M87.0304 46.8499C74.1371 46.8499 63.7305 36.3511 63.7305 23.504C63.7305 10.6568 74.2292 0.204102 87.0764 0.204102C99.9696 0.204102 110.376 10.7029 110.376 23.55C110.376 29.1217 108.35 34.5092 104.712 38.7456C100.292 43.9489 93.7993 46.8959 87.0304 46.8499ZM87.0764 0.848759C86.5238 0.848759 85.9252 0.848762 85.3727 0.894809C72.8939 1.81575 63.5463 12.6829 64.5133 25.1617C65.4803 37.6405 76.3014 46.988 88.7801 46.021C101.259 45.1001 110.607 34.233 109.64 21.7542C108.719 9.9661 98.9105 0.848759 87.0764 0.848759Z" fill="#111827"/>
<path d="M87.0272 42.2458C97.3523 42.2458 105.722 33.8757 105.722 23.5506C105.722 13.2256 97.3523 4.85547 87.0272 4.85547C76.7021 4.85547 68.332 13.2256 68.332 23.5506C68.332 33.8757 76.7021 42.2458 87.0272 42.2458Z" fill="white"/>
<path d="M87.0292 42.5663C76.5305 42.5663 68.0117 34.0476 68.0117 23.5488C68.0117 18.9902 69.6694 14.5696 72.6164 11.1161C79.4775 3.14995 91.4958 2.27505 99.4159 9.09003C107.382 15.9511 108.257 27.9694 101.442 35.8895C97.8503 40.1258 92.5549 42.5663 87.0292 42.5663ZM87.0753 5.17602C86.6148 5.17602 86.1543 5.17602 85.6938 5.22207C80.8128 5.59044 76.3002 7.84676 73.123 11.5766C66.4922 19.2665 67.3671 30.8703 75.0569 37.5011C82.7468 44.1319 94.3507 43.257 100.982 35.5672C107.612 27.8773 106.737 16.2734 99.0475 9.6426C95.6861 6.74163 91.4497 5.17602 87.0753 5.17602Z" fill="#111827"/>
<path d="M149.794 95.0639V81.1116C147.353 78.9474 145.235 76.5069 143.531 73.7441C140.676 69.1854 130.592 52.4242 135.243 50.9047C139.893 49.3851 152.741 65.1333 152.741 65.1333L153.385 42.0176C153.385 42.0176 163.47 49.8916 166.509 58.5485C169.548 67.2054 168.305 99.6686 168.305 99.6686L149.794 95.0639Z" fill="white"/>
<path d="M168.302 99.9897C168.256 99.9897 168.256 99.9897 168.21 99.9897L149.699 95.4311C149.561 95.385 149.469 95.2469 149.469 95.1087V81.2946C147.075 79.1304 144.957 76.6899 143.253 73.9731C140.674 69.8749 132.34 56.1528 133.905 51.8704C134.089 51.2718 134.55 50.8114 135.148 50.6272C137.221 49.9825 140.858 52.1928 145.97 57.258C148.825 60.0668 151.357 63.0139 152.462 64.3032L153.107 42.0624C153.107 41.9242 153.199 41.8322 153.291 41.7861C153.383 41.7401 153.521 41.7401 153.613 41.8322C153.706 41.9242 163.79 49.8904 166.875 58.5012C169.96 67.112 168.717 98.4241 168.671 99.7134C168.671 99.8055 168.625 99.8976 168.533 99.9437C168.441 99.9437 168.349 99.9437 168.302 99.9897ZM150.114 94.8324L168.026 99.253C168.164 95.5232 169.039 66.6055 166.23 58.6394C163.652 51.3179 155.778 44.4108 153.705 42.7071L153.061 65.1781C153.061 65.3623 152.923 65.5004 152.739 65.5004C152.646 65.5004 152.554 65.4543 152.508 65.3623C148.963 61.0338 138.97 50.0286 135.333 51.2258C134.918 51.3639 134.642 51.6402 134.504 52.0546C133.353 55.2319 138.786 65.6385 143.805 73.5587C145.509 76.2754 147.581 78.7159 149.976 80.8341C150.068 80.8802 150.114 80.9722 150.114 81.0643V94.8324Z" fill="#111827"/>
<path d="M171.115 88.8936H145.328V99.9449L173.693 105.24L171.115 88.8936Z" fill="#111827"/>
<path d="M173.687 105.563H173.641L145.276 100.267C145.138 100.221 145 100.083 145 99.9449V88.8936C145 88.7094 145.138 88.5713 145.322 88.5713H171.109C171.247 88.5713 171.385 88.7094 171.431 88.8476L173.964 105.194C173.964 105.286 173.964 105.378 173.872 105.471C173.826 105.563 173.78 105.563 173.687 105.563ZM145.645 99.7147L173.273 104.872L170.832 89.262H145.645V99.7147Z" fill="#111827"/>
<path d="M174.976 97.0889L143.02 95.5693V120.849L177.509 117.258L174.976 97.0889Z" fill="#818CF8"/>
<path d="M40.2436 93.4977C41.3027 91.1493 42.4999 88.8469 43.8353 86.5906C44.7562 85.025 45.7232 83.045 47.0125 81.7556C48.3018 80.4663 50.2358 79.6375 51.7093 78.3021C57.3271 73.2369 62.9909 67.5271 64.6946 60.1135C64.9709 58.9162 64.7407 57.2125 63.5435 57.1665C63.083 57.1665 62.6686 57.3506 62.3002 57.6269C59.2611 59.607 57.0508 62.8763 54.1038 64.7182C54.8866 64.2117 55.1168 57.9493 55.5773 56.706C56.5443 54.3115 58.0178 52.0552 59.169 49.7068C59.6294 48.7398 60.0899 47.6807 59.6755 46.6677C59.3071 45.7467 58.2941 45.2402 57.281 45.2402C56.314 45.2863 55.3471 45.5165 54.4261 45.8849C50.9726 47.1742 47.5651 48.6017 44.2036 50.0752C43.0985 50.4896 42.0394 51.0882 41.0724 51.825C40.0594 52.7459 39.2305 53.8511 38.5859 55.0022C36.0072 59.1004 28.6397 73.0527 27.5345 76.23C27.1662 77.3812 22.8838 90.5046 22.2852 90.4125L40.2436 93.4977Z" fill="white"/>
<path d="M40.2417 93.819H40.1956L22.2372 90.7338C22.053 90.6877 21.9609 90.5496 21.9609 90.3654C21.9609 90.2733 22.053 90.1812 22.1451 90.1352C22.4675 89.7207 23.5726 87.0961 26.888 77.1499C27.0722 76.6433 27.1643 76.275 27.2103 76.1368C28.2694 73.0056 35.5909 59.1454 38.2617 54.863C38.9524 53.6658 39.8273 52.5607 40.8403 51.5937C41.8073 50.8569 42.9124 50.2583 44.0176 49.7978C47.379 48.3243 50.8325 46.8969 54.24 45.6075C55.161 45.1931 56.2201 44.9629 57.2331 44.9629C58.2461 45.0089 59.4894 45.5155 59.9038 46.6206C60.3183 47.7257 59.8578 48.8769 59.3973 49.8899C58.9369 50.903 58.3382 51.87 57.8317 52.7909C57.0489 54.0802 56.4043 55.4616 55.8056 56.8431C55.5754 57.9021 55.3912 58.9612 55.2991 60.0664C55.161 61.3557 54.9768 62.599 54.7466 63.8422C55.8977 62.9673 56.9568 62.0003 57.9238 60.9413C59.1671 59.6059 60.5485 58.4087 62.022 57.3956C62.4364 57.0733 62.943 56.8891 63.4495 56.8891C63.8639 56.8891 64.2783 57.1193 64.5546 57.4877C65.1072 58.1784 65.1072 59.3757 64.923 60.2506C63.2192 67.8023 57.2331 73.6963 51.8456 78.6234C51.1088 79.222 50.3721 79.7746 49.5432 80.2811C48.7144 80.7876 47.8855 81.3862 47.1948 82.0309C46.2278 82.9979 45.399 84.4714 44.6622 85.7607C44.478 86.1291 44.2938 86.4514 44.1096 86.7737C42.8203 88.984 41.6231 91.2864 40.564 93.6348C40.4719 93.7729 40.3798 93.819 40.2417 93.819ZM22.8358 90.1812L40.0575 93.1282C41.1166 90.8259 42.2678 88.6156 43.5571 86.4053C43.7413 86.083 43.9255 85.7607 44.1096 85.3923C44.8464 84.0569 45.7213 82.5374 46.7804 81.4783C47.5632 80.7876 48.392 80.1429 49.2669 79.6364C50.0497 79.1759 50.7865 78.6234 51.4772 78.0248C56.8187 73.1898 62.6667 67.3879 64.3704 60.0203C64.5546 59.3296 64.5086 58.3166 64.0941 57.764C63.956 57.5798 63.7258 57.4417 63.4955 57.4417C63.1271 57.4877 62.7588 57.6259 62.4364 57.8561C61.009 58.8691 59.6736 60.0203 58.4303 61.3096C57.1871 62.645 55.7596 63.8883 54.24 64.9013C54.1019 64.9934 53.8717 64.9474 53.7796 64.8092C53.6875 64.6711 53.7335 64.4408 53.8717 64.3488C54.24 64.0725 54.5163 61.4478 54.7005 59.8822C54.7926 58.731 54.9768 57.6259 55.2531 56.5207C55.8517 55.0933 56.5424 53.7119 57.3252 52.3765C57.8317 51.4095 58.3843 50.4425 58.8448 49.4755C59.3052 48.5085 59.6736 47.5415 59.3513 46.7127C59.0289 45.8838 58.062 45.5155 57.2792 45.4694C56.3582 45.5155 55.3912 45.6996 54.5624 46.1141C51.1549 47.4034 47.7013 48.8309 44.3399 50.3044C43.2347 50.7188 42.2217 51.3174 41.3008 52.0081C40.3338 52.9291 39.5049 53.9881 38.8603 55.1393C36.1895 59.3757 28.9141 73.1898 27.855 76.275L27.5326 77.288C24.6317 86.037 23.4344 89.1221 22.8358 90.1812Z" fill="#111827"/>
<path d="M44.2951 91.0571L19.6599 83.3672L15.5156 94.2804L40.6114 100.865L44.2951 91.0571Z" fill="#111827"/>
<path d="M40.6136 101.188C40.5675 101.188 40.5675 101.188 40.5215 101.188L15.4258 94.6032C15.3337 94.5571 15.2416 94.5111 15.2416 94.419C15.1955 94.3269 15.1955 94.2348 15.2416 94.1427L19.3858 83.1835C19.4319 83.0453 19.6161 82.9532 19.8002 82.9993L44.4355 90.7352C44.5276 90.7813 44.5736 90.8273 44.6197 90.9194C44.6657 91.0115 44.6657 91.1036 44.6197 91.1496L40.982 100.912C40.8899 101.096 40.7517 101.188 40.6136 101.188ZM15.9323 94.0506L40.3833 100.451L43.8369 91.2878L19.8463 83.736L15.9323 94.0506Z" fill="#111827"/>
<path d="M43.422 99.5293L13.0308 90.458L2.57812 113.067L37.0675 123.796L43.422 99.5293Z" fill="#818CF8"/>
<path d="M39.7346 92.9454C39.6425 92.6691 39.5043 92.3929 39.2741 92.2087L38.9057 91.9324C38.6294 91.7942 38.3531 91.7021 38.0308 91.7021H37.7545C36.8336 91.7482 36.0968 92.485 36.0508 93.4059L36.0968 93.8664C36.1889 94.1427 36.3271 94.4189 36.5113 94.6031L36.8796 94.8794C37.1559 95.0175 37.4322 95.1096 37.7545 95.1096H38.0308C38.261 95.1096 38.4913 95.0636 38.6755 94.9715C38.9057 94.9255 39.0899 94.7873 39.228 94.6031C39.4122 94.465 39.5043 94.2808 39.5964 94.0506C39.6885 93.8664 39.7346 93.6361 39.7346 93.4059C39.7806 93.2678 39.7346 93.0836 39.7346 92.9454Z" fill="white"/>
<path d="M150.208 90.2734C147.998 90.2734 147.998 93.6809 150.208 93.6809C152.419 93.6809 152.373 90.2734 150.208 90.2734Z" fill="white"/>
<path d="M79.3841 22.6303H73.2598C73.1677 22.6303 73.0756 22.5842 73.0296 22.5382C72.9835 22.4921 72.9375 22.4 72.9375 22.3079C73.1217 19.1307 74.365 16.1376 76.4831 13.7892C76.8976 13.3287 77.358 12.8683 77.8185 12.4538C80.1669 10.3357 83.206 9.09239 86.3372 8.9082C86.5214 8.9082 86.6596 9.04635 86.6596 9.18449C86.6596 9.18449 86.6596 9.18448 86.6596 9.23053V15.3548C86.6596 15.539 86.5214 15.6311 86.3833 15.6771C84.9558 15.8613 83.6665 16.4139 82.5153 17.2888C82.0548 17.6572 81.6404 18.0716 81.272 18.5321C80.3972 19.6372 79.8446 20.9726 79.6604 22.4C79.7064 22.5382 79.5683 22.6303 79.3841 22.6303ZM73.6282 21.9856H79.1078C79.3381 20.5581 79.8906 19.2228 80.8116 18.1176C81.226 17.6111 81.6404 17.1507 82.1469 16.7823C83.2521 15.9074 84.6335 15.3088 86.0149 15.0785V9.59891C83.1139 9.82915 80.3971 11.0264 78.2329 12.9604C77.7725 13.3287 77.358 13.7892 76.9897 14.2036C75.0557 16.3678 73.8584 19.0846 73.6282 21.9856Z" fill="#D1D3D4"/>
<path d="M101.258 22.3072C101.074 19.222 99.831 16.275 97.8049 13.9727L93.4764 18.3011C94.3974 19.4523 94.95 20.8337 95.1342 22.3072C95.1802 22.6295 95.1802 22.9058 95.1802 23.2281C95.1802 23.5505 95.1802 23.8268 95.1342 24.1491C94.95 25.6226 94.3974 27.004 93.4764 28.1552C93.1081 28.6157 92.6476 29.0761 92.1871 29.4445C91.0359 30.3655 89.6545 30.9641 88.181 31.1022C87.8587 31.1483 87.5824 31.1483 87.2601 31.1483C86.9377 31.1483 86.6615 31.1483 86.3391 31.1022C84.8656 30.918 83.4842 30.3655 82.333 29.4445C80.6753 28.1552 79.6162 26.2212 79.386 24.1491H73.2617C73.4459 27.2342 74.6892 30.1813 76.7153 32.4836C77.1297 32.9441 77.5441 33.3585 78.0046 33.7729C80.3069 35.799 83.254 37.0423 86.3391 37.2265C86.6615 37.2265 86.9377 37.2725 87.2601 37.2725C87.5824 37.2725 87.8587 37.2725 88.181 37.2265C91.2662 37.0423 94.2132 35.799 96.5156 33.7729C96.976 33.3585 97.3905 32.9441 97.8049 32.4836C99.831 30.1813 101.074 27.2342 101.258 24.1491C101.258 23.8268 101.304 23.5505 101.304 23.2281C101.304 22.9058 101.304 22.6295 101.258 22.3072Z" fill="#818CF8"/>
<path d="M92.18 17.3348C92.0879 17.3348 92.0419 17.2888 91.9958 17.2888C90.8907 16.4139 89.5553 15.8613 88.1278 15.6771C87.9437 15.6771 87.8516 15.539 87.8516 15.3548V9.23053C87.8516 9.04634 87.9897 8.9082 88.1739 8.9082C91.3512 9.09239 94.3442 10.3357 96.6926 12.4538C96.8308 12.592 96.8308 12.7762 96.6926 12.9143L92.3642 17.2427C92.3642 17.2888 92.2721 17.3348 92.18 17.3348ZM88.4962 15.0785C89.8316 15.2627 91.0749 15.8153 92.134 16.5981L96.0019 12.7301C93.8838 10.9343 91.2591 9.82915 88.4502 9.59891V15.0785H88.4962Z" fill="#D1D3D4"/>
</svg>
