<svg width="250" height="250" viewBox="0 0 250 250" fill="none" xmlns="http://www.w3.org/2000/svg">
<rect width="250" height="250" rx="6" fill="#EEF2FF"/>
<g clip-path="url(#clip0_26173_50313)">
<path d="M165.379 41.3613H37.6895C32.5916 41.3613 28.459 45.4518 28.459 50.4977V132.725C28.459 137.771 32.5916 141.861 37.6895 141.861H165.379C170.477 141.861 174.609 137.771 174.609 132.725V50.4977C174.609 45.4518 170.477 41.3613 165.379 41.3613Z" fill="black"/>
<path d="M165.381 41.3613H37.6915C32.5936 41.3613 28.4609 45.4518 28.4609 50.4977V132.725C28.4609 137.771 32.5936 141.861 37.6915 141.861H165.381C170.479 141.861 174.611 137.771 174.611 132.725V50.4977C174.611 45.4518 170.479 41.3613 165.381 41.3613Z" fill="white"/>
<path d="M28.6836 58.0332L174.277 58.0332" stroke="#C8BBFF"/>
<path d="M39.4732 52.3167C40.8165 52.3167 41.9054 51.2389 41.9054 49.9093C41.9054 48.5798 40.8165 47.502 39.4732 47.502C38.1299 47.502 37.041 48.5798 37.041 49.9093C37.041 51.2389 38.1299 52.3167 39.4732 52.3167Z" fill="#C8BBFF"/>
<path d="M47.7173 52.3167C49.0606 52.3167 50.1495 51.2389 50.1495 49.9093C50.1495 48.5798 49.0606 47.502 47.7173 47.502C46.3741 47.502 45.2852 48.5798 45.2852 49.9093C45.2852 51.2389 46.3741 52.3167 47.7173 52.3167Z" fill="#C8BBFF"/>
<path d="M55.9634 52.3167C57.3067 52.3167 58.3956 51.2389 58.3956 49.9093C58.3956 48.5798 57.3067 47.502 55.9634 47.502C54.6202 47.502 53.5312 48.5798 53.5312 49.9093C53.5312 51.2389 54.6202 52.3167 55.9634 52.3167Z" fill="#C8BBFF"/>
<path d="M163.54 68.8613H40.3757C38.6764 68.8613 37.2988 70.2248 37.2988 71.9068V106.4C37.2988 108.082 38.6764 109.446 40.3757 109.446H163.54C165.239 109.446 166.617 108.082 166.617 106.4V71.9068C166.617 70.2248 165.239 68.8613 163.54 68.8613Z" fill="#ECE7FF"/>
<path d="M82.6133 118.35H40.3757C38.6764 118.35 37.2988 119.713 37.2988 121.395V127.492C37.2988 129.174 38.6764 130.537 40.3757 130.537H82.6133C84.3126 130.537 85.6902 129.174 85.6902 127.492V121.395C85.6902 119.713 84.3126 118.35 82.6133 118.35Z" fill="#ECE7FF"/>
<path d="M163.54 118.35H92.6765C90.9772 118.35 89.5996 119.713 89.5996 121.395V127.492C89.5996 129.174 90.9772 130.537 92.6765 130.537H163.54C165.239 130.537 166.617 129.174 166.617 127.492V121.395C166.617 119.713 165.239 118.35 163.54 118.35Z" fill="#ECE7FF"/>
<path d="M92.429 94.3333C91.349 94.3333 90.394 94.1033 89.564 93.6433C88.734 93.1733 88.084 92.5333 87.614 91.7233C87.144 90.9033 86.909 89.9683 86.909 88.9183C86.909 87.8583 87.144 86.9233 87.614 86.1133C88.084 85.2933 88.729 84.6533 89.549 84.1933C90.379 83.7233 91.329 83.4883 92.399 83.4883C93.469 83.4883 94.414 83.7233 95.234 84.1933C96.064 84.6533 96.714 85.2933 97.184 86.1133C97.654 86.9233 97.889 87.8583 97.889 88.9183C97.889 89.9683 97.654 90.9033 97.184 91.7233C96.724 92.5333 96.084 93.1733 95.264 93.6433C94.444 94.1033 93.499 94.3333 92.429 94.3333ZM92.429 92.1133C93.019 92.1133 93.539 91.9783 93.989 91.7083C94.439 91.4383 94.789 91.0633 95.039 90.5833C95.289 90.0933 95.414 89.5383 95.414 88.9183C95.414 88.2883 95.284 87.7333 95.024 87.2533C94.764 86.7633 94.409 86.3833 93.959 86.1133C93.509 85.8333 92.989 85.6933 92.399 85.6933C91.809 85.6933 91.289 85.8333 90.839 86.1133C90.389 86.3833 90.034 86.7633 89.774 87.2533C89.514 87.7333 89.384 88.2883 89.384 88.9183C89.384 89.5383 89.514 90.0933 89.774 90.5833C90.034 91.0633 90.394 91.4383 90.854 91.7083C91.314 91.9783 91.839 92.1133 92.429 92.1133ZM99.3589 94.1533V83.6533H101.774V91.9333H106.244V94.1533H99.3589ZM107.533 94.1533V83.6533H110.968C112.078 83.6533 113.058 83.8783 113.908 84.3283C114.768 84.7783 115.438 85.3983 115.918 86.1883C116.398 86.9683 116.638 87.8733 116.638 88.9033C116.638 89.9233 116.398 90.8283 115.918 91.6183C115.438 92.4083 114.768 93.0283 113.908 93.4783C113.058 93.9283 112.078 94.1533 110.968 94.1533H107.533ZM109.948 91.8733H110.968C111.428 91.8733 111.853 91.8033 112.243 91.6633C112.633 91.5133 112.973 91.3083 113.263 91.0483C113.553 90.7783 113.778 90.4633 113.938 90.1033C114.098 89.7333 114.178 89.3333 114.178 88.9033C114.178 88.4733 114.098 88.0783 113.938 87.7183C113.778 87.3483 113.553 87.0333 113.263 86.7733C112.973 86.5033 112.633 86.2983 112.243 86.1583C111.853 86.0083 111.428 85.9333 110.968 85.9333H109.948V91.8733Z" fill="#A69FFF"/>
<path d="M164.427 41.3613H38.6435C33.2032 41.3613 28.793 45.7266 28.793 51.1113V132.111C28.793 137.496 33.2032 141.861 38.6435 141.861H164.427C169.867 141.861 174.278 137.496 174.278 132.111V51.1113C174.278 45.7266 169.867 41.3613 164.427 41.3613Z" stroke="#C8BBFF" stroke-linecap="round"/>
</g>
<g clip-path="url(#clip1_26173_50313)">
<path d="M212.309 108.139H84.6192C79.5213 108.139 75.3887 112.229 75.3887 117.275V199.502C75.3887 204.548 79.5213 208.639 84.6192 208.639H212.309C217.406 208.639 221.539 204.548 221.539 199.502V117.275C221.539 112.229 217.406 108.139 212.309 108.139Z" fill="black"/>
<path d="M212.31 108.139H84.6212C79.5233 108.139 75.3906 112.229 75.3906 117.275V199.502C75.3906 204.548 79.5233 208.639 84.6212 208.639H212.31C217.408 208.639 221.541 204.548 221.541 199.502V117.275C221.541 112.229 217.408 108.139 212.31 108.139Z" fill="white"/>
<path d="M75.6133 124.811L221.207 124.811" stroke="#8278FF"/>
<path d="M86.4029 119.094C87.7462 119.094 88.8351 118.016 88.8351 116.687C88.8351 115.357 87.7462 114.279 86.4029 114.279C85.0596 114.279 83.9707 115.357 83.9707 116.687C83.9707 118.016 85.0596 119.094 86.4029 119.094Z" fill="#8278FF"/>
<path d="M94.647 119.094C95.9903 119.094 97.0792 118.016 97.0792 116.687C97.0792 115.357 95.9903 114.279 94.647 114.279C93.3038 114.279 92.2148 115.357 92.2148 116.687C92.2148 118.016 93.3038 119.094 94.647 119.094Z" fill="#8278FF"/>
<path d="M102.893 119.094C104.236 119.094 105.325 118.016 105.325 116.687C105.325 115.357 104.236 114.279 102.893 114.279C101.55 114.279 100.461 115.357 100.461 116.687C100.461 118.016 101.55 119.094 102.893 119.094Z" fill="#8278FF"/>
<path d="M210.47 135.639H87.3054C85.6061 135.639 84.2285 137.002 84.2285 138.684V173.177C84.2285 174.859 85.6061 176.223 87.3054 176.223H210.47C212.169 176.223 213.546 174.859 213.546 173.177V138.684C213.546 137.002 212.169 135.639 210.47 135.639Z" fill="#BAB5FF"/>
<path d="M129.543 185.127H87.3054C85.6061 185.127 84.2285 186.49 84.2285 188.172V194.269C84.2285 195.951 85.6061 197.315 87.3054 197.315H129.543C131.242 197.315 132.62 195.951 132.62 194.269V188.172C132.62 186.49 131.242 185.127 129.543 185.127Z" fill="#BAB5FF"/>
<path d="M210.47 185.127H139.606C137.907 185.127 136.529 186.49 136.529 188.172V194.269C136.529 195.951 137.907 197.315 139.606 197.315H210.47C212.169 197.315 213.547 195.951 213.547 194.269V188.172C213.547 186.49 212.169 185.127 210.47 185.127Z" fill="#BAB5FF"/>
<path d="M211.357 108.139H85.5732C80.1329 108.139 75.7227 112.504 75.7227 117.889V198.889C75.7227 204.273 80.1329 208.639 85.5732 208.639H211.357C216.797 208.639 221.207 204.273 221.207 198.889V117.889C221.207 112.504 216.797 108.139 211.357 108.139Z" stroke="#8278FF" stroke-linecap="round"/>
<path d="M133.985 161.278V150.778H136.52L141.125 157.183V150.778H143.54V161.278H141.125L136.4 154.693V161.278H133.985ZM145.586 161.278V150.778H152.426V152.998H148.001V154.918H151.706V157.063H148.001V159.058H152.501V161.278H145.586ZM162.835 161.278L165.745 150.778H168.205L165.13 161.278H162.835ZM156.55 161.278L153.49 150.778H155.95L158.845 161.278H156.55ZM156.88 161.278L159.64 150.778H161.8L159.055 161.278H156.88ZM162.61 161.278L159.88 150.778H162.04L164.905 161.278H162.61Z" fill="white"/>
</g>
<path d="M200.418 88.803H205.685L197.194 97L188.705 88.803H194.034C193.281 79.1436 188.07 71.3398 181.314 69.4426C182.346 69.1531 183.414 69 184.505 69C192.758 69 199.551 77.6677 200.418 88.803Z" fill="#BAB5FF"/>
<defs>
<clipPath id="clip0_26173_50313">
<rect width="147" height="102" fill="white" transform="translate(28.0352 40.6113)"/>
</clipPath>
<clipPath id="clip1_26173_50313">
<rect width="147" height="102" fill="white" transform="translate(74.9648 107.389)"/>
</clipPath>
</defs>
</svg>
