<svg width="392" height="208" viewBox="0 0 392 208" fill="none" xmlns="http://www.w3.org/2000/svg">
<rect width="392" height="207.827" rx="6" fill="#EEF2FF"/>
<path d="M204.21 91.5249H97.4047C95.479 91.5249 93.918 93.086 93.918 95.0116V188.786C93.918 190.712 95.479 192.273 97.4047 192.273H204.21C206.136 192.273 207.697 190.712 207.697 188.786V95.0116C207.697 93.086 206.136 91.5249 204.21 91.5249Z" fill="white"/>
<path d="M204.209 192.684H97.4031C95.2489 192.684 93.5 190.935 93.5 188.781V95.0057C93.5 92.8515 95.2489 91.1025 97.4031 91.1025H204.214C206.369 91.1025 208.117 92.8515 208.117 95.0057V188.781C208.117 190.935 206.369 192.684 204.214 192.684H204.209ZM97.4031 91.9409C95.7097 91.9409 94.3328 93.3178 94.3328 95.0112V188.786C94.3328 190.479 95.7097 191.856 97.4031 191.856H204.214C205.908 191.856 207.285 190.479 207.285 188.786V95.0112C207.285 93.3178 205.908 91.9409 204.214 91.9409H97.4031Z" fill="#1F1C1D"/>
<path d="M259.037 45.8477H97.4047C95.479 45.8477 93.918 47.4087 93.918 49.3344V77.2892C93.918 79.2148 95.479 80.7759 97.4047 80.7759H259.037C260.963 80.7759 262.524 79.2148 262.524 77.2892V49.3344C262.524 47.4087 260.963 45.8477 259.037 45.8477Z" fill="#9188FF"/>
<path d="M250.368 52.7378H140.131C138.206 52.7378 136.645 54.2988 136.645 56.2245V70.3935C136.645 72.3191 138.206 73.8802 140.131 73.8802H250.368C252.294 73.8802 253.855 72.3191 253.855 70.3935V56.2245C253.855 54.2988 252.294 52.7378 250.368 52.7378Z" fill="white"/>
<path d="M128.591 75.9453L121.973 69.4327C123.705 67.5506 124.771 65.0577 124.771 62.3205C124.771 56.4575 119.941 51.7104 113.989 51.7104C108.037 51.7104 103.207 56.463 103.207 62.3205C103.207 68.178 108.032 72.9306 113.989 72.9306C116.56 72.9306 118.925 72.0422 120.774 70.5598L127.414 77.0946C127.736 77.4111 128.264 77.4111 128.586 77.0946C128.908 76.7782 128.908 76.2563 128.586 75.9398L128.591 75.9453ZM113.984 71.2982C108.942 71.2982 104.862 67.2785 104.862 62.3205C104.862 57.3625 108.948 53.3428 113.984 53.3428C119.019 53.3428 123.106 57.3625 123.106 62.3205C123.106 67.2785 119.019 71.2982 113.984 71.2982Z" fill="white"/>
<path d="M190.661 108.292C190.661 108.292 198.689 155.541 204.13 162.525C209.105 168.905 220.387 156.351 220.387 156.351L191.522 95.6113L185.287 99.6755C184.359 100.281 184.209 101.58 184.976 102.379L190.661 108.292Z" fill="white"/>
<path d="M207.784 164.746C207.717 164.746 207.645 164.746 207.578 164.746C206.046 164.69 204.774 164.03 203.803 162.78C198.445 155.907 190.827 111.746 190.272 108.487L184.676 102.668C184.226 102.196 184.004 101.558 184.082 100.908C184.154 100.258 184.509 99.6809 185.059 99.3256L191.294 95.2614C191.394 95.1948 191.521 95.1782 191.633 95.2115C191.749 95.2448 191.844 95.3225 191.893 95.4336L220.759 156.173C220.831 156.323 220.803 156.507 220.692 156.629C220.392 156.962 213.33 164.746 207.778 164.746H207.784ZM191.349 96.222L185.514 100.025C185.175 100.247 184.959 100.603 184.909 101.002C184.865 101.402 184.998 101.802 185.275 102.091L190.961 108.004C191.016 108.065 191.055 108.142 191.072 108.22C191.149 108.692 199.145 155.446 204.458 162.264C205.285 163.325 206.318 163.863 207.606 163.908C207.667 163.908 207.722 163.908 207.784 163.908C212.486 163.908 218.732 157.5 219.887 156.268L191.349 96.2109V96.222Z" fill="#1F1C1D"/>
<path d="M195.279 91.8913L187.359 96.2485L223.978 162.803L231.898 158.446L195.279 91.8913Z" fill="white"/>
<path d="M223.985 163.202C223.946 163.202 223.908 163.202 223.869 163.186C223.763 163.152 223.674 163.086 223.619 162.986L186.997 96.4328C186.886 96.2329 186.958 95.9775 187.164 95.8665L195.087 91.5081C195.181 91.4526 195.298 91.4415 195.403 91.4748C195.509 91.5081 195.597 91.5747 195.653 91.6747L232.275 158.228C232.386 158.428 232.313 158.683 232.108 158.794L224.185 163.152C224.124 163.186 224.052 163.202 223.985 163.202ZM187.93 96.3995L224.152 162.225L231.342 158.267L195.12 92.4409L187.93 96.3995Z" fill="#1F1C1D"/>
<path d="M211.075 32.4893C204.995 21.4296 194.963 13.4068 182.842 9.89231C170.717 6.37783 157.958 7.78806 146.898 13.8787C135.838 19.9583 127.816 29.9853 124.301 42.1111C120.787 54.2369 122.202 66.9956 128.287 78.0554C134.367 89.1151 144.405 97.1379 156.52 100.652C168.635 104.167 181.404 102.746 192.464 96.666C203.518 90.5864 211.547 80.5538 215.061 68.4336C218.581 56.3078 217.165 43.5491 211.075 32.4893ZM206.428 65.9296C203.579 75.7457 197.078 83.8629 188.128 88.7931C179.178 93.7178 168.84 94.8671 159.024 92.0189C149.202 89.1707 141.091 82.6692 136.16 73.7192C131.236 64.7692 130.086 54.4312 132.935 44.6151C135.783 34.7934 142.284 26.6818 151.234 21.7516C157.064 18.5425 163.388 17.0156 169.612 17.0156C183.126 17.0156 196.24 24.1778 203.202 36.8255C208.121 45.7755 209.276 56.1079 206.428 65.9296Z" fill="white" stroke="#1F1C1D" stroke-width="1.5" stroke-linecap="round" stroke-linejoin="round"/>
<path d="M146.367 29.6578C146.25 29.6578 146.139 29.6134 146.056 29.519C145.901 29.3469 145.917 29.0859 146.089 28.9305C148.077 27.1593 150.281 25.5992 152.641 24.3C152.841 24.189 153.096 24.2611 153.207 24.4666C153.318 24.6664 153.246 24.9218 153.041 25.0329C150.737 26.3043 148.582 27.82 146.645 29.5523C146.567 29.6245 146.467 29.6578 146.367 29.6578Z" fill="white"/>
<path d="M154.067 86.9441C154.006 86.9441 153.939 86.9275 153.884 86.8997C147.454 83.7073 142.213 78.6604 138.715 72.3088C134.163 64.0362 133.108 54.4866 135.734 45.42C136.9 41.4058 138.721 37.6859 141.153 34.3602C141.292 34.177 141.547 34.1326 141.736 34.2714C141.919 34.4102 141.963 34.6656 141.825 34.8544C139.448 38.1024 137.666 41.7334 136.533 45.6532C133.963 54.5088 134.995 63.8308 139.443 71.9091C142.857 78.1107 147.976 83.0355 154.25 86.1557C154.456 86.2557 154.539 86.5055 154.439 86.7165C154.367 86.8608 154.217 86.9497 154.067 86.9497V86.9441Z" fill="#1F1C1D"/>
<path d="M265.523 75.8793C262.741 75.6128 248.039 69.3389 246.229 79.4992C245.524 83.4634 244.486 87.3832 247.334 90.4313C248.806 92.0026 250.549 93.2962 252.281 94.5732C253.508 95.4782 254.73 96.3832 255.957 97.2937C259.71 100.07 265.023 102.829 269.904 101.397C276.2 99.559 278.587 87.9329 274.567 83.4468C275.95 77.7337 268.316 76.1402 265.528 75.8793H265.523Z" fill="#1F1C1D"/>
<path d="M283.643 117.176C277.519 112.084 265.227 111.579 251.302 111.046C251.302 111.046 242.613 110.885 235.956 112.723C223.808 116.748 215.086 134.437 215.086 134.437L221.898 146.513L226.668 144.603C226.668 144.603 223.858 166.806 221.632 195.804C221.632 195.804 247.122 201.54 286.958 199.313C286.958 199.313 287.147 119.424 283.638 117.176H283.643Z" fill="#9188FF"/>
<path d="M198.093 102.707L194.872 104.479C191.068 106.572 189.681 111.352 191.774 115.157L218.472 163.679C220.565 167.483 225.345 168.87 229.15 166.777L232.37 165.005C236.174 162.912 237.561 158.132 235.468 154.327L208.77 105.805C206.677 102.001 201.897 100.614 198.093 102.707Z" fill="#1F1C1D"/>
<path d="M225.378 168.149C222.452 168.149 219.615 166.6 218.11 163.863L191.41 115.343C189.212 111.346 190.672 106.299 194.675 104.1L197.895 102.329C201.893 100.13 206.939 101.591 209.138 105.594L235.838 154.113C238.037 158.111 236.576 163.158 232.579 165.356L229.359 167.128C228.098 167.822 226.733 168.149 225.383 168.149H225.378ZM201.87 102.14C200.66 102.14 199.427 102.435 198.295 103.062L195.075 104.833C191.477 106.815 190.161 111.351 192.143 114.943L218.843 163.463C220.82 167.061 225.356 168.377 228.953 166.395L232.174 164.624C235.771 162.642 237.087 158.105 235.105 154.513L208.405 105.993C207.05 103.534 204.496 102.14 201.87 102.14Z" fill="#1F1C1D"/>
<path d="M246.48 119.652L246.797 151.088L246.975 168.138L253.36 150.794L265.047 119.052L246.48 119.652Z" fill="white"/>
<path d="M246.975 168.555C246.975 168.555 246.931 168.555 246.903 168.549C246.703 168.516 246.559 168.344 246.559 168.144L246.07 119.657C246.07 119.43 246.248 119.246 246.476 119.235L265.042 118.636C265.203 118.636 265.314 118.697 265.392 118.808C265.475 118.919 265.492 119.063 265.447 119.197L247.375 168.283C247.314 168.449 247.159 168.555 246.986 168.555H246.975ZM246.903 120.052L247.364 165.862L264.437 119.485L246.898 120.052H246.903Z" fill="#1F1C1D"/>
<path d="M246.797 151.088L246.975 168.138L253.359 150.793L253.387 130.861L255.336 128.43L252.888 124.688L249.479 128.174L251.733 130.761L246.797 151.088Z" fill="#1F1C1D"/>
<path d="M246.975 168.555C246.975 168.555 246.931 168.555 246.903 168.549C246.703 168.516 246.559 168.344 246.559 168.144L246.387 151.093C246.387 151.06 246.387 151.027 246.398 150.993L251.278 130.873L249.168 128.452C249.024 128.291 249.035 128.041 249.185 127.885L252.588 124.399C252.677 124.31 252.799 124.26 252.927 124.277C253.055 124.288 253.166 124.354 253.232 124.46L255.681 128.196C255.781 128.346 255.77 128.546 255.659 128.685L253.804 131.006L253.777 150.788C253.777 150.838 253.765 150.888 253.749 150.932L247.364 168.277C247.303 168.444 247.147 168.549 246.975 168.549V168.555ZM247.22 151.138L247.369 165.867L252.949 150.721L252.977 130.867C252.977 130.773 253.01 130.684 253.066 130.606L254.826 128.407L252.827 125.354L250.051 128.191L252.05 130.484C252.139 130.584 252.172 130.723 252.139 130.856L247.22 151.132V151.138Z" fill="#1F1C1D"/>
<path d="M247.926 108.287L246.488 119.646C246.488 119.646 247.582 125.67 254.628 125.137C261.668 124.604 265.055 119.046 265.055 119.046L268.086 99.914C268.086 99.914 263.494 96.4161 266.748 85.745C266.748 85.745 258.614 88.249 248.743 85.3286C248.743 85.3286 244.706 97.5599 244.673 102.945C244.351 107.459 247.926 108.287 247.926 108.287Z" fill="white"/>
<path d="M253.762 125.593C247.216 125.593 246.084 119.785 246.073 119.724C246.067 119.68 246.061 119.641 246.073 119.596L247.472 108.575C246.506 108.198 243.985 106.843 244.268 102.923C244.301 97.56 248.188 85.7063 248.354 85.2066C248.427 84.9956 248.649 84.8735 248.865 84.9401C258.498 87.7883 266.549 85.3787 266.626 85.3565C266.771 85.3121 266.932 85.351 267.043 85.462C267.154 85.573 267.193 85.7285 267.148 85.8784C265.516 91.2362 265.932 94.6896 266.571 96.6384C267.254 98.7315 268.331 99.5865 268.342 99.5921C268.464 99.6865 268.525 99.8364 268.497 99.9863L265.466 119.119C265.455 119.174 265.438 119.224 265.411 119.269C265.266 119.502 261.829 125.015 254.656 125.559C254.345 125.581 254.051 125.593 253.762 125.593ZM246.905 119.635C247.044 120.274 248.31 125.215 254.595 124.726C260.936 124.243 264.25 119.513 264.655 118.897L267.637 100.081C266.776 99.2701 263.562 95.5002 266.138 86.3392C263.939 86.8556 257.032 88.1159 249.01 85.8506C248.332 87.9604 245.118 98.2318 245.084 102.957C244.807 106.86 247.544 107.759 247.966 107.876C248.049 107.887 248.127 107.92 248.193 107.981C248.316 108.098 248.36 108.264 248.316 108.42L246.894 119.641L246.905 119.635Z" fill="#1F1C1D"/>
<path d="M264.16 98.9371C265.426 95.7835 271.383 94.4232 272.344 98.4652C272.782 102.918 267.613 106.732 263.699 104.028" fill="white"/>
<path d="M266.547 105.35C265.464 105.35 264.404 105.022 263.466 104.378C263.277 104.245 263.227 103.989 263.36 103.801C263.488 103.612 263.749 103.562 263.938 103.695C265.475 104.761 267.408 104.794 269.107 103.789C271.016 102.662 272.121 100.608 271.933 98.5427C271.505 96.8105 270.117 96.4496 269.323 96.3941C267.363 96.2441 265.192 97.4878 264.548 99.0979C264.465 99.3089 264.221 99.4144 264.004 99.3311C263.793 99.2478 263.688 99.0035 263.771 98.787C264.554 96.8382 267.058 95.3891 269.379 95.5612C271.122 95.6889 272.349 96.7161 272.743 98.3761C272.743 98.3928 272.749 98.415 272.754 98.4317C272.993 100.83 271.727 103.212 269.529 104.506C268.574 105.072 267.546 105.35 266.541 105.35H266.547Z" fill="#1F1C1D"/>
<path d="M246.977 114.76C246.977 114.76 250.796 114.749 254.25 112.356C257.703 109.969 257.714 108.253 257.714 108.253C257.714 108.253 252.468 110.108 248.176 108.498L246.977 114.76Z" fill="#1F1C1D"/>
<path d="M246.975 115.177C246.864 115.177 246.758 115.132 246.681 115.055C246.603 114.977 246.559 114.871 246.559 114.76C246.559 114.727 246.559 114.705 246.564 114.677L247.763 108.414C247.786 108.292 247.863 108.187 247.969 108.131C248.074 108.07 248.202 108.059 248.319 108.103C252.416 109.641 257.524 107.876 257.574 107.859C257.702 107.815 257.846 107.837 257.951 107.915C258.063 107.992 258.129 108.12 258.129 108.259C258.129 108.459 258.013 110.263 254.487 112.706C250.967 115.149 247.142 115.188 246.981 115.188L246.975 115.177ZM248.491 109.042L247.48 114.316C248.613 114.216 251.433 113.8 254.009 112.012C255.986 110.641 256.774 109.53 257.091 108.875C255.525 109.314 251.833 110.102 248.491 109.042Z" fill="#1F1C1D"/>
<path d="M253.703 92.313C253.703 92.313 250.805 97.804 251.46 98.8811C252.115 99.9638 254.586 99.825 254.586 99.825" fill="white"/>
<path d="M254.265 100.253C253.493 100.253 251.722 100.136 251.1 99.0978C250.384 97.9096 252.627 93.4568 253.332 92.1188C253.438 91.9133 253.693 91.8356 253.893 91.9467C254.098 92.0522 254.176 92.3076 254.065 92.5074C252.721 95.0558 251.489 98.1428 251.805 98.6647C252.233 99.3754 253.976 99.442 254.548 99.4087C254.77 99.3865 254.976 99.5697 254.987 99.8029C254.998 100.031 254.826 100.23 254.593 100.241C254.543 100.241 254.42 100.247 254.254 100.247L254.265 100.253Z" fill="#1F1C1D"/>
<path d="M260.596 93.8137C260.673 93.1281 260.34 92.528 259.852 92.4734C259.365 92.4188 258.907 92.9303 258.83 93.616C258.754 94.3016 259.087 94.9017 259.574 94.9563C260.062 95.0109 260.519 94.4993 260.596 93.8137Z" fill="#1F1C1D"/>
<path d="M252.253 92.4585C252.528 91.8259 252.387 91.1543 251.937 90.9585C251.487 90.7626 250.899 91.1166 250.624 91.7492C250.348 92.3817 250.49 93.0533 250.939 93.2492C251.389 93.445 251.977 93.091 252.253 92.4585Z" fill="#1F1C1D"/>
<path d="M257.103 104.478C257.103 104.478 257.064 104.478 257.048 104.478L250.563 103.617C250.335 103.59 250.174 103.379 250.207 103.151C250.241 102.923 250.446 102.757 250.674 102.796L257.159 103.656C257.386 103.684 257.547 103.895 257.514 104.123C257.486 104.334 257.309 104.484 257.103 104.484V104.478Z" fill="#1F1C1D"/>
<path d="M270.763 124.931L263.195 150.16L288.374 159.077L296.358 132.399C297.48 126.242 283.705 116.836 280.013 115.382" fill="#9188FF"/>
<path d="M286.648 154.691C286.648 154.691 279.131 180.758 270.43 184.717C261.73 188.676 216.447 158.605 216.447 158.605C216.447 158.605 208.064 154.225 205.56 151.06C203.433 148.373 205.438 149.444 206.01 149.383C203.433 146.363 203.883 143.787 205.56 145.464C201.64 139.417 204.599 140.211 205.671 140.311C203.433 138.635 203.322 134.604 206.004 136.28C208.375 137.763 220.001 145.908 220.001 145.908C220.001 145.908 218.557 137.902 220.223 136.841C221.455 136.058 225.087 147.512 225.087 147.512L260.503 163.025L267.799 146.158" fill="white"/>
<path d="M268.475 185.472C256.311 185.472 217.957 160.099 216.219 158.95C215.914 158.789 207.769 154.513 205.237 151.315C204.277 150.1 204.027 149.522 204.282 149.106C204.449 148.834 204.743 148.789 205.048 148.811C203.844 147.085 203.416 145.364 204.104 144.725C204.182 144.653 204.31 144.564 204.493 144.525C203.255 142.421 202.911 141.127 203.372 140.389C203.644 139.95 204.11 139.823 204.582 139.806C203.588 138.523 203.316 136.808 203.877 135.992C204.099 135.67 204.771 135.014 206.236 135.931C208.252 137.191 216.735 143.115 219.439 145.003C219.073 142.615 218.479 137.469 220.011 136.491C220.189 136.375 220.4 136.358 220.611 136.43C222.054 136.958 224.603 144.581 225.436 147.207L260.297 162.475L267.426 145.991C267.515 145.78 267.759 145.68 267.976 145.774C268.187 145.863 268.281 146.113 268.192 146.324L260.897 163.191C260.852 163.291 260.769 163.375 260.669 163.413C260.564 163.452 260.453 163.452 260.347 163.408L224.93 147.895C224.819 147.845 224.736 147.757 224.703 147.64C223.226 142.982 221.194 137.791 220.389 137.252C219.489 138.063 219.856 142.71 220.422 145.841C220.45 146.008 220.378 146.174 220.239 146.263C220.094 146.352 219.911 146.352 219.778 146.252C219.661 146.169 208.135 138.096 205.803 136.636C205.454 136.414 204.826 136.103 204.576 136.464C204.149 137.085 204.615 138.984 205.942 139.978C206.092 140.089 206.148 140.289 206.081 140.461C206.014 140.633 205.842 140.739 205.653 140.728C205.576 140.722 205.481 140.711 205.387 140.694C204.971 140.644 204.271 140.555 204.093 140.833C203.977 141.022 203.76 141.894 205.926 145.236C206.042 145.414 206.003 145.652 205.837 145.786C205.67 145.919 205.431 145.908 205.282 145.758C204.926 145.402 204.704 145.347 204.665 145.347C204.488 145.536 204.626 147.096 206.342 149.111C206.442 149.228 206.47 149.389 206.414 149.533C206.359 149.678 206.225 149.778 206.075 149.794C205.881 149.816 205.648 149.766 205.404 149.716C205.326 149.7 205.215 149.678 205.12 149.661C205.215 149.855 205.431 150.205 205.909 150.805C208.33 153.864 216.58 158.2 216.663 158.244C216.813 158.344 228.156 165.856 240.41 172.796C260.764 184.317 267.887 185.439 270.28 184.35C278.702 180.514 286.192 154.847 286.27 154.586C286.331 154.364 286.564 154.236 286.786 154.302C287.008 154.369 287.136 154.597 287.069 154.819C286.758 155.89 279.396 181.114 270.624 185.105C270.052 185.366 269.336 185.489 268.498 185.489L268.475 185.472Z" fill="#1F1C1D"/>
<path d="M262.623 165.318C262.523 165.318 262.423 165.284 262.345 165.212L260.23 163.33C260.058 163.175 260.041 162.914 260.197 162.742C260.352 162.569 260.613 162.558 260.785 162.708L262.901 164.59C263.073 164.746 263.089 165.007 262.934 165.179C262.851 165.273 262.74 165.318 262.623 165.318Z" fill="#1F1C1D"/>
<path d="M123.366 25.5268L120.34 26.3208C117.248 27.1314 114.905 29.6576 114.322 32.8001L113.794 35.6761L113.261 32.8001C112.678 29.6576 110.336 27.1369 107.249 26.3263L104.223 25.5324L107.254 24.7551C110.341 23.9667 112.701 21.4627 113.3 18.3313L113.794 15.7773L114.283 18.3258C114.888 21.4571 117.242 23.9611 120.335 24.7495L123.366 25.5268Z" fill="white"/>
<path d="M113.795 36.0927C113.595 36.0927 113.423 35.9483 113.384 35.754L112.851 32.878C112.301 29.9076 110.058 27.498 107.138 26.7318L104.112 25.9379C103.928 25.8879 103.801 25.7214 103.801 25.5326C103.801 25.3438 103.928 25.1773 104.112 25.1328L107.143 24.3555C110.064 23.6116 112.318 21.2131 112.884 18.2593L113.378 15.7054C113.417 15.5111 113.589 15.3667 113.789 15.3667C113.989 15.3667 114.161 15.5055 114.2 15.7054L114.688 18.2538C115.26 21.2131 117.514 23.606 120.435 24.3555L123.466 25.1328C123.65 25.1773 123.777 25.3438 123.777 25.5326C123.777 25.7214 123.65 25.8879 123.466 25.9379L120.44 26.7318C117.52 27.498 115.277 29.9132 114.727 32.8836L114.2 35.7595C114.161 35.9594 113.989 36.0982 113.789 36.0982L113.795 36.0927ZM105.877 25.5326L107.349 25.9212C110.58 26.7707 113.062 29.4357 113.667 32.7225L113.789 33.3832L113.911 32.7281C114.516 29.4413 116.998 26.7707 120.229 25.9212L121.701 25.5326L120.224 25.155C116.993 24.3278 114.5 21.6794 113.867 18.4037L113.783 17.9762L113.7 18.4092C113.067 21.6794 110.574 24.3278 107.343 25.155L105.866 25.5326H105.877Z" fill="#1F1C1D"/>
<path d="M298.093 120.307L295.067 121.101C291.974 121.911 289.631 124.437 289.048 127.58L288.521 130.456L287.988 127.58C287.405 124.437 285.062 121.917 281.975 121.106L278.949 120.312L281.981 119.535C285.068 118.746 287.427 116.242 288.027 113.111L288.521 110.557L289.01 113.106C289.615 116.237 291.969 118.741 295.061 119.529L298.093 120.307Z" fill="white"/>
<path d="M288.517 130.872C288.317 130.872 288.145 130.728 288.106 130.534L287.573 127.658C287.024 124.687 284.781 122.278 281.86 121.512L278.834 120.718C278.651 120.668 278.523 120.501 278.523 120.312C278.523 120.124 278.651 119.957 278.834 119.913L281.866 119.135C284.786 118.391 287.04 115.993 287.607 113.039L288.101 110.485C288.14 110.291 288.312 110.146 288.512 110.146C288.712 110.146 288.884 110.285 288.923 110.485L289.411 113.034C289.983 115.993 292.237 118.386 295.158 119.135L298.189 119.913C298.372 119.957 298.5 120.124 298.5 120.312C298.5 120.501 298.372 120.668 298.189 120.718L295.163 121.512C292.243 122.278 290 124.693 289.45 127.663L288.917 130.539C288.878 130.739 288.706 130.878 288.506 130.878L288.517 130.872ZM280.605 120.312L282.077 120.695C285.308 121.545 287.79 124.215 288.395 127.497L288.517 128.157L288.639 127.502C289.245 124.215 291.726 121.545 294.958 120.695L296.429 120.312L294.952 119.935C291.721 119.108 289.228 116.459 288.595 113.183L288.512 112.756L288.428 113.189C287.795 116.459 285.303 119.108 282.071 119.935L280.594 120.312H280.605Z" fill="#1F1C1D"/>
<path d="M286.989 32.4338C286.684 31.4289 286.278 30.4517 285.784 29.519L288.227 26.11C288.716 25.4215 288.638 24.4832 288.044 23.8836L284.924 20.7633C284.324 20.1526 283.375 20.0693 282.681 20.5634L279.272 22.9897C278.344 22.4956 277.367 22.0903 276.357 21.7849L275.663 17.6597C275.524 16.8158 274.786 16.1995 273.931 16.2106H269.555C268.7 16.1995 267.962 16.8158 267.823 17.6597L267.129 21.7849C266.124 22.0903 265.147 22.4956 264.214 22.9897L260.833 20.5634C260.145 20.0749 259.206 20.1526 258.607 20.7467L255.486 23.8669C254.898 24.4777 254.815 25.4104 255.287 26.11L257.713 29.519C257.219 30.4462 256.813 31.4233 256.508 32.4338L252.383 33.1278C251.539 33.2666 250.923 34.0051 250.934 34.8601V39.2629C250.923 40.1179 251.539 40.8563 252.383 40.9951L256.508 41.6892C256.813 42.6941 257.219 43.6713 257.713 44.604L255.287 47.9575C254.798 48.6459 254.876 49.5842 255.47 50.1839L258.59 53.3041C259.19 53.9149 260.139 53.9982 260.833 53.504L264.242 51.0777C265.169 51.5719 266.146 51.9772 267.157 52.2826L267.851 56.4078C267.99 57.2517 268.728 57.868 269.583 57.8569H273.986C274.841 57.868 275.579 57.2517 275.718 56.4078L276.412 52.2826C277.417 51.9772 278.394 51.5719 279.327 51.0777L282.681 53.504C283.369 53.9926 284.307 53.9149 284.907 53.3208L288.027 50.2005C288.638 49.6009 288.721 48.6515 288.227 47.9575L285.801 44.5485C286.295 43.6213 286.7 42.6441 287.006 41.6336L291.131 40.9396C291.975 40.8008 292.591 40.0624 292.58 39.2074V34.7879C292.591 33.9329 291.98 33.2 291.142 33.0556L286.989 32.4338ZM276.035 37.7472C275.624 40.1068 273.381 41.6892 271.027 41.2783C268.667 40.8675 267.085 38.6244 267.496 36.2703C267.807 34.4659 269.222 33.0501 271.027 32.7392C273.386 32.3283 275.629 33.9051 276.04 36.2648C276.129 36.7644 276.124 37.2752 276.04 37.7749V37.7472H276.035Z" fill="#D1D3D4"/>
<path d="M136.648 125.537H118.781V167.106H136.648V125.537Z" fill="#D1D3D4"/>
<path d="M158.539 114.599H140.672V167.105H158.539V114.599Z" fill="#D1D3D4"/>
<path d="M180.437 107.526H162.57V167.105H180.437V107.526Z" fill="#D1D3D4"/>
<path d="M186.166 170.642H113.051V174.545H186.166V170.642Z" fill="#D1D3D4"/>
</svg>
