<svg width="250" height="250" viewBox="0 0 250 250" fill="none" xmlns="http://www.w3.org/2000/svg">
<rect width="250" height="250" rx="6" fill="#EEF2FF"/>
<g clip-path="url(#clip0_17289_32962)">
<rect x="29.7656" y="38.4219" width="203.436" height="173.156" rx="8" fill="white"/>
<rect x="39.4082" y="69.2617" width="184.152" height="15.3359" rx="7.66797" fill="#F5F3FF" stroke="#6B4BF9" stroke-width="0.5"/>
<rect x="25.2285" y="38.4219" width="213.303" height="18.6367" fill="#DED7FF"/>
<path d="M214.465 73.7969C215.941 73.797 217.135 74.9829 217.135 76.4404C217.135 77.8978 215.941 79.0829 214.465 79.083C212.988 79.083 211.795 77.8979 211.795 76.4404C211.795 74.9828 212.988 73.7969 214.465 73.7969Z" stroke="#6B4BF9" stroke-width="0.5"/>
<path d="M216.109 78.8438L217.588 80.3089" stroke="#6B4BF9" stroke-width="0.5" stroke-linecap="round"/>
<path d="M45.3789 76.9297H159.334" stroke="#D3C9FF" stroke-width="3" stroke-linecap="round"/>
</g>
<rect x="30.2656" y="38.9219" width="202.436" height="172.156" rx="7.5" stroke="#C8BBFF"/>
<path d="M30.5508 57.3867L233.201 57.3867" stroke="#C8BBFF"/>
<path d="M48.9873 123.053C51.54 123.053 53.6094 120.983 53.6094 118.431C53.6094 115.878 51.54 113.809 48.9873 113.809C46.4346 113.809 44.3652 115.878 44.3652 118.431C44.3652 120.983 46.4346 123.053 48.9873 123.053Z" fill="#ABFFB9" stroke="#00A759" stroke-width="0.5"/>
<path d="M49.2145 115.821C49.0879 115.695 48.8828 115.695 48.7563 115.821L46.6945 117.883C46.568 118.01 46.568 118.215 46.6945 118.341C46.821 118.468 47.0262 118.468 47.1527 118.341L48.9854 116.509L50.8181 118.341C50.9446 118.468 51.1497 118.468 51.2762 118.341C51.4028 118.215 51.4028 118.01 51.2762 117.883L49.2145 115.821ZM48.9854 120.81H49.3093V116.051L48.9854 116.051H48.6614V120.81H48.9854Z" fill="#00A759"/>
<path d="M203.34 128.352H45.1953V130.601H203.34V128.352Z" fill="#8278FF"/>
<path d="M150.374 135.105H45.1953V137.355H150.374V135.105Z" fill="#8278FF"/>
<path d="M214.789 141.852H45.1953V144.101H214.789V141.852Z" fill="#8278FF"/>
<path d="M194.282 148.523H45.1953V150.773H194.282V148.523Z" fill="#8278FF"/>
<path d="M82.3027 118.43H59.9082V119.554H82.3027V118.43Z" fill="#8278FF"/>
<path d="M101.299 118.43H88.8438V119.554H101.299V118.43Z" fill="#8278FF"/>
<path d="M118.911 118.43H106.959V119.554H118.911V118.43Z" fill="#8278FF"/>
<path d="M203.34 174.656H45.1953V176.906H203.34V174.656Z" fill="#DEDBFA"/>
<path d="M150.374 181.41H45.1953V183.66H150.374V181.41Z" fill="#DEDBFA"/>
<path d="M214.789 188.156H45.1953V190.406H214.789V188.156Z" fill="#DEDBFA"/>
<path d="M194.282 194.828H45.1953V197.078H194.282V194.828Z" fill="#DEDBFA"/>
<path d="M67.5898 164.734H45.1953V165.859H67.5898V164.734Z" fill="#DEDBFA"/>
<path d="M86.5862 164.734H74.1309V165.859H86.5862V164.734Z" fill="#DEDBFA"/>
<path d="M104.198 164.734H92.2461V165.859H104.198V164.734Z" fill="#DEDBFA"/>
<rect x="44.3652" y="96.4688" width="15.8681" height="2.29688" rx="1.14844" fill="#DEDBFA"/>
<rect x="66.2324" y="96.4688" width="15.8681" height="2.29688" rx="1.14844" fill="#DEDBFA"/>
<rect x="88.0996" y="96.4688" width="15.8681" height="2.29688" rx="1.14844" fill="#DEDBFA"/>
<rect x="109.967" y="96.4688" width="15.8681" height="2.29688" rx="1.14844" fill="#DEDBFA"/>
<circle cx="39.6152" cy="48.373" r="3.0957" fill="#8278FF"/>
<circle cx="48.3359" cy="48.373" r="3.0957" fill="#8278FF"/>
<circle cx="57.0566" cy="48.373" r="3.0957" fill="#8278FF"/>
<rect x="44.9609" y="160.719" width="5.63228" height="11.2646" fill="#8278FF"/>
<path d="M44.1445 174.006H51.4092C52.2928 174.006 53.0088 174.722 53.0088 175.605V211.178H42.5449V175.605C42.5449 174.722 43.2609 174.006 44.1445 174.006Z" fill="#8278FF" stroke="#8278FF" stroke-width="0.8"/>
<circle cx="47.307" cy="133.028" r="30.1082" fill="#DED7FF" stroke="#C8BBFF" stroke-width="0.8"/>
<g clip-path="url(#clip1_17289_32962)">
<rect x="22.8438" y="108.961" width="57.7305" height="49.3164" fill="white"/>
<path d="M49.5391 134.144C54.0426 134.144 57.6935 130.451 57.6935 125.896C57.6935 121.341 54.0426 117.648 49.5391 117.648C45.0356 117.648 41.3848 121.341 41.3848 125.896C41.3848 130.451 45.0356 134.144 49.5391 134.144Z" fill="#E3FFDF" stroke="#00A759" stroke-width="0.5"/>
<path d="M49.9432 121.236C49.72 121.01 49.3581 121.01 49.1349 121.236L45.4975 124.915C45.2743 125.141 45.2743 125.507 45.4975 125.732C45.7207 125.958 46.0826 125.958 46.3058 125.732L49.5391 122.462L52.7724 125.732C52.9956 125.958 53.3575 125.958 53.5807 125.732C53.8039 125.507 53.8039 125.141 53.5807 124.915L49.9432 121.236ZM49.5391 130.138H50.1107V121.645H49.5391H48.9675V130.138H49.5391Z" fill="#00A759"/>
<path d="M261.881 139.34H42.5371V142.496H261.881V139.34Z" fill="#8278FF"/>
<path d="M188.417 148.816H42.5371V151.972H188.417V148.816Z" fill="#8278FF"/>
<path d="M94.004 125.422H62.9434V127H94.004V125.422Z" fill="#8278FF"/>
</g>
<rect x="23.7066" y="109.361" width="47.2" height="47.2" rx="23.6" stroke="#C8BBFF" stroke-width="0.8"/>
<defs>
<clipPath id="clip0_17289_32962">
<rect x="29.7656" y="38.4219" width="203.436" height="173.156" rx="8" fill="white"/>
</clipPath>
<clipPath id="clip1_17289_32962">
<rect x="23.3066" y="108.961" width="48" height="48" rx="24" fill="white"/>
</clipPath>
</defs>
</svg>
